%TF.GenerationSoftware,KiCad,Pcbnew,10.0.3*%
%TF.CreationDate,2026-07-04T01:03:12-04:00*%
%TF.ProjectId,ESP32-C5-Board-V5,45535033-322d-4433-952d-426f6172642d,rev?*%
%TF.SameCoordinates,Original*%
%TF.FileFunction,Soldermask,Top*%
%TF.FilePolarity,Negative*%
%FSLAX46Y46*%
G04 Gerber Fmt 4.6, Leading zero omitted, Abs format (unit mm)*
G04 Created by KiCad (PCBNEW 10.0.3) date 2026-07-04 01:03:12*
%MOMM*%
%LPD*%
G01*
G04 APERTURE LIST*
G04 Aperture macros list*
%AMRoundRect*
0 Rectangle with rounded corners*
0 $1 Rounding radius*
0 $2 $3 $4 $5 $6 $7 $8 $9 X,Y pos of 4 corners*
0 Add a 4 corners polygon primitive as box body*
4,1,4,$2,$3,$4,$5,$6,$7,$8,$9,$2,$3,0*
0 Add four circle primitives for the rounded corners*
1,1,$1+$1,$2,$3*
1,1,$1+$1,$4,$5*
1,1,$1+$1,$6,$7*
1,1,$1+$1,$8,$9*
0 Add four rect primitives between the rounded corners*
20,1,$1+$1,$2,$3,$4,$5,0*
20,1,$1+$1,$4,$5,$6,$7,0*
20,1,$1+$1,$6,$7,$8,$9,0*
20,1,$1+$1,$8,$9,$2,$3,0*%
G04 Aperture macros list end*
%ADD10RoundRect,0.225000X-0.225000X-0.250000X0.225000X-0.250000X0.225000X0.250000X-0.225000X0.250000X0*%
%ADD11C,1.440000*%
%ADD12C,2.250000*%
%ADD13R,1.700000X1.700000*%
%ADD14C,1.700000*%
%ADD15RoundRect,0.200000X-0.200000X-0.275000X0.200000X-0.275000X0.200000X0.275000X-0.200000X0.275000X0*%
%ADD16RoundRect,0.250000X0.375000X0.625000X-0.375000X0.625000X-0.375000X-0.625000X0.375000X-0.625000X0*%
%ADD17C,0.650000*%
%ADD18RoundRect,0.150000X0.425000X-0.150000X0.425000X0.150000X-0.425000X0.150000X-0.425000X-0.150000X0*%
%ADD19RoundRect,0.075000X0.500000X-0.075000X0.500000X0.075000X-0.500000X0.075000X-0.500000X-0.075000X0*%
%ADD20O,2.100000X1.000000*%
%ADD21O,1.800000X1.000000*%
%ADD22RoundRect,0.250000X-1.500000X-0.550000X1.500000X-0.550000X1.500000X0.550000X-1.500000X0.550000X0*%
%ADD23RoundRect,0.225000X-0.375000X0.225000X-0.375000X-0.225000X0.375000X-0.225000X0.375000X0.225000X0*%
G04 APERTURE END LIST*
D10*
%TO.C,C6*%
X205450000Y-122500000D03*
X207000000Y-122500000D03*
%TD*%
%TO.C,C7*%
X141450000Y-122500000D03*
X143000000Y-122500000D03*
%TD*%
D11*
%TO.C,J6*%
X100400000Y-131460000D03*
D12*
X97860000Y-128920000D03*
X97860000Y-134000000D03*
X102940000Y-128920000D03*
X102940000Y-134000000D03*
%TD*%
D13*
%TO.C,H10A*%
X235520000Y-103880000D03*
D14*
X232980000Y-103880000D03*
X230440000Y-103880000D03*
X227900000Y-103880000D03*
X225360000Y-103880000D03*
X222820000Y-103880000D03*
X220280000Y-103880000D03*
%TD*%
D10*
%TO.C,C8*%
X237450000Y-96000000D03*
X239000000Y-96000000D03*
%TD*%
D15*
%TO.C,R1*%
X252350000Y-120000000D03*
X254000000Y-120000000D03*
%TD*%
D11*
%TO.C,J8*%
X165400000Y-131500000D03*
D12*
X162860000Y-128960000D03*
X162860000Y-134040000D03*
X167940000Y-128960000D03*
X167940000Y-134040000D03*
%TD*%
D13*
%TO.C,H4B*%
X188280000Y-92120000D03*
D14*
X190820000Y-92120000D03*
X193360000Y-92120000D03*
X195900000Y-92120000D03*
X198440000Y-92120000D03*
X200980000Y-92120000D03*
X203520000Y-92120000D03*
%TD*%
D13*
%TO.C,H6A*%
X107520000Y-103880000D03*
D14*
X104980000Y-103880000D03*
X102440000Y-103880000D03*
X99900000Y-103880000D03*
X97360000Y-103880000D03*
X94820000Y-103880000D03*
X92280000Y-103880000D03*
%TD*%
D11*
%TO.C,J5*%
X229900000Y-64000000D03*
D12*
X227360000Y-61460000D03*
X227360000Y-66540000D03*
X232440000Y-61460000D03*
X232440000Y-66540000D03*
%TD*%
D10*
%TO.C,C16*%
X212725000Y-96000000D03*
X214275000Y-96000000D03*
%TD*%
D13*
%TO.C,H1B*%
X92280000Y-92120000D03*
D14*
X94820000Y-92120000D03*
X97360000Y-92120000D03*
X99900000Y-92120000D03*
X102440000Y-92120000D03*
X104980000Y-92120000D03*
X107520000Y-92120000D03*
%TD*%
D11*
%TO.C,J10*%
X229900000Y-131460000D03*
D12*
X227360000Y-128920000D03*
X227360000Y-134000000D03*
X232440000Y-128920000D03*
X232440000Y-134000000D03*
%TD*%
D13*
%TO.C,H9A*%
X203520000Y-103880000D03*
D14*
X200980000Y-103880000D03*
X198440000Y-103880000D03*
X195900000Y-103880000D03*
X193360000Y-103880000D03*
X190820000Y-103880000D03*
X188280000Y-103880000D03*
%TD*%
D13*
%TO.C,H4A*%
X203520000Y-76880000D03*
D14*
X200980000Y-76880000D03*
X198440000Y-76880000D03*
X195900000Y-76880000D03*
X193360000Y-76880000D03*
X190820000Y-76880000D03*
X188280000Y-76880000D03*
%TD*%
D16*
%TO.C,F1*%
X249000000Y-123000000D03*
X246200000Y-123000000D03*
%TD*%
D10*
%TO.C,C9*%
X173450000Y-122500000D03*
X175000000Y-122500000D03*
%TD*%
D13*
%TO.C,H9B*%
X188280000Y-119120000D03*
D14*
X190820000Y-119120000D03*
X193360000Y-119120000D03*
X195900000Y-119120000D03*
X198440000Y-119120000D03*
X200980000Y-119120000D03*
X203520000Y-119120000D03*
%TD*%
D13*
%TO.C,H3B*%
X156280000Y-92120000D03*
D14*
X158820000Y-92120000D03*
X161360000Y-92120000D03*
X163900000Y-92120000D03*
X166440000Y-92120000D03*
X168980000Y-92120000D03*
X171520000Y-92120000D03*
%TD*%
D11*
%TO.C,J2*%
X132900000Y-64000000D03*
D12*
X130360000Y-61460000D03*
X130360000Y-66540000D03*
X135440000Y-61460000D03*
X135440000Y-66540000D03*
%TD*%
D17*
%TO.C,J11*%
X256895000Y-121890000D03*
X256895000Y-116110000D03*
D18*
X255820000Y-122200000D03*
X255820000Y-121400000D03*
D19*
X255820000Y-120250000D03*
X255820000Y-119250000D03*
X255820000Y-118750000D03*
X255820000Y-117750000D03*
D18*
X255820000Y-116600000D03*
X255820000Y-115800000D03*
X255820000Y-115800000D03*
X255820000Y-116600000D03*
D19*
X255820000Y-117250000D03*
X255820000Y-118250000D03*
X255820000Y-119750000D03*
X255820000Y-120750000D03*
D18*
X255820000Y-121400000D03*
X255820000Y-122200000D03*
D20*
X256395000Y-123320000D03*
D21*
X260575000Y-123320000D03*
D20*
X256395000Y-114680000D03*
D21*
X260575000Y-114680000D03*
%TD*%
D10*
%TO.C,C10*%
X141450000Y-96000000D03*
X143000000Y-96000000D03*
%TD*%
D13*
%TO.C,H5B*%
X220280000Y-92120000D03*
D14*
X222820000Y-92120000D03*
X225360000Y-92120000D03*
X227900000Y-92120000D03*
X230440000Y-92120000D03*
X232980000Y-92120000D03*
X235520000Y-92120000D03*
%TD*%
D10*
%TO.C,C11*%
X109450000Y-96000000D03*
X111000000Y-96000000D03*
%TD*%
D13*
%TO.C,H3A*%
X171520000Y-76880000D03*
D14*
X168980000Y-76880000D03*
X166440000Y-76880000D03*
X163900000Y-76880000D03*
X161360000Y-76880000D03*
X158820000Y-76880000D03*
X156280000Y-76880000D03*
%TD*%
D13*
%TO.C,H7A*%
X139520000Y-103880000D03*
D14*
X136980000Y-103880000D03*
X134440000Y-103880000D03*
X131900000Y-103880000D03*
X129360000Y-103880000D03*
X126820000Y-103880000D03*
X124280000Y-103880000D03*
%TD*%
D11*
%TO.C,J3*%
X164900000Y-63960000D03*
D12*
X162360000Y-61420000D03*
X162360000Y-66500000D03*
X167440000Y-61420000D03*
X167440000Y-66500000D03*
%TD*%
D10*
%TO.C,C3*%
X149000000Y-95500000D03*
X150550000Y-95500000D03*
%TD*%
D22*
%TO.C,C1*%
X249500000Y-97000000D03*
X255100000Y-97000000D03*
%TD*%
D13*
%TO.C,H8A*%
X171520000Y-103880000D03*
D14*
X168980000Y-103880000D03*
X166440000Y-103880000D03*
X163900000Y-103880000D03*
X161360000Y-103880000D03*
X158820000Y-103880000D03*
X156280000Y-103880000D03*
%TD*%
D13*
%TO.C,H1A*%
X107520000Y-76880000D03*
D14*
X104980000Y-76880000D03*
X102440000Y-76880000D03*
X99900000Y-76880000D03*
X97360000Y-76880000D03*
X94820000Y-76880000D03*
X92280000Y-76880000D03*
%TD*%
D10*
%TO.C,C17*%
X116725000Y-127500000D03*
X118275000Y-127500000D03*
%TD*%
D13*
%TO.C,H6B*%
X92280000Y-119120000D03*
D14*
X94820000Y-119120000D03*
X97360000Y-119120000D03*
X99900000Y-119120000D03*
X102440000Y-119120000D03*
X104980000Y-119120000D03*
X107520000Y-119120000D03*
%TD*%
D10*
%TO.C,C2*%
X212950000Y-127000000D03*
X214500000Y-127000000D03*
%TD*%
D13*
%TO.C,H2A*%
X139520000Y-76880000D03*
D14*
X136980000Y-76880000D03*
X134440000Y-76880000D03*
X131900000Y-76880000D03*
X129360000Y-76880000D03*
X126820000Y-76880000D03*
X124280000Y-76880000D03*
%TD*%
D10*
%TO.C,C12*%
X173450000Y-96000000D03*
X175000000Y-96000000D03*
%TD*%
D13*
%TO.C,H8B*%
X156280000Y-119120000D03*
D14*
X158820000Y-119120000D03*
X161360000Y-119120000D03*
X163900000Y-119120000D03*
X166440000Y-119120000D03*
X168980000Y-119120000D03*
X171520000Y-119120000D03*
%TD*%
D15*
%TO.C,R2*%
X252350000Y-118000000D03*
X254000000Y-118000000D03*
%TD*%
D13*
%TO.C,T8B*%
X124280000Y-119120000D03*
D14*
X126820000Y-119120000D03*
X129360000Y-119120000D03*
X131900000Y-119120000D03*
X134440000Y-119120000D03*
X136980000Y-119120000D03*
X139520000Y-119120000D03*
%TD*%
D23*
%TO.C,D1*%
X246000000Y-116200000D03*
X246000000Y-119500000D03*
%TD*%
D11*
%TO.C,J9*%
X196400000Y-131500000D03*
D12*
X193860000Y-128960000D03*
X193860000Y-134040000D03*
X198940000Y-128960000D03*
X198940000Y-134040000D03*
%TD*%
D22*
%TO.C,C4*%
X245400000Y-107500000D03*
X251000000Y-107500000D03*
%TD*%
D10*
%TO.C,C13*%
X109450000Y-122500000D03*
X111000000Y-122500000D03*
%TD*%
D11*
%TO.C,J1*%
X99400000Y-63960000D03*
D12*
X96860000Y-61420000D03*
X96860000Y-66500000D03*
X101940000Y-61420000D03*
X101940000Y-66500000D03*
%TD*%
D13*
%TO.C,H2B*%
X124280000Y-92120000D03*
D14*
X126820000Y-92120000D03*
X129360000Y-92120000D03*
X131900000Y-92120000D03*
X134440000Y-92120000D03*
X136980000Y-92120000D03*
X139520000Y-92120000D03*
%TD*%
D11*
%TO.C,J4*%
X197400000Y-64000000D03*
D12*
X194860000Y-61460000D03*
X194860000Y-66540000D03*
X199940000Y-61460000D03*
X199940000Y-66540000D03*
%TD*%
D11*
%TO.C,J7*%
X131400000Y-131500000D03*
D12*
X128860000Y-128960000D03*
X128860000Y-134040000D03*
X133940000Y-128960000D03*
X133940000Y-134040000D03*
%TD*%
D13*
%TO.C,H5A*%
X235520000Y-76880000D03*
D14*
X232980000Y-76880000D03*
X230440000Y-76880000D03*
X227900000Y-76880000D03*
X225360000Y-76880000D03*
X222820000Y-76880000D03*
X220280000Y-76880000D03*
%TD*%
D10*
%TO.C,C14*%
X237500000Y-123000000D03*
X239050000Y-123000000D03*
%TD*%
%TO.C,C15*%
X205225000Y-96000000D03*
X206775000Y-96000000D03*
%TD*%
%TO.C,C5*%
X149000000Y-127000000D03*
X150550000Y-127000000D03*
%TD*%
D13*
%TO.C,H10B*%
X220280000Y-119120000D03*
D14*
X222820000Y-119120000D03*
X225360000Y-119120000D03*
X227900000Y-119120000D03*
X230440000Y-119120000D03*
X232980000Y-119120000D03*
X235520000Y-119120000D03*
%TD*%
D10*
%TO.C,C18*%
X181225000Y-127000000D03*
X182775000Y-127000000D03*
%TD*%
M02*
