%TF.GenerationSoftware,KiCad,Pcbnew,10.0.3*%
%TF.CreationDate,2026-06-11T20:12:14-04:00*%
%TF.ProjectId,ESP32-C5-Board,45535033-322d-4433-952d-426f6172642e,rev?*%
%TF.SameCoordinates,Original*%
%TF.FileFunction,Soldermask,Bot*%
%TF.FilePolarity,Negative*%
%FSLAX46Y46*%
G04 Gerber Fmt 4.6, Leading zero omitted, Abs format (unit mm)*
G04 Created by KiCad (PCBNEW 10.0.3) date 2026-06-11 20:12:14*
%MOMM*%
%LPD*%
G01*
G04 APERTURE LIST*
G04 Aperture macros list*
%AMRoundRect*
0 Rectangle with rounded corners*
0 $1 Rounding radius*
0 $2 $3 $4 $5 $6 $7 $8 $9 X,Y pos of 4 corners*
0 Add a 4 corners polygon primitive as box body*
4,1,4,$2,$3,$4,$5,$6,$7,$8,$9,$2,$3,0*
0 Add four circle primitives for the rounded corners*
1,1,$1+$1,$2,$3*
1,1,$1+$1,$4,$5*
1,1,$1+$1,$6,$7*
1,1,$1+$1,$8,$9*
0 Add four rect primitives between the rounded corners*
20,1,$1+$1,$2,$3,$4,$5,0*
20,1,$1+$1,$4,$5,$6,$7,0*
20,1,$1+$1,$6,$7,$8,$9,0*
20,1,$1+$1,$8,$9,$2,$3,0*%
G04 Aperture macros list end*
%ADD10C,0.650000*%
%ADD11O,1.000000X2.100000*%
%ADD12O,1.000000X1.800000*%
%ADD13R,1.700000X1.700000*%
%ADD14C,1.700000*%
%ADD15C,1.524000*%
%ADD16RoundRect,0.152400X0.609600X-1.063600X0.609600X1.063600X-0.609600X1.063600X-0.609600X-1.063600X0*%
%ADD17RoundRect,0.152400X-0.609600X1.063600X-0.609600X-1.063600X0.609600X-1.063600X0.609600X1.063600X0*%
%ADD18C,6.000000*%
G04 APERTURE END LIST*
D10*
%TO.C,J13*%
X118610000Y-141395000D03*
X124390000Y-141395000D03*
D11*
X117180000Y-140895000D03*
D12*
X117180000Y-145075000D03*
D11*
X125820000Y-140895000D03*
D12*
X125820000Y-145075000D03*
%TD*%
D13*
%TO.C,J14*%
X83000000Y-132460000D03*
D14*
X83000000Y-135000000D03*
%TD*%
D15*
%TO.C,J1*%
X76380000Y-46880000D03*
D16*
X76380000Y-46045000D03*
D15*
X78920000Y-46880000D03*
D16*
X78920000Y-46045000D03*
D15*
X81460000Y-46880000D03*
D16*
X81460000Y-46045000D03*
D15*
X84000000Y-46880000D03*
D16*
X84000000Y-46045000D03*
D15*
X86540000Y-46880000D03*
D16*
X86540000Y-46045000D03*
D15*
X89080000Y-46880000D03*
D16*
X89080000Y-46045000D03*
D15*
X91620000Y-46880000D03*
D16*
X91620000Y-46045000D03*
D17*
X91620000Y-62955000D03*
D15*
X91620000Y-62120000D03*
D17*
X89080000Y-62955000D03*
D15*
X89080000Y-62120000D03*
D17*
X86540000Y-62955000D03*
D15*
X86540000Y-62120000D03*
D17*
X84000000Y-62955000D03*
D15*
X84000000Y-62120000D03*
D17*
X81460000Y-62955000D03*
D15*
X81460000Y-62120000D03*
D17*
X78920000Y-62955000D03*
D15*
X78920000Y-62120000D03*
D17*
X76380000Y-62955000D03*
D15*
X76380000Y-62120000D03*
%TD*%
%TO.C,J12*%
X160380000Y-98880000D03*
D16*
X160380000Y-98045000D03*
D15*
X162920000Y-98880000D03*
D16*
X162920000Y-98045000D03*
D15*
X165460000Y-98880000D03*
D16*
X165460000Y-98045000D03*
D15*
X168000000Y-98880000D03*
D16*
X168000000Y-98045000D03*
D15*
X170540000Y-98880000D03*
D16*
X170540000Y-98045000D03*
D15*
X173080000Y-98880000D03*
D16*
X173080000Y-98045000D03*
D15*
X175620000Y-98880000D03*
D16*
X175620000Y-98045000D03*
D17*
X175620000Y-114955000D03*
D15*
X175620000Y-114120000D03*
D17*
X173080000Y-114955000D03*
D15*
X173080000Y-114120000D03*
D17*
X170540000Y-114955000D03*
D15*
X170540000Y-114120000D03*
D17*
X168000000Y-114955000D03*
D15*
X168000000Y-114120000D03*
D17*
X165460000Y-114955000D03*
D15*
X165460000Y-114120000D03*
D17*
X162920000Y-114955000D03*
D15*
X162920000Y-114120000D03*
D17*
X160380000Y-114955000D03*
D15*
X160380000Y-114120000D03*
%TD*%
D18*
%TO.C,MH1*%
X58500000Y-34000000D03*
%TD*%
D15*
%TO.C,J4*%
X160380000Y-46880000D03*
D16*
X160380000Y-46045000D03*
D15*
X162920000Y-46880000D03*
D16*
X162920000Y-46045000D03*
D15*
X165460000Y-46880000D03*
D16*
X165460000Y-46045000D03*
D15*
X168000000Y-46880000D03*
D16*
X168000000Y-46045000D03*
D15*
X170540000Y-46880000D03*
D16*
X170540000Y-46045000D03*
D15*
X173080000Y-46880000D03*
D16*
X173080000Y-46045000D03*
D15*
X175620000Y-46880000D03*
D16*
X175620000Y-46045000D03*
D17*
X175620000Y-62955000D03*
D15*
X175620000Y-62120000D03*
D17*
X173080000Y-62955000D03*
D15*
X173080000Y-62120000D03*
D17*
X170540000Y-62955000D03*
D15*
X170540000Y-62120000D03*
D17*
X168000000Y-62955000D03*
D15*
X168000000Y-62120000D03*
D17*
X165460000Y-62955000D03*
D15*
X165460000Y-62120000D03*
D17*
X162920000Y-62955000D03*
D15*
X162920000Y-62120000D03*
D17*
X160380000Y-62955000D03*
D15*
X160380000Y-62120000D03*
%TD*%
%TO.C,J8*%
X160380000Y-72880000D03*
D16*
X160380000Y-72045000D03*
D15*
X162920000Y-72880000D03*
D16*
X162920000Y-72045000D03*
D15*
X165460000Y-72880000D03*
D16*
X165460000Y-72045000D03*
D15*
X168000000Y-72880000D03*
D16*
X168000000Y-72045000D03*
D15*
X170540000Y-72880000D03*
D16*
X170540000Y-72045000D03*
D15*
X173080000Y-72880000D03*
D16*
X173080000Y-72045000D03*
D15*
X175620000Y-72880000D03*
D16*
X175620000Y-72045000D03*
D17*
X175620000Y-88955000D03*
D15*
X175620000Y-88120000D03*
D17*
X173080000Y-88955000D03*
D15*
X173080000Y-88120000D03*
D17*
X170540000Y-88955000D03*
D15*
X170540000Y-88120000D03*
D17*
X168000000Y-88955000D03*
D15*
X168000000Y-88120000D03*
D17*
X165460000Y-88955000D03*
D15*
X165460000Y-88120000D03*
D17*
X162920000Y-88955000D03*
D15*
X162920000Y-88120000D03*
D17*
X160380000Y-88955000D03*
D15*
X160380000Y-88120000D03*
%TD*%
D18*
%TO.C,MH3*%
X59000000Y-144500000D03*
%TD*%
D15*
%TO.C,J2*%
X104380000Y-46880000D03*
D16*
X104380000Y-46045000D03*
D15*
X106920000Y-46880000D03*
D16*
X106920000Y-46045000D03*
D15*
X109460000Y-46880000D03*
D16*
X109460000Y-46045000D03*
D15*
X112000000Y-46880000D03*
D16*
X112000000Y-46045000D03*
D15*
X114540000Y-46880000D03*
D16*
X114540000Y-46045000D03*
D15*
X117080000Y-46880000D03*
D16*
X117080000Y-46045000D03*
D15*
X119620000Y-46880000D03*
D16*
X119620000Y-46045000D03*
D17*
X119620000Y-62955000D03*
D15*
X119620000Y-62120000D03*
D17*
X117080000Y-62955000D03*
D15*
X117080000Y-62120000D03*
D17*
X114540000Y-62955000D03*
D15*
X114540000Y-62120000D03*
D17*
X112000000Y-62955000D03*
D15*
X112000000Y-62120000D03*
D17*
X109460000Y-62955000D03*
D15*
X109460000Y-62120000D03*
D17*
X106920000Y-62955000D03*
D15*
X106920000Y-62120000D03*
D17*
X104380000Y-62955000D03*
D15*
X104380000Y-62120000D03*
%TD*%
D18*
%TO.C,MH4*%
X184500000Y-145000000D03*
%TD*%
D15*
%TO.C,J10*%
X104380000Y-98880000D03*
D16*
X104380000Y-98045000D03*
D15*
X106920000Y-98880000D03*
D16*
X106920000Y-98045000D03*
D15*
X109460000Y-98880000D03*
D16*
X109460000Y-98045000D03*
D15*
X112000000Y-98880000D03*
D16*
X112000000Y-98045000D03*
D15*
X114540000Y-98880000D03*
D16*
X114540000Y-98045000D03*
D15*
X117080000Y-98880000D03*
D16*
X117080000Y-98045000D03*
D15*
X119620000Y-98880000D03*
D16*
X119620000Y-98045000D03*
D17*
X119620000Y-114955000D03*
D15*
X119620000Y-114120000D03*
D17*
X117080000Y-114955000D03*
D15*
X117080000Y-114120000D03*
D17*
X114540000Y-114955000D03*
D15*
X114540000Y-114120000D03*
D17*
X112000000Y-114955000D03*
D15*
X112000000Y-114120000D03*
D17*
X109460000Y-114955000D03*
D15*
X109460000Y-114120000D03*
D17*
X106920000Y-114955000D03*
D15*
X106920000Y-114120000D03*
D17*
X104380000Y-114955000D03*
D15*
X104380000Y-114120000D03*
%TD*%
%TO.C,J6*%
X104380000Y-72880000D03*
D16*
X104380000Y-72045000D03*
D15*
X106920000Y-72880000D03*
D16*
X106920000Y-72045000D03*
D15*
X109460000Y-72880000D03*
D16*
X109460000Y-72045000D03*
D15*
X112000000Y-72880000D03*
D16*
X112000000Y-72045000D03*
D15*
X114540000Y-72880000D03*
D16*
X114540000Y-72045000D03*
D15*
X117080000Y-72880000D03*
D16*
X117080000Y-72045000D03*
D15*
X119620000Y-72880000D03*
D16*
X119620000Y-72045000D03*
D17*
X119620000Y-88955000D03*
D15*
X119620000Y-88120000D03*
D17*
X117080000Y-88955000D03*
D15*
X117080000Y-88120000D03*
D17*
X114540000Y-88955000D03*
D15*
X114540000Y-88120000D03*
D17*
X112000000Y-88955000D03*
D15*
X112000000Y-88120000D03*
D17*
X109460000Y-88955000D03*
D15*
X109460000Y-88120000D03*
D17*
X106920000Y-88955000D03*
D15*
X106920000Y-88120000D03*
D17*
X104380000Y-88955000D03*
D15*
X104380000Y-88120000D03*
%TD*%
%TO.C,J9*%
X76380000Y-98880000D03*
D16*
X76380000Y-98045000D03*
D15*
X78920000Y-98880000D03*
D16*
X78920000Y-98045000D03*
D15*
X81460000Y-98880000D03*
D16*
X81460000Y-98045000D03*
D15*
X84000000Y-98880000D03*
D16*
X84000000Y-98045000D03*
D15*
X86540000Y-98880000D03*
D16*
X86540000Y-98045000D03*
D15*
X89080000Y-98880000D03*
D16*
X89080000Y-98045000D03*
D15*
X91620000Y-98880000D03*
D16*
X91620000Y-98045000D03*
D17*
X91620000Y-114955000D03*
D15*
X91620000Y-114120000D03*
D17*
X89080000Y-114955000D03*
D15*
X89080000Y-114120000D03*
D17*
X86540000Y-114955000D03*
D15*
X86540000Y-114120000D03*
D17*
X84000000Y-114955000D03*
D15*
X84000000Y-114120000D03*
D17*
X81460000Y-114955000D03*
D15*
X81460000Y-114120000D03*
D17*
X78920000Y-114955000D03*
D15*
X78920000Y-114120000D03*
D17*
X76380000Y-114955000D03*
D15*
X76380000Y-114120000D03*
%TD*%
%TO.C,J3*%
X132380000Y-46880000D03*
D16*
X132380000Y-46045000D03*
D15*
X134920000Y-46880000D03*
D16*
X134920000Y-46045000D03*
D15*
X137460000Y-46880000D03*
D16*
X137460000Y-46045000D03*
D15*
X140000000Y-46880000D03*
D16*
X140000000Y-46045000D03*
D15*
X142540000Y-46880000D03*
D16*
X142540000Y-46045000D03*
D15*
X145080000Y-46880000D03*
D16*
X145080000Y-46045000D03*
D15*
X147620000Y-46880000D03*
D16*
X147620000Y-46045000D03*
D17*
X147620000Y-62955000D03*
D15*
X147620000Y-62120000D03*
D17*
X145080000Y-62955000D03*
D15*
X145080000Y-62120000D03*
D17*
X142540000Y-62955000D03*
D15*
X142540000Y-62120000D03*
D17*
X140000000Y-62955000D03*
D15*
X140000000Y-62120000D03*
D17*
X137460000Y-62955000D03*
D15*
X137460000Y-62120000D03*
D17*
X134920000Y-62955000D03*
D15*
X134920000Y-62120000D03*
D17*
X132380000Y-62955000D03*
D15*
X132380000Y-62120000D03*
%TD*%
%TO.C,J11*%
X132380000Y-98880000D03*
D16*
X132380000Y-98045000D03*
D15*
X134920000Y-98880000D03*
D16*
X134920000Y-98045000D03*
D15*
X137460000Y-98880000D03*
D16*
X137460000Y-98045000D03*
D15*
X140000000Y-98880000D03*
D16*
X140000000Y-98045000D03*
D15*
X142540000Y-98880000D03*
D16*
X142540000Y-98045000D03*
D15*
X145080000Y-98880000D03*
D16*
X145080000Y-98045000D03*
D15*
X147620000Y-98880000D03*
D16*
X147620000Y-98045000D03*
D17*
X147620000Y-114955000D03*
D15*
X147620000Y-114120000D03*
D17*
X145080000Y-114955000D03*
D15*
X145080000Y-114120000D03*
D17*
X142540000Y-114955000D03*
D15*
X142540000Y-114120000D03*
D17*
X140000000Y-114955000D03*
D15*
X140000000Y-114120000D03*
D17*
X137460000Y-114955000D03*
D15*
X137460000Y-114120000D03*
D17*
X134920000Y-114955000D03*
D15*
X134920000Y-114120000D03*
D17*
X132380000Y-114955000D03*
D15*
X132380000Y-114120000D03*
%TD*%
%TO.C,J5*%
X76380000Y-72880000D03*
D16*
X76380000Y-72045000D03*
D15*
X78920000Y-72880000D03*
D16*
X78920000Y-72045000D03*
D15*
X81460000Y-72880000D03*
D16*
X81460000Y-72045000D03*
D15*
X84000000Y-72880000D03*
D16*
X84000000Y-72045000D03*
D15*
X86540000Y-72880000D03*
D16*
X86540000Y-72045000D03*
D15*
X89080000Y-72880000D03*
D16*
X89080000Y-72045000D03*
D15*
X91620000Y-72880000D03*
D16*
X91620000Y-72045000D03*
D17*
X91620000Y-88955000D03*
D15*
X91620000Y-88120000D03*
D17*
X89080000Y-88955000D03*
D15*
X89080000Y-88120000D03*
D17*
X86540000Y-88955000D03*
D15*
X86540000Y-88120000D03*
D17*
X84000000Y-88955000D03*
D15*
X84000000Y-88120000D03*
D17*
X81460000Y-88955000D03*
D15*
X81460000Y-88120000D03*
D17*
X78920000Y-88955000D03*
D15*
X78920000Y-88120000D03*
D17*
X76380000Y-88955000D03*
D15*
X76380000Y-88120000D03*
%TD*%
%TO.C,J7*%
X132380000Y-72880000D03*
D16*
X132380000Y-72045000D03*
D15*
X134920000Y-72880000D03*
D16*
X134920000Y-72045000D03*
D15*
X137460000Y-72880000D03*
D16*
X137460000Y-72045000D03*
D15*
X140000000Y-72880000D03*
D16*
X140000000Y-72045000D03*
D15*
X142540000Y-72880000D03*
D16*
X142540000Y-72045000D03*
D15*
X145080000Y-72880000D03*
D16*
X145080000Y-72045000D03*
D15*
X147620000Y-72880000D03*
D16*
X147620000Y-72045000D03*
D17*
X147620000Y-88955000D03*
D15*
X147620000Y-88120000D03*
D17*
X145080000Y-88955000D03*
D15*
X145080000Y-88120000D03*
D17*
X142540000Y-88955000D03*
D15*
X142540000Y-88120000D03*
D17*
X140000000Y-88955000D03*
D15*
X140000000Y-88120000D03*
D17*
X137460000Y-88955000D03*
D15*
X137460000Y-88120000D03*
D17*
X134920000Y-88955000D03*
D15*
X134920000Y-88120000D03*
D17*
X132380000Y-88955000D03*
D15*
X132380000Y-88120000D03*
%TD*%
D18*
%TO.C,MH2*%
X184000000Y-34000000D03*
%TD*%
M02*
