%TF.GenerationSoftware,KiCad,Pcbnew,10.0.3*%
%TF.CreationDate,2026-06-11T20:12:14-04:00*%
%TF.ProjectId,ESP32-C5-Board,45535033-322d-4433-952d-426f6172642e,rev?*%
%TF.SameCoordinates,Original*%
%TF.FileFunction,Soldermask,Top*%
%TF.FilePolarity,Negative*%
%FSLAX46Y46*%
G04 Gerber Fmt 4.6, Leading zero omitted, Abs format (unit mm)*
G04 Created by KiCad (PCBNEW 10.0.3) date 2026-06-11 20:12:14*
%MOMM*%
%LPD*%
G01*
G04 APERTURE LIST*
G04 Aperture macros list*
%AMRoundRect*
0 Rectangle with rounded corners*
0 $1 Rounding radius*
0 $2 $3 $4 $5 $6 $7 $8 $9 X,Y pos of 4 corners*
0 Add a 4 corners polygon primitive as box body*
4,1,4,$2,$3,$4,$5,$6,$7,$8,$9,$2,$3,0*
0 Add four circle primitives for the rounded corners*
1,1,$1+$1,$2,$3*
1,1,$1+$1,$4,$5*
1,1,$1+$1,$6,$7*
1,1,$1+$1,$8,$9*
0 Add four rect primitives between the rounded corners*
20,1,$1+$1,$2,$3,$4,$5,0*
20,1,$1+$1,$4,$5,$6,$7,0*
20,1,$1+$1,$6,$7,$8,$9,0*
20,1,$1+$1,$8,$9,$2,$3,0*%
G04 Aperture macros list end*
%ADD10RoundRect,0.250000X-0.475000X0.250000X-0.475000X-0.250000X0.475000X-0.250000X0.475000X0.250000X0*%
%ADD11RoundRect,0.140000X-0.170000X0.140000X-0.170000X-0.140000X0.170000X-0.140000X0.170000X0.140000X0*%
%ADD12R,2.100000X3.300000*%
%ADD13R,1.700000X0.550000*%
%ADD14RoundRect,0.137500X-0.712500X-0.137500X0.712500X-0.137500X0.712500X0.137500X-0.712500X0.137500X0*%
%ADD15C,0.650000*%
%ADD16RoundRect,0.150000X-0.150000X-0.425000X0.150000X-0.425000X0.150000X0.425000X-0.150000X0.425000X0*%
%ADD17RoundRect,0.075000X-0.075000X-0.500000X0.075000X-0.500000X0.075000X0.500000X-0.075000X0.500000X0*%
%ADD18O,1.000000X2.100000*%
%ADD19O,1.000000X1.800000*%
%ADD20R,1.700000X1.700000*%
%ADD21C,1.700000*%
%ADD22C,1.524000*%
%ADD23C,6.000000*%
G04 APERTURE END LIST*
D10*
%TO.C,C1*%
X115500000Y-129100000D03*
X115500000Y-131000000D03*
%TD*%
D11*
%TO.C,C2*%
X111000000Y-129040000D03*
X111000000Y-130000000D03*
%TD*%
D12*
%TO.C,U1*%
X121750000Y-131000000D03*
D13*
X119000000Y-129000000D03*
D14*
X119000000Y-130000000D03*
X119000000Y-131000000D03*
X119000000Y-132000000D03*
X119000000Y-133000000D03*
X124500000Y-133000000D03*
X124500000Y-132000000D03*
X124500000Y-131000000D03*
X124500000Y-130000000D03*
X124500000Y-129000000D03*
%TD*%
D15*
%TO.C,J13*%
X118610000Y-141395000D03*
X124390000Y-141395000D03*
D16*
X118300000Y-140320000D03*
X119100000Y-140320000D03*
D17*
X120250000Y-140320000D03*
X121250000Y-140320000D03*
X121750000Y-140320000D03*
X122750000Y-140320000D03*
D16*
X123900000Y-140320000D03*
X124700000Y-140320000D03*
X124700000Y-140320000D03*
X123900000Y-140320000D03*
D17*
X123250000Y-140320000D03*
X122250000Y-140320000D03*
X120750000Y-140320000D03*
X119750000Y-140320000D03*
D16*
X119100000Y-140320000D03*
X118300000Y-140320000D03*
D18*
X117180000Y-140895000D03*
D19*
X117180000Y-145075000D03*
D18*
X125820000Y-140895000D03*
D19*
X125820000Y-145075000D03*
%TD*%
D20*
%TO.C,J14*%
X83000000Y-132460000D03*
D21*
X83000000Y-135000000D03*
%TD*%
D22*
%TO.C,J1*%
X76380000Y-46880000D03*
X78920000Y-46880000D03*
X81460000Y-46880000D03*
X84000000Y-46880000D03*
X86540000Y-46880000D03*
X89080000Y-46880000D03*
X91620000Y-46880000D03*
X91620000Y-62120000D03*
X89080000Y-62120000D03*
X86540000Y-62120000D03*
X84000000Y-62120000D03*
X81460000Y-62120000D03*
X78920000Y-62120000D03*
X76380000Y-62120000D03*
%TD*%
%TO.C,J12*%
X160380000Y-98880000D03*
X162920000Y-98880000D03*
X165460000Y-98880000D03*
X168000000Y-98880000D03*
X170540000Y-98880000D03*
X173080000Y-98880000D03*
X175620000Y-98880000D03*
X175620000Y-114120000D03*
X173080000Y-114120000D03*
X170540000Y-114120000D03*
X168000000Y-114120000D03*
X165460000Y-114120000D03*
X162920000Y-114120000D03*
X160380000Y-114120000D03*
%TD*%
D23*
%TO.C,MH1*%
X58500000Y-34000000D03*
%TD*%
D22*
%TO.C,J4*%
X160380000Y-46880000D03*
X162920000Y-46880000D03*
X165460000Y-46880000D03*
X168000000Y-46880000D03*
X170540000Y-46880000D03*
X173080000Y-46880000D03*
X175620000Y-46880000D03*
X175620000Y-62120000D03*
X173080000Y-62120000D03*
X170540000Y-62120000D03*
X168000000Y-62120000D03*
X165460000Y-62120000D03*
X162920000Y-62120000D03*
X160380000Y-62120000D03*
%TD*%
%TO.C,J8*%
X160380000Y-72880000D03*
X162920000Y-72880000D03*
X165460000Y-72880000D03*
X168000000Y-72880000D03*
X170540000Y-72880000D03*
X173080000Y-72880000D03*
X175620000Y-72880000D03*
X175620000Y-88120000D03*
X173080000Y-88120000D03*
X170540000Y-88120000D03*
X168000000Y-88120000D03*
X165460000Y-88120000D03*
X162920000Y-88120000D03*
X160380000Y-88120000D03*
%TD*%
D23*
%TO.C,MH3*%
X59000000Y-144500000D03*
%TD*%
D22*
%TO.C,J2*%
X104380000Y-46880000D03*
X106920000Y-46880000D03*
X109460000Y-46880000D03*
X112000000Y-46880000D03*
X114540000Y-46880000D03*
X117080000Y-46880000D03*
X119620000Y-46880000D03*
X119620000Y-62120000D03*
X117080000Y-62120000D03*
X114540000Y-62120000D03*
X112000000Y-62120000D03*
X109460000Y-62120000D03*
X106920000Y-62120000D03*
X104380000Y-62120000D03*
%TD*%
D23*
%TO.C,MH4*%
X184500000Y-145000000D03*
%TD*%
D22*
%TO.C,J10*%
X104380000Y-98880000D03*
X106920000Y-98880000D03*
X109460000Y-98880000D03*
X112000000Y-98880000D03*
X114540000Y-98880000D03*
X117080000Y-98880000D03*
X119620000Y-98880000D03*
X119620000Y-114120000D03*
X117080000Y-114120000D03*
X114540000Y-114120000D03*
X112000000Y-114120000D03*
X109460000Y-114120000D03*
X106920000Y-114120000D03*
X104380000Y-114120000D03*
%TD*%
%TO.C,J6*%
X104380000Y-72880000D03*
X106920000Y-72880000D03*
X109460000Y-72880000D03*
X112000000Y-72880000D03*
X114540000Y-72880000D03*
X117080000Y-72880000D03*
X119620000Y-72880000D03*
X119620000Y-88120000D03*
X117080000Y-88120000D03*
X114540000Y-88120000D03*
X112000000Y-88120000D03*
X109460000Y-88120000D03*
X106920000Y-88120000D03*
X104380000Y-88120000D03*
%TD*%
%TO.C,J9*%
X76380000Y-98880000D03*
X78920000Y-98880000D03*
X81460000Y-98880000D03*
X84000000Y-98880000D03*
X86540000Y-98880000D03*
X89080000Y-98880000D03*
X91620000Y-98880000D03*
X91620000Y-114120000D03*
X89080000Y-114120000D03*
X86540000Y-114120000D03*
X84000000Y-114120000D03*
X81460000Y-114120000D03*
X78920000Y-114120000D03*
X76380000Y-114120000D03*
%TD*%
%TO.C,J3*%
X132380000Y-46880000D03*
X134920000Y-46880000D03*
X137460000Y-46880000D03*
X140000000Y-46880000D03*
X142540000Y-46880000D03*
X145080000Y-46880000D03*
X147620000Y-46880000D03*
X147620000Y-62120000D03*
X145080000Y-62120000D03*
X142540000Y-62120000D03*
X140000000Y-62120000D03*
X137460000Y-62120000D03*
X134920000Y-62120000D03*
X132380000Y-62120000D03*
%TD*%
%TO.C,J11*%
X132380000Y-98880000D03*
X134920000Y-98880000D03*
X137460000Y-98880000D03*
X140000000Y-98880000D03*
X142540000Y-98880000D03*
X145080000Y-98880000D03*
X147620000Y-98880000D03*
X147620000Y-114120000D03*
X145080000Y-114120000D03*
X142540000Y-114120000D03*
X140000000Y-114120000D03*
X137460000Y-114120000D03*
X134920000Y-114120000D03*
X132380000Y-114120000D03*
%TD*%
%TO.C,J5*%
X76380000Y-72880000D03*
X78920000Y-72880000D03*
X81460000Y-72880000D03*
X84000000Y-72880000D03*
X86540000Y-72880000D03*
X89080000Y-72880000D03*
X91620000Y-72880000D03*
X91620000Y-88120000D03*
X89080000Y-88120000D03*
X86540000Y-88120000D03*
X84000000Y-88120000D03*
X81460000Y-88120000D03*
X78920000Y-88120000D03*
X76380000Y-88120000D03*
%TD*%
%TO.C,J7*%
X132380000Y-72880000D03*
X134920000Y-72880000D03*
X137460000Y-72880000D03*
X140000000Y-72880000D03*
X142540000Y-72880000D03*
X145080000Y-72880000D03*
X147620000Y-72880000D03*
X147620000Y-88120000D03*
X145080000Y-88120000D03*
X142540000Y-88120000D03*
X140000000Y-88120000D03*
X137460000Y-88120000D03*
X134920000Y-88120000D03*
X132380000Y-88120000D03*
%TD*%
D23*
%TO.C,MH2*%
X184000000Y-34000000D03*
%TD*%
M02*
