%TF.GenerationSoftware,KiCad,Pcbnew,10.0.3*%
%TF.CreationDate,2026-06-11T20:12:14-04:00*%
%TF.ProjectId,ESP32-C5-Board,45535033-322d-4433-952d-426f6172642e,rev?*%
%TF.SameCoordinates,Original*%
%TF.FileFunction,Legend,Top*%
%TF.FilePolarity,Positive*%
%FSLAX46Y46*%
G04 Gerber Fmt 4.6, Leading zero omitted, Abs format (unit mm)*
G04 Created by KiCad (PCBNEW 10.0.3) date 2026-06-11 20:12:14*
%MOMM*%
%LPD*%
G01*
G04 APERTURE LIST*
%ADD10C,0.400000*%
%ADD11C,0.150000*%
%ADD12C,0.120000*%
G04 APERTURE END LIST*
D10*
X137834585Y-137969200D02*
X138263157Y-138112057D01*
X138263157Y-138112057D02*
X138977442Y-138112057D01*
X138977442Y-138112057D02*
X139263157Y-137969200D01*
X139263157Y-137969200D02*
X139406014Y-137826342D01*
X139406014Y-137826342D02*
X139548871Y-137540628D01*
X139548871Y-137540628D02*
X139548871Y-137254914D01*
X139548871Y-137254914D02*
X139406014Y-136969200D01*
X139406014Y-136969200D02*
X139263157Y-136826342D01*
X139263157Y-136826342D02*
X138977442Y-136683485D01*
X138977442Y-136683485D02*
X138406014Y-136540628D01*
X138406014Y-136540628D02*
X138120299Y-136397771D01*
X138120299Y-136397771D02*
X137977442Y-136254914D01*
X137977442Y-136254914D02*
X137834585Y-135969200D01*
X137834585Y-135969200D02*
X137834585Y-135683485D01*
X137834585Y-135683485D02*
X137977442Y-135397771D01*
X137977442Y-135397771D02*
X138120299Y-135254914D01*
X138120299Y-135254914D02*
X138406014Y-135112057D01*
X138406014Y-135112057D02*
X139120299Y-135112057D01*
X139120299Y-135112057D02*
X139548871Y-135254914D01*
X140406014Y-136112057D02*
X141548871Y-136112057D01*
X140834585Y-135112057D02*
X140834585Y-137683485D01*
X140834585Y-137683485D02*
X140977442Y-137969200D01*
X140977442Y-137969200D02*
X141263157Y-138112057D01*
X141263157Y-138112057D02*
X141548871Y-138112057D01*
X143834586Y-138112057D02*
X143834586Y-136540628D01*
X143834586Y-136540628D02*
X143691728Y-136254914D01*
X143691728Y-136254914D02*
X143406014Y-136112057D01*
X143406014Y-136112057D02*
X142834586Y-136112057D01*
X142834586Y-136112057D02*
X142548871Y-136254914D01*
X143834586Y-137969200D02*
X143548871Y-138112057D01*
X143548871Y-138112057D02*
X142834586Y-138112057D01*
X142834586Y-138112057D02*
X142548871Y-137969200D01*
X142548871Y-137969200D02*
X142406014Y-137683485D01*
X142406014Y-137683485D02*
X142406014Y-137397771D01*
X142406014Y-137397771D02*
X142548871Y-137112057D01*
X142548871Y-137112057D02*
X142834586Y-136969200D01*
X142834586Y-136969200D02*
X143548871Y-136969200D01*
X143548871Y-136969200D02*
X143834586Y-136826342D01*
X145263157Y-138112057D02*
X145263157Y-136112057D01*
X145263157Y-136397771D02*
X145406014Y-136254914D01*
X145406014Y-136254914D02*
X145691729Y-136112057D01*
X145691729Y-136112057D02*
X146120300Y-136112057D01*
X146120300Y-136112057D02*
X146406014Y-136254914D01*
X146406014Y-136254914D02*
X146548872Y-136540628D01*
X146548872Y-136540628D02*
X146548872Y-138112057D01*
X146548872Y-136540628D02*
X146691729Y-136254914D01*
X146691729Y-136254914D02*
X146977443Y-136112057D01*
X146977443Y-136112057D02*
X147406014Y-136112057D01*
X147406014Y-136112057D02*
X147691729Y-136254914D01*
X147691729Y-136254914D02*
X147834586Y-136540628D01*
X147834586Y-136540628D02*
X147834586Y-138112057D01*
X150406014Y-137969200D02*
X150120300Y-138112057D01*
X150120300Y-138112057D02*
X149548872Y-138112057D01*
X149548872Y-138112057D02*
X149263157Y-137969200D01*
X149263157Y-137969200D02*
X149120300Y-137683485D01*
X149120300Y-137683485D02*
X149120300Y-136540628D01*
X149120300Y-136540628D02*
X149263157Y-136254914D01*
X149263157Y-136254914D02*
X149548872Y-136112057D01*
X149548872Y-136112057D02*
X150120300Y-136112057D01*
X150120300Y-136112057D02*
X150406014Y-136254914D01*
X150406014Y-136254914D02*
X150548872Y-136540628D01*
X150548872Y-136540628D02*
X150548872Y-136826342D01*
X150548872Y-136826342D02*
X149120300Y-137112057D01*
X151834586Y-136112057D02*
X151834586Y-138112057D01*
X151834586Y-136397771D02*
X151977443Y-136254914D01*
X151977443Y-136254914D02*
X152263158Y-136112057D01*
X152263158Y-136112057D02*
X152691729Y-136112057D01*
X152691729Y-136112057D02*
X152977443Y-136254914D01*
X152977443Y-136254914D02*
X153120301Y-136540628D01*
X153120301Y-136540628D02*
X153120301Y-138112057D01*
X154406015Y-137969200D02*
X154834587Y-138112057D01*
X154834587Y-138112057D02*
X155548872Y-138112057D01*
X155548872Y-138112057D02*
X155834587Y-137969200D01*
X155834587Y-137969200D02*
X155977444Y-137826342D01*
X155977444Y-137826342D02*
X156120301Y-137540628D01*
X156120301Y-137540628D02*
X156120301Y-137254914D01*
X156120301Y-137254914D02*
X155977444Y-136969200D01*
X155977444Y-136969200D02*
X155834587Y-136826342D01*
X155834587Y-136826342D02*
X155548872Y-136683485D01*
X155548872Y-136683485D02*
X154977444Y-136540628D01*
X154977444Y-136540628D02*
X154691729Y-136397771D01*
X154691729Y-136397771D02*
X154548872Y-136254914D01*
X154548872Y-136254914D02*
X154406015Y-135969200D01*
X154406015Y-135969200D02*
X154406015Y-135683485D01*
X154406015Y-135683485D02*
X154548872Y-135397771D01*
X154548872Y-135397771D02*
X154691729Y-135254914D01*
X154691729Y-135254914D02*
X154977444Y-135112057D01*
X154977444Y-135112057D02*
X155691729Y-135112057D01*
X155691729Y-135112057D02*
X156120301Y-135254914D01*
X158691730Y-137969200D02*
X158406015Y-138112057D01*
X158406015Y-138112057D02*
X157834587Y-138112057D01*
X157834587Y-138112057D02*
X157548872Y-137969200D01*
X157548872Y-137969200D02*
X157406015Y-137826342D01*
X157406015Y-137826342D02*
X157263158Y-137540628D01*
X157263158Y-137540628D02*
X157263158Y-136683485D01*
X157263158Y-136683485D02*
X157406015Y-136397771D01*
X157406015Y-136397771D02*
X157548872Y-136254914D01*
X157548872Y-136254914D02*
X157834587Y-136112057D01*
X157834587Y-136112057D02*
X158406015Y-136112057D01*
X158406015Y-136112057D02*
X158691730Y-136254914D01*
X161263159Y-138112057D02*
X161263159Y-136540628D01*
X161263159Y-136540628D02*
X161120301Y-136254914D01*
X161120301Y-136254914D02*
X160834587Y-136112057D01*
X160834587Y-136112057D02*
X160263159Y-136112057D01*
X160263159Y-136112057D02*
X159977444Y-136254914D01*
X161263159Y-137969200D02*
X160977444Y-138112057D01*
X160977444Y-138112057D02*
X160263159Y-138112057D01*
X160263159Y-138112057D02*
X159977444Y-137969200D01*
X159977444Y-137969200D02*
X159834587Y-137683485D01*
X159834587Y-137683485D02*
X159834587Y-137397771D01*
X159834587Y-137397771D02*
X159977444Y-137112057D01*
X159977444Y-137112057D02*
X160263159Y-136969200D01*
X160263159Y-136969200D02*
X160977444Y-136969200D01*
X160977444Y-136969200D02*
X161263159Y-136826342D01*
X162691730Y-136112057D02*
X162691730Y-138112057D01*
X162691730Y-136397771D02*
X162834587Y-136254914D01*
X162834587Y-136254914D02*
X163120302Y-136112057D01*
X163120302Y-136112057D02*
X163548873Y-136112057D01*
X163548873Y-136112057D02*
X163834587Y-136254914D01*
X163834587Y-136254914D02*
X163977445Y-136540628D01*
X163977445Y-136540628D02*
X163977445Y-138112057D01*
X167406016Y-136112057D02*
X168120302Y-138112057D01*
X168120302Y-138112057D02*
X168834587Y-136112057D01*
X171548873Y-138112057D02*
X169834587Y-138112057D01*
X170691730Y-138112057D02*
X170691730Y-135112057D01*
X170691730Y-135112057D02*
X170406016Y-135540628D01*
X170406016Y-135540628D02*
X170120301Y-135826342D01*
X170120301Y-135826342D02*
X169834587Y-135969200D01*
X172834587Y-137826342D02*
X172977444Y-137969200D01*
X172977444Y-137969200D02*
X172834587Y-138112057D01*
X172834587Y-138112057D02*
X172691730Y-137969200D01*
X172691730Y-137969200D02*
X172834587Y-137826342D01*
X172834587Y-137826342D02*
X172834587Y-138112057D01*
X174834587Y-135112057D02*
X175120301Y-135112057D01*
X175120301Y-135112057D02*
X175406015Y-135254914D01*
X175406015Y-135254914D02*
X175548873Y-135397771D01*
X175548873Y-135397771D02*
X175691730Y-135683485D01*
X175691730Y-135683485D02*
X175834587Y-136254914D01*
X175834587Y-136254914D02*
X175834587Y-136969200D01*
X175834587Y-136969200D02*
X175691730Y-137540628D01*
X175691730Y-137540628D02*
X175548873Y-137826342D01*
X175548873Y-137826342D02*
X175406015Y-137969200D01*
X175406015Y-137969200D02*
X175120301Y-138112057D01*
X175120301Y-138112057D02*
X174834587Y-138112057D01*
X174834587Y-138112057D02*
X174548873Y-137969200D01*
X174548873Y-137969200D02*
X174406015Y-137826342D01*
X174406015Y-137826342D02*
X174263158Y-137540628D01*
X174263158Y-137540628D02*
X174120301Y-136969200D01*
X174120301Y-136969200D02*
X174120301Y-136254914D01*
X174120301Y-136254914D02*
X174263158Y-135683485D01*
X174263158Y-135683485D02*
X174406015Y-135397771D01*
X174406015Y-135397771D02*
X174548873Y-135254914D01*
X174548873Y-135254914D02*
X174834587Y-135112057D01*
D11*
X117539580Y-130216666D02*
X117587200Y-130264285D01*
X117587200Y-130264285D02*
X117634819Y-130407142D01*
X117634819Y-130407142D02*
X117634819Y-130502380D01*
X117634819Y-130502380D02*
X117587200Y-130645237D01*
X117587200Y-130645237D02*
X117491961Y-130740475D01*
X117491961Y-130740475D02*
X117396723Y-130788094D01*
X117396723Y-130788094D02*
X117206247Y-130835713D01*
X117206247Y-130835713D02*
X117063390Y-130835713D01*
X117063390Y-130835713D02*
X116872914Y-130788094D01*
X116872914Y-130788094D02*
X116777676Y-130740475D01*
X116777676Y-130740475D02*
X116682438Y-130645237D01*
X116682438Y-130645237D02*
X116634819Y-130502380D01*
X116634819Y-130502380D02*
X116634819Y-130407142D01*
X116634819Y-130407142D02*
X116682438Y-130264285D01*
X116682438Y-130264285D02*
X116730057Y-130216666D01*
X117634819Y-129264285D02*
X117634819Y-129835713D01*
X117634819Y-129549999D02*
X116634819Y-129549999D01*
X116634819Y-129549999D02*
X116777676Y-129645237D01*
X116777676Y-129645237D02*
X116872914Y-129740475D01*
X116872914Y-129740475D02*
X116920533Y-129835713D01*
X112519580Y-129686666D02*
X112567200Y-129734285D01*
X112567200Y-129734285D02*
X112614819Y-129877142D01*
X112614819Y-129877142D02*
X112614819Y-129972380D01*
X112614819Y-129972380D02*
X112567200Y-130115237D01*
X112567200Y-130115237D02*
X112471961Y-130210475D01*
X112471961Y-130210475D02*
X112376723Y-130258094D01*
X112376723Y-130258094D02*
X112186247Y-130305713D01*
X112186247Y-130305713D02*
X112043390Y-130305713D01*
X112043390Y-130305713D02*
X111852914Y-130258094D01*
X111852914Y-130258094D02*
X111757676Y-130210475D01*
X111757676Y-130210475D02*
X111662438Y-130115237D01*
X111662438Y-130115237D02*
X111614819Y-129972380D01*
X111614819Y-129972380D02*
X111614819Y-129877142D01*
X111614819Y-129877142D02*
X111662438Y-129734285D01*
X111662438Y-129734285D02*
X111710057Y-129686666D01*
X111710057Y-129305713D02*
X111662438Y-129258094D01*
X111662438Y-129258094D02*
X111614819Y-129162856D01*
X111614819Y-129162856D02*
X111614819Y-128924761D01*
X111614819Y-128924761D02*
X111662438Y-128829523D01*
X111662438Y-128829523D02*
X111710057Y-128781904D01*
X111710057Y-128781904D02*
X111805295Y-128734285D01*
X111805295Y-128734285D02*
X111900533Y-128734285D01*
X111900533Y-128734285D02*
X112043390Y-128781904D01*
X112043390Y-128781904D02*
X112614819Y-129353332D01*
X112614819Y-129353332D02*
X112614819Y-128734285D01*
X120988095Y-127154819D02*
X120988095Y-127964342D01*
X120988095Y-127964342D02*
X121035714Y-128059580D01*
X121035714Y-128059580D02*
X121083333Y-128107200D01*
X121083333Y-128107200D02*
X121178571Y-128154819D01*
X121178571Y-128154819D02*
X121369047Y-128154819D01*
X121369047Y-128154819D02*
X121464285Y-128107200D01*
X121464285Y-128107200D02*
X121511904Y-128059580D01*
X121511904Y-128059580D02*
X121559523Y-127964342D01*
X121559523Y-127964342D02*
X121559523Y-127154819D01*
X122559523Y-128154819D02*
X121988095Y-128154819D01*
X122273809Y-128154819D02*
X122273809Y-127154819D01*
X122273809Y-127154819D02*
X122178571Y-127297676D01*
X122178571Y-127297676D02*
X122083333Y-127392914D01*
X122083333Y-127392914D02*
X121988095Y-127440533D01*
X120690476Y-137954819D02*
X120690476Y-138669104D01*
X120690476Y-138669104D02*
X120642857Y-138811961D01*
X120642857Y-138811961D02*
X120547619Y-138907200D01*
X120547619Y-138907200D02*
X120404762Y-138954819D01*
X120404762Y-138954819D02*
X120309524Y-138954819D01*
X121690476Y-138954819D02*
X121119048Y-138954819D01*
X121404762Y-138954819D02*
X121404762Y-137954819D01*
X121404762Y-137954819D02*
X121309524Y-138097676D01*
X121309524Y-138097676D02*
X121214286Y-138192914D01*
X121214286Y-138192914D02*
X121119048Y-138240533D01*
X122023810Y-137954819D02*
X122642857Y-137954819D01*
X122642857Y-137954819D02*
X122309524Y-138335771D01*
X122309524Y-138335771D02*
X122452381Y-138335771D01*
X122452381Y-138335771D02*
X122547619Y-138383390D01*
X122547619Y-138383390D02*
X122595238Y-138431009D01*
X122595238Y-138431009D02*
X122642857Y-138526247D01*
X122642857Y-138526247D02*
X122642857Y-138764342D01*
X122642857Y-138764342D02*
X122595238Y-138859580D01*
X122595238Y-138859580D02*
X122547619Y-138907200D01*
X122547619Y-138907200D02*
X122452381Y-138954819D01*
X122452381Y-138954819D02*
X122166667Y-138954819D01*
X122166667Y-138954819D02*
X122071429Y-138907200D01*
X122071429Y-138907200D02*
X122023810Y-138859580D01*
%TO.C,C1*%
D12*
X114765000Y-129788748D02*
X114765000Y-130311252D01*
X116235000Y-129788748D02*
X116235000Y-130311252D01*
%TO.C,C2*%
X110640000Y-129412164D02*
X110640000Y-129627836D01*
X111360000Y-129412164D02*
X111360000Y-129627836D01*
%TO.C,U1*%
X119800000Y-128550000D02*
X123700000Y-128550000D01*
X123700000Y-133450000D01*
X119800000Y-133450000D01*
X119800000Y-128550000D01*
%TO.C,J13*%
X116830000Y-143900000D02*
X116830000Y-142200000D01*
X126170000Y-143900000D02*
X126170000Y-142200000D01*
%TD*%
M02*
