%TF.GenerationSoftware,KiCad,Pcbnew,10.0.3*%
%TF.CreationDate,2026-06-11T20:12:14-04:00*%
%TF.ProjectId,ESP32-C5-Board,45535033-322d-4433-952d-426f6172642e,rev?*%
%TF.SameCoordinates,Original*%
%TF.FileFunction,Legend,Bot*%
%TF.FilePolarity,Positive*%
%FSLAX46Y46*%
G04 Gerber Fmt 4.6, Leading zero omitted, Abs format (unit mm)*
G04 Created by KiCad (PCBNEW 10.0.3) date 2026-06-11 20:12:14*
%MOMM*%
%LPD*%
G01*
G04 APERTURE LIST*
%ADD10C,0.150000*%
%ADD11C,0.101600*%
%ADD12C,0.120000*%
%ADD13C,0.127000*%
%ADD14C,0.100000*%
%ADD15C,0.504000*%
G04 APERTURE END LIST*
D10*
X83809523Y-129534819D02*
X83809523Y-130249104D01*
X83809523Y-130249104D02*
X83857142Y-130391961D01*
X83857142Y-130391961D02*
X83952380Y-130487200D01*
X83952380Y-130487200D02*
X84095237Y-130534819D01*
X84095237Y-130534819D02*
X84190475Y-130534819D01*
X82809523Y-130534819D02*
X83380951Y-130534819D01*
X83095237Y-130534819D02*
X83095237Y-129534819D01*
X83095237Y-129534819D02*
X83190475Y-129677676D01*
X83190475Y-129677676D02*
X83285713Y-129772914D01*
X83285713Y-129772914D02*
X83380951Y-129820533D01*
X81952380Y-129868152D02*
X81952380Y-130534819D01*
X82190475Y-129487200D02*
X82428570Y-130201485D01*
X82428570Y-130201485D02*
X81809523Y-130201485D01*
D11*
X84608333Y-43682335D02*
X84608333Y-44396620D01*
X84608333Y-44396620D02*
X84655952Y-44539477D01*
X84655952Y-44539477D02*
X84751190Y-44634716D01*
X84751190Y-44634716D02*
X84894047Y-44682335D01*
X84894047Y-44682335D02*
X84989285Y-44682335D01*
X83608333Y-44682335D02*
X84179761Y-44682335D01*
X83894047Y-44682335D02*
X83894047Y-43682335D01*
X83894047Y-43682335D02*
X83989285Y-43825192D01*
X83989285Y-43825192D02*
X84084523Y-43920430D01*
X84084523Y-43920430D02*
X84179761Y-43968049D01*
X169084523Y-95682335D02*
X169084523Y-96396620D01*
X169084523Y-96396620D02*
X169132142Y-96539477D01*
X169132142Y-96539477D02*
X169227380Y-96634716D01*
X169227380Y-96634716D02*
X169370237Y-96682335D01*
X169370237Y-96682335D02*
X169465475Y-96682335D01*
X168084523Y-96682335D02*
X168655951Y-96682335D01*
X168370237Y-96682335D02*
X168370237Y-95682335D01*
X168370237Y-95682335D02*
X168465475Y-95825192D01*
X168465475Y-95825192D02*
X168560713Y-95920430D01*
X168560713Y-95920430D02*
X168655951Y-95968049D01*
X167703570Y-95777573D02*
X167655951Y-95729954D01*
X167655951Y-95729954D02*
X167560713Y-95682335D01*
X167560713Y-95682335D02*
X167322618Y-95682335D01*
X167322618Y-95682335D02*
X167227380Y-95729954D01*
X167227380Y-95729954D02*
X167179761Y-95777573D01*
X167179761Y-95777573D02*
X167132142Y-95872811D01*
X167132142Y-95872811D02*
X167132142Y-95968049D01*
X167132142Y-95968049D02*
X167179761Y-96110906D01*
X167179761Y-96110906D02*
X167751189Y-96682335D01*
X167751189Y-96682335D02*
X167132142Y-96682335D01*
X168399999Y-43349858D02*
X168399999Y-44207001D01*
X168399999Y-44207001D02*
X168457142Y-44378430D01*
X168457142Y-44378430D02*
X168571428Y-44492716D01*
X168571428Y-44492716D02*
X168742856Y-44549858D01*
X168742856Y-44549858D02*
X168857142Y-44549858D01*
X167314285Y-43749858D02*
X167314285Y-44549858D01*
X167599999Y-43292716D02*
X167885713Y-44149858D01*
X167885713Y-44149858D02*
X167142856Y-44149858D01*
X168608333Y-69682335D02*
X168608333Y-70396620D01*
X168608333Y-70396620D02*
X168655952Y-70539477D01*
X168655952Y-70539477D02*
X168751190Y-70634716D01*
X168751190Y-70634716D02*
X168894047Y-70682335D01*
X168894047Y-70682335D02*
X168989285Y-70682335D01*
X167989285Y-70110906D02*
X168084523Y-70063287D01*
X168084523Y-70063287D02*
X168132142Y-70015668D01*
X168132142Y-70015668D02*
X168179761Y-69920430D01*
X168179761Y-69920430D02*
X168179761Y-69872811D01*
X168179761Y-69872811D02*
X168132142Y-69777573D01*
X168132142Y-69777573D02*
X168084523Y-69729954D01*
X168084523Y-69729954D02*
X167989285Y-69682335D01*
X167989285Y-69682335D02*
X167798809Y-69682335D01*
X167798809Y-69682335D02*
X167703571Y-69729954D01*
X167703571Y-69729954D02*
X167655952Y-69777573D01*
X167655952Y-69777573D02*
X167608333Y-69872811D01*
X167608333Y-69872811D02*
X167608333Y-69920430D01*
X167608333Y-69920430D02*
X167655952Y-70015668D01*
X167655952Y-70015668D02*
X167703571Y-70063287D01*
X167703571Y-70063287D02*
X167798809Y-70110906D01*
X167798809Y-70110906D02*
X167989285Y-70110906D01*
X167989285Y-70110906D02*
X168084523Y-70158525D01*
X168084523Y-70158525D02*
X168132142Y-70206144D01*
X168132142Y-70206144D02*
X168179761Y-70301382D01*
X168179761Y-70301382D02*
X168179761Y-70491858D01*
X168179761Y-70491858D02*
X168132142Y-70587096D01*
X168132142Y-70587096D02*
X168084523Y-70634716D01*
X168084523Y-70634716D02*
X167989285Y-70682335D01*
X167989285Y-70682335D02*
X167798809Y-70682335D01*
X167798809Y-70682335D02*
X167703571Y-70634716D01*
X167703571Y-70634716D02*
X167655952Y-70587096D01*
X167655952Y-70587096D02*
X167608333Y-70491858D01*
X167608333Y-70491858D02*
X167608333Y-70301382D01*
X167608333Y-70301382D02*
X167655952Y-70206144D01*
X167655952Y-70206144D02*
X167703571Y-70158525D01*
X167703571Y-70158525D02*
X167798809Y-70110906D01*
X112608333Y-43682335D02*
X112608333Y-44396620D01*
X112608333Y-44396620D02*
X112655952Y-44539477D01*
X112655952Y-44539477D02*
X112751190Y-44634716D01*
X112751190Y-44634716D02*
X112894047Y-44682335D01*
X112894047Y-44682335D02*
X112989285Y-44682335D01*
X112179761Y-43777573D02*
X112132142Y-43729954D01*
X112132142Y-43729954D02*
X112036904Y-43682335D01*
X112036904Y-43682335D02*
X111798809Y-43682335D01*
X111798809Y-43682335D02*
X111703571Y-43729954D01*
X111703571Y-43729954D02*
X111655952Y-43777573D01*
X111655952Y-43777573D02*
X111608333Y-43872811D01*
X111608333Y-43872811D02*
X111608333Y-43968049D01*
X111608333Y-43968049D02*
X111655952Y-44110906D01*
X111655952Y-44110906D02*
X112227380Y-44682335D01*
X112227380Y-44682335D02*
X111608333Y-44682335D01*
X113084523Y-95682335D02*
X113084523Y-96396620D01*
X113084523Y-96396620D02*
X113132142Y-96539477D01*
X113132142Y-96539477D02*
X113227380Y-96634716D01*
X113227380Y-96634716D02*
X113370237Y-96682335D01*
X113370237Y-96682335D02*
X113465475Y-96682335D01*
X112084523Y-96682335D02*
X112655951Y-96682335D01*
X112370237Y-96682335D02*
X112370237Y-95682335D01*
X112370237Y-95682335D02*
X112465475Y-95825192D01*
X112465475Y-95825192D02*
X112560713Y-95920430D01*
X112560713Y-95920430D02*
X112655951Y-95968049D01*
X111465475Y-95682335D02*
X111370237Y-95682335D01*
X111370237Y-95682335D02*
X111274999Y-95729954D01*
X111274999Y-95729954D02*
X111227380Y-95777573D01*
X111227380Y-95777573D02*
X111179761Y-95872811D01*
X111179761Y-95872811D02*
X111132142Y-96063287D01*
X111132142Y-96063287D02*
X111132142Y-96301382D01*
X111132142Y-96301382D02*
X111179761Y-96491858D01*
X111179761Y-96491858D02*
X111227380Y-96587096D01*
X111227380Y-96587096D02*
X111274999Y-96634716D01*
X111274999Y-96634716D02*
X111370237Y-96682335D01*
X111370237Y-96682335D02*
X111465475Y-96682335D01*
X111465475Y-96682335D02*
X111560713Y-96634716D01*
X111560713Y-96634716D02*
X111608332Y-96587096D01*
X111608332Y-96587096D02*
X111655951Y-96491858D01*
X111655951Y-96491858D02*
X111703570Y-96301382D01*
X111703570Y-96301382D02*
X111703570Y-96063287D01*
X111703570Y-96063287D02*
X111655951Y-95872811D01*
X111655951Y-95872811D02*
X111608332Y-95777573D01*
X111608332Y-95777573D02*
X111560713Y-95729954D01*
X111560713Y-95729954D02*
X111465475Y-95682335D01*
X112608333Y-69682335D02*
X112608333Y-70396620D01*
X112608333Y-70396620D02*
X112655952Y-70539477D01*
X112655952Y-70539477D02*
X112751190Y-70634716D01*
X112751190Y-70634716D02*
X112894047Y-70682335D01*
X112894047Y-70682335D02*
X112989285Y-70682335D01*
X111703571Y-69682335D02*
X111894047Y-69682335D01*
X111894047Y-69682335D02*
X111989285Y-69729954D01*
X111989285Y-69729954D02*
X112036904Y-69777573D01*
X112036904Y-69777573D02*
X112132142Y-69920430D01*
X112132142Y-69920430D02*
X112179761Y-70110906D01*
X112179761Y-70110906D02*
X112179761Y-70491858D01*
X112179761Y-70491858D02*
X112132142Y-70587096D01*
X112132142Y-70587096D02*
X112084523Y-70634716D01*
X112084523Y-70634716D02*
X111989285Y-70682335D01*
X111989285Y-70682335D02*
X111798809Y-70682335D01*
X111798809Y-70682335D02*
X111703571Y-70634716D01*
X111703571Y-70634716D02*
X111655952Y-70587096D01*
X111655952Y-70587096D02*
X111608333Y-70491858D01*
X111608333Y-70491858D02*
X111608333Y-70253763D01*
X111608333Y-70253763D02*
X111655952Y-70158525D01*
X111655952Y-70158525D02*
X111703571Y-70110906D01*
X111703571Y-70110906D02*
X111798809Y-70063287D01*
X111798809Y-70063287D02*
X111989285Y-70063287D01*
X111989285Y-70063287D02*
X112084523Y-70110906D01*
X112084523Y-70110906D02*
X112132142Y-70158525D01*
X112132142Y-70158525D02*
X112179761Y-70253763D01*
X84608333Y-95682335D02*
X84608333Y-96396620D01*
X84608333Y-96396620D02*
X84655952Y-96539477D01*
X84655952Y-96539477D02*
X84751190Y-96634716D01*
X84751190Y-96634716D02*
X84894047Y-96682335D01*
X84894047Y-96682335D02*
X84989285Y-96682335D01*
X84084523Y-96682335D02*
X83894047Y-96682335D01*
X83894047Y-96682335D02*
X83798809Y-96634716D01*
X83798809Y-96634716D02*
X83751190Y-96587096D01*
X83751190Y-96587096D02*
X83655952Y-96444239D01*
X83655952Y-96444239D02*
X83608333Y-96253763D01*
X83608333Y-96253763D02*
X83608333Y-95872811D01*
X83608333Y-95872811D02*
X83655952Y-95777573D01*
X83655952Y-95777573D02*
X83703571Y-95729954D01*
X83703571Y-95729954D02*
X83798809Y-95682335D01*
X83798809Y-95682335D02*
X83989285Y-95682335D01*
X83989285Y-95682335D02*
X84084523Y-95729954D01*
X84084523Y-95729954D02*
X84132142Y-95777573D01*
X84132142Y-95777573D02*
X84179761Y-95872811D01*
X84179761Y-95872811D02*
X84179761Y-96110906D01*
X84179761Y-96110906D02*
X84132142Y-96206144D01*
X84132142Y-96206144D02*
X84084523Y-96253763D01*
X84084523Y-96253763D02*
X83989285Y-96301382D01*
X83989285Y-96301382D02*
X83798809Y-96301382D01*
X83798809Y-96301382D02*
X83703571Y-96253763D01*
X83703571Y-96253763D02*
X83655952Y-96206144D01*
X83655952Y-96206144D02*
X83608333Y-96110906D01*
X140608333Y-43682335D02*
X140608333Y-44396620D01*
X140608333Y-44396620D02*
X140655952Y-44539477D01*
X140655952Y-44539477D02*
X140751190Y-44634716D01*
X140751190Y-44634716D02*
X140894047Y-44682335D01*
X140894047Y-44682335D02*
X140989285Y-44682335D01*
X140227380Y-43682335D02*
X139608333Y-43682335D01*
X139608333Y-43682335D02*
X139941666Y-44063287D01*
X139941666Y-44063287D02*
X139798809Y-44063287D01*
X139798809Y-44063287D02*
X139703571Y-44110906D01*
X139703571Y-44110906D02*
X139655952Y-44158525D01*
X139655952Y-44158525D02*
X139608333Y-44253763D01*
X139608333Y-44253763D02*
X139608333Y-44491858D01*
X139608333Y-44491858D02*
X139655952Y-44587096D01*
X139655952Y-44587096D02*
X139703571Y-44634716D01*
X139703571Y-44634716D02*
X139798809Y-44682335D01*
X139798809Y-44682335D02*
X140084523Y-44682335D01*
X140084523Y-44682335D02*
X140179761Y-44634716D01*
X140179761Y-44634716D02*
X140227380Y-44587096D01*
X141084523Y-95682335D02*
X141084523Y-96396620D01*
X141084523Y-96396620D02*
X141132142Y-96539477D01*
X141132142Y-96539477D02*
X141227380Y-96634716D01*
X141227380Y-96634716D02*
X141370237Y-96682335D01*
X141370237Y-96682335D02*
X141465475Y-96682335D01*
X140084523Y-96682335D02*
X140655951Y-96682335D01*
X140370237Y-96682335D02*
X140370237Y-95682335D01*
X140370237Y-95682335D02*
X140465475Y-95825192D01*
X140465475Y-95825192D02*
X140560713Y-95920430D01*
X140560713Y-95920430D02*
X140655951Y-95968049D01*
X139132142Y-96682335D02*
X139703570Y-96682335D01*
X139417856Y-96682335D02*
X139417856Y-95682335D01*
X139417856Y-95682335D02*
X139513094Y-95825192D01*
X139513094Y-95825192D02*
X139608332Y-95920430D01*
X139608332Y-95920430D02*
X139703570Y-95968049D01*
X84608333Y-69682335D02*
X84608333Y-70396620D01*
X84608333Y-70396620D02*
X84655952Y-70539477D01*
X84655952Y-70539477D02*
X84751190Y-70634716D01*
X84751190Y-70634716D02*
X84894047Y-70682335D01*
X84894047Y-70682335D02*
X84989285Y-70682335D01*
X83655952Y-69682335D02*
X84132142Y-69682335D01*
X84132142Y-69682335D02*
X84179761Y-70158525D01*
X84179761Y-70158525D02*
X84132142Y-70110906D01*
X84132142Y-70110906D02*
X84036904Y-70063287D01*
X84036904Y-70063287D02*
X83798809Y-70063287D01*
X83798809Y-70063287D02*
X83703571Y-70110906D01*
X83703571Y-70110906D02*
X83655952Y-70158525D01*
X83655952Y-70158525D02*
X83608333Y-70253763D01*
X83608333Y-70253763D02*
X83608333Y-70491858D01*
X83608333Y-70491858D02*
X83655952Y-70587096D01*
X83655952Y-70587096D02*
X83703571Y-70634716D01*
X83703571Y-70634716D02*
X83798809Y-70682335D01*
X83798809Y-70682335D02*
X84036904Y-70682335D01*
X84036904Y-70682335D02*
X84132142Y-70634716D01*
X84132142Y-70634716D02*
X84179761Y-70587096D01*
X140608333Y-69682335D02*
X140608333Y-70396620D01*
X140608333Y-70396620D02*
X140655952Y-70539477D01*
X140655952Y-70539477D02*
X140751190Y-70634716D01*
X140751190Y-70634716D02*
X140894047Y-70682335D01*
X140894047Y-70682335D02*
X140989285Y-70682335D01*
X140227380Y-69682335D02*
X139560714Y-69682335D01*
X139560714Y-69682335D02*
X139989285Y-70682335D01*
%TO.C,J14*%
D12*
X81620000Y-133730000D02*
X81620000Y-136380000D01*
X84380000Y-131080000D02*
X83000000Y-131080000D01*
X84380000Y-132460000D02*
X84380000Y-131080000D01*
X84380000Y-133730000D02*
X81620000Y-133730000D01*
X84380000Y-133730000D02*
X84380000Y-136380000D01*
X84380000Y-136380000D02*
X81620000Y-136380000D01*
%TO.C,J1*%
D13*
X71949000Y-50508728D02*
X71949000Y-58504000D01*
X72449000Y-59004000D02*
X73459000Y-59004000D01*
X73459000Y-50005000D02*
X72448728Y-50008728D01*
D14*
X73459000Y-61485000D02*
X73459000Y-47515000D01*
D13*
X73459000Y-61485000D02*
X73459000Y-47515000D01*
X92509000Y-45610000D02*
X75364000Y-45610000D01*
X92509000Y-63390000D02*
X75364000Y-63390000D01*
X94414000Y-47515000D02*
X94414000Y-61485000D01*
X71949000Y-50508728D02*
G75*
G02*
X72448728Y-50008700I500000J28D01*
G01*
X72449000Y-59004000D02*
G75*
G02*
X71949000Y-58504000I0J500000D01*
G01*
X73459000Y-47515000D02*
G75*
G02*
X75364000Y-45610000I1905000J0D01*
G01*
X75364000Y-63390000D02*
G75*
G02*
X73459000Y-61485000I0J1905000D01*
G01*
X92509000Y-45610000D02*
G75*
G02*
X94414000Y-47515000I-1J-1905001D01*
G01*
X94414000Y-61485000D02*
G75*
G02*
X92509000Y-63390000I-1905001J1D01*
G01*
D15*
X74002000Y-45500000D02*
G75*
G02*
X73498000Y-45500000I-252000J0D01*
G01*
X73498000Y-45500000D02*
G75*
G02*
X74002000Y-45500000I252000J0D01*
G01*
X74882000Y-46643000D02*
G75*
G02*
X74378000Y-46643000I-252000J0D01*
G01*
X74378000Y-46643000D02*
G75*
G02*
X74882000Y-46643000I252000J0D01*
G01*
%TO.C,J12*%
D13*
X155949000Y-102508728D02*
X155949000Y-110504000D01*
X156449000Y-111004000D02*
X157459000Y-111004000D01*
X157459000Y-102005000D02*
X156448728Y-102008728D01*
D14*
X157459000Y-113485000D02*
X157459000Y-99515000D01*
D13*
X157459000Y-113485000D02*
X157459000Y-99515000D01*
X176509000Y-97610000D02*
X159364000Y-97610000D01*
X176509000Y-115390000D02*
X159364000Y-115390000D01*
X178414000Y-99515000D02*
X178414000Y-113485000D01*
X155949000Y-102508728D02*
G75*
G02*
X156448728Y-102008700I500000J28D01*
G01*
X156449000Y-111004000D02*
G75*
G02*
X155949000Y-110504000I0J500000D01*
G01*
X157459000Y-99515000D02*
G75*
G02*
X159364000Y-97610000I1905000J0D01*
G01*
X159364000Y-115390000D02*
G75*
G02*
X157459000Y-113485000I0J1905000D01*
G01*
X176509000Y-97610000D02*
G75*
G02*
X178414000Y-99515000I-1J-1905001D01*
G01*
X178414000Y-113485000D02*
G75*
G02*
X176509000Y-115390000I-1905001J1D01*
G01*
D15*
X158002000Y-97500000D02*
G75*
G02*
X157498000Y-97500000I-252000J0D01*
G01*
X157498000Y-97500000D02*
G75*
G02*
X158002000Y-97500000I252000J0D01*
G01*
X158882000Y-98643000D02*
G75*
G02*
X158378000Y-98643000I-252000J0D01*
G01*
X158378000Y-98643000D02*
G75*
G02*
X158882000Y-98643000I252000J0D01*
G01*
%TO.C,J4*%
D13*
X155949000Y-50508728D02*
X155949000Y-58504000D01*
X156449000Y-59004000D02*
X157459000Y-59004000D01*
X157459000Y-50005000D02*
X156448728Y-50008728D01*
D14*
X157459000Y-61485000D02*
X157459000Y-47515000D01*
D13*
X157459000Y-61485000D02*
X157459000Y-47515000D01*
X176509000Y-45610000D02*
X159364000Y-45610000D01*
X176509000Y-63390000D02*
X159364000Y-63390000D01*
X178414000Y-47515000D02*
X178414000Y-61485000D01*
X155949000Y-50508728D02*
G75*
G02*
X156448728Y-50008700I500000J28D01*
G01*
X156449000Y-59004000D02*
G75*
G02*
X155949000Y-58504000I0J500000D01*
G01*
X157459000Y-47515000D02*
G75*
G02*
X159364000Y-45610000I1905000J0D01*
G01*
X159364000Y-63390000D02*
G75*
G02*
X157459000Y-61485000I0J1905000D01*
G01*
X176509000Y-45610000D02*
G75*
G02*
X178414000Y-47515000I-1J-1905001D01*
G01*
X178414000Y-61485000D02*
G75*
G02*
X176509000Y-63390000I-1905001J1D01*
G01*
D15*
X158002000Y-45500000D02*
G75*
G02*
X157498000Y-45500000I-252000J0D01*
G01*
X157498000Y-45500000D02*
G75*
G02*
X158002000Y-45500000I252000J0D01*
G01*
X158882000Y-46643000D02*
G75*
G02*
X158378000Y-46643000I-252000J0D01*
G01*
X158378000Y-46643000D02*
G75*
G02*
X158882000Y-46643000I252000J0D01*
G01*
%TO.C,J8*%
D13*
X155949000Y-76508728D02*
X155949000Y-84504000D01*
X156449000Y-85004000D02*
X157459000Y-85004000D01*
X157459000Y-76005000D02*
X156448728Y-76008728D01*
D14*
X157459000Y-87485000D02*
X157459000Y-73515000D01*
D13*
X157459000Y-87485000D02*
X157459000Y-73515000D01*
X176509000Y-71610000D02*
X159364000Y-71610000D01*
X176509000Y-89390000D02*
X159364000Y-89390000D01*
X178414000Y-73515000D02*
X178414000Y-87485000D01*
X155949000Y-76508728D02*
G75*
G02*
X156448728Y-76008700I500000J28D01*
G01*
X156449000Y-85004000D02*
G75*
G02*
X155949000Y-84504000I0J500000D01*
G01*
X157459000Y-73515000D02*
G75*
G02*
X159364000Y-71610000I1905000J0D01*
G01*
X159364000Y-89390000D02*
G75*
G02*
X157459000Y-87485000I0J1905000D01*
G01*
X176509000Y-71610000D02*
G75*
G02*
X178414000Y-73515000I-1J-1905001D01*
G01*
X178414000Y-87485000D02*
G75*
G02*
X176509000Y-89390000I-1905001J1D01*
G01*
D15*
X158002000Y-71500000D02*
G75*
G02*
X157498000Y-71500000I-252000J0D01*
G01*
X157498000Y-71500000D02*
G75*
G02*
X158002000Y-71500000I252000J0D01*
G01*
X158882000Y-72643000D02*
G75*
G02*
X158378000Y-72643000I-252000J0D01*
G01*
X158378000Y-72643000D02*
G75*
G02*
X158882000Y-72643000I252000J0D01*
G01*
%TO.C,J2*%
D13*
X99949000Y-50508728D02*
X99949000Y-58504000D01*
X100449000Y-59004000D02*
X101459000Y-59004000D01*
X101459000Y-50005000D02*
X100448728Y-50008728D01*
D14*
X101459000Y-61485000D02*
X101459000Y-47515000D01*
D13*
X101459000Y-61485000D02*
X101459000Y-47515000D01*
X120509000Y-45610000D02*
X103364000Y-45610000D01*
X120509000Y-63390000D02*
X103364000Y-63390000D01*
X122414000Y-47515000D02*
X122414000Y-61485000D01*
X99949000Y-50508728D02*
G75*
G02*
X100448728Y-50008700I500000J28D01*
G01*
X100449000Y-59004000D02*
G75*
G02*
X99949000Y-58504000I0J500000D01*
G01*
X101459000Y-47515000D02*
G75*
G02*
X103364000Y-45610000I1905000J0D01*
G01*
X103364000Y-63390000D02*
G75*
G02*
X101459000Y-61485000I0J1905000D01*
G01*
X120509000Y-45610000D02*
G75*
G02*
X122414000Y-47515000I-1J-1905001D01*
G01*
X122414000Y-61485000D02*
G75*
G02*
X120509000Y-63390000I-1905001J1D01*
G01*
D15*
X102002000Y-45500000D02*
G75*
G02*
X101498000Y-45500000I-252000J0D01*
G01*
X101498000Y-45500000D02*
G75*
G02*
X102002000Y-45500000I252000J0D01*
G01*
X102882000Y-46643000D02*
G75*
G02*
X102378000Y-46643000I-252000J0D01*
G01*
X102378000Y-46643000D02*
G75*
G02*
X102882000Y-46643000I252000J0D01*
G01*
%TO.C,J10*%
D13*
X99949000Y-102508728D02*
X99949000Y-110504000D01*
X100449000Y-111004000D02*
X101459000Y-111004000D01*
X101459000Y-102005000D02*
X100448728Y-102008728D01*
D14*
X101459000Y-113485000D02*
X101459000Y-99515000D01*
D13*
X101459000Y-113485000D02*
X101459000Y-99515000D01*
X120509000Y-97610000D02*
X103364000Y-97610000D01*
X120509000Y-115390000D02*
X103364000Y-115390000D01*
X122414000Y-99515000D02*
X122414000Y-113485000D01*
X99949000Y-102508728D02*
G75*
G02*
X100448728Y-102008700I500000J28D01*
G01*
X100449000Y-111004000D02*
G75*
G02*
X99949000Y-110504000I0J500000D01*
G01*
X101459000Y-99515000D02*
G75*
G02*
X103364000Y-97610000I1905000J0D01*
G01*
X103364000Y-115390000D02*
G75*
G02*
X101459000Y-113485000I0J1905000D01*
G01*
X120509000Y-97610000D02*
G75*
G02*
X122414000Y-99515000I-1J-1905001D01*
G01*
X122414000Y-113485000D02*
G75*
G02*
X120509000Y-115390000I-1905001J1D01*
G01*
D15*
X102002000Y-97500000D02*
G75*
G02*
X101498000Y-97500000I-252000J0D01*
G01*
X101498000Y-97500000D02*
G75*
G02*
X102002000Y-97500000I252000J0D01*
G01*
X102882000Y-98643000D02*
G75*
G02*
X102378000Y-98643000I-252000J0D01*
G01*
X102378000Y-98643000D02*
G75*
G02*
X102882000Y-98643000I252000J0D01*
G01*
%TO.C,J6*%
D13*
X99949000Y-76508728D02*
X99949000Y-84504000D01*
X100449000Y-85004000D02*
X101459000Y-85004000D01*
X101459000Y-76005000D02*
X100448728Y-76008728D01*
D14*
X101459000Y-87485000D02*
X101459000Y-73515000D01*
D13*
X101459000Y-87485000D02*
X101459000Y-73515000D01*
X120509000Y-71610000D02*
X103364000Y-71610000D01*
X120509000Y-89390000D02*
X103364000Y-89390000D01*
X122414000Y-73515000D02*
X122414000Y-87485000D01*
X99949000Y-76508728D02*
G75*
G02*
X100448728Y-76008700I500000J28D01*
G01*
X100449000Y-85004000D02*
G75*
G02*
X99949000Y-84504000I0J500000D01*
G01*
X101459000Y-73515000D02*
G75*
G02*
X103364000Y-71610000I1905000J0D01*
G01*
X103364000Y-89390000D02*
G75*
G02*
X101459000Y-87485000I0J1905000D01*
G01*
X120509000Y-71610000D02*
G75*
G02*
X122414000Y-73515000I-1J-1905001D01*
G01*
X122414000Y-87485000D02*
G75*
G02*
X120509000Y-89390000I-1905001J1D01*
G01*
D15*
X102002000Y-71500000D02*
G75*
G02*
X101498000Y-71500000I-252000J0D01*
G01*
X101498000Y-71500000D02*
G75*
G02*
X102002000Y-71500000I252000J0D01*
G01*
X102882000Y-72643000D02*
G75*
G02*
X102378000Y-72643000I-252000J0D01*
G01*
X102378000Y-72643000D02*
G75*
G02*
X102882000Y-72643000I252000J0D01*
G01*
%TO.C,J9*%
D13*
X71949000Y-102508728D02*
X71949000Y-110504000D01*
X72449000Y-111004000D02*
X73459000Y-111004000D01*
X73459000Y-102005000D02*
X72448728Y-102008728D01*
D14*
X73459000Y-113485000D02*
X73459000Y-99515000D01*
D13*
X73459000Y-113485000D02*
X73459000Y-99515000D01*
X92509000Y-97610000D02*
X75364000Y-97610000D01*
X92509000Y-115390000D02*
X75364000Y-115390000D01*
X94414000Y-99515000D02*
X94414000Y-113485000D01*
X71949000Y-102508728D02*
G75*
G02*
X72448728Y-102008700I500000J28D01*
G01*
X72449000Y-111004000D02*
G75*
G02*
X71949000Y-110504000I0J500000D01*
G01*
X73459000Y-99515000D02*
G75*
G02*
X75364000Y-97610000I1905000J0D01*
G01*
X75364000Y-115390000D02*
G75*
G02*
X73459000Y-113485000I0J1905000D01*
G01*
X92509000Y-97610000D02*
G75*
G02*
X94414000Y-99515000I-1J-1905001D01*
G01*
X94414000Y-113485000D02*
G75*
G02*
X92509000Y-115390000I-1905001J1D01*
G01*
D15*
X74002000Y-97500000D02*
G75*
G02*
X73498000Y-97500000I-252000J0D01*
G01*
X73498000Y-97500000D02*
G75*
G02*
X74002000Y-97500000I252000J0D01*
G01*
X74882000Y-98643000D02*
G75*
G02*
X74378000Y-98643000I-252000J0D01*
G01*
X74378000Y-98643000D02*
G75*
G02*
X74882000Y-98643000I252000J0D01*
G01*
%TO.C,J3*%
D13*
X127949000Y-50508728D02*
X127949000Y-58504000D01*
X128449000Y-59004000D02*
X129459000Y-59004000D01*
X129459000Y-50005000D02*
X128448728Y-50008728D01*
D14*
X129459000Y-61485000D02*
X129459000Y-47515000D01*
D13*
X129459000Y-61485000D02*
X129459000Y-47515000D01*
X148509000Y-45610000D02*
X131364000Y-45610000D01*
X148509000Y-63390000D02*
X131364000Y-63390000D01*
X150414000Y-47515000D02*
X150414000Y-61485000D01*
X127949000Y-50508728D02*
G75*
G02*
X128448728Y-50008700I500000J28D01*
G01*
X128449000Y-59004000D02*
G75*
G02*
X127949000Y-58504000I0J500000D01*
G01*
X129459000Y-47515000D02*
G75*
G02*
X131364000Y-45610000I1905000J0D01*
G01*
X131364000Y-63390000D02*
G75*
G02*
X129459000Y-61485000I0J1905000D01*
G01*
X148509000Y-45610000D02*
G75*
G02*
X150414000Y-47515000I-1J-1905001D01*
G01*
X150414000Y-61485000D02*
G75*
G02*
X148509000Y-63390000I-1905001J1D01*
G01*
D15*
X130002000Y-45500000D02*
G75*
G02*
X129498000Y-45500000I-252000J0D01*
G01*
X129498000Y-45500000D02*
G75*
G02*
X130002000Y-45500000I252000J0D01*
G01*
X130882000Y-46643000D02*
G75*
G02*
X130378000Y-46643000I-252000J0D01*
G01*
X130378000Y-46643000D02*
G75*
G02*
X130882000Y-46643000I252000J0D01*
G01*
%TO.C,J11*%
D13*
X127949000Y-102508728D02*
X127949000Y-110504000D01*
X128449000Y-111004000D02*
X129459000Y-111004000D01*
X129459000Y-102005000D02*
X128448728Y-102008728D01*
D14*
X129459000Y-113485000D02*
X129459000Y-99515000D01*
D13*
X129459000Y-113485000D02*
X129459000Y-99515000D01*
X148509000Y-97610000D02*
X131364000Y-97610000D01*
X148509000Y-115390000D02*
X131364000Y-115390000D01*
X150414000Y-99515000D02*
X150414000Y-113485000D01*
X127949000Y-102508728D02*
G75*
G02*
X128448728Y-102008700I500000J28D01*
G01*
X128449000Y-111004000D02*
G75*
G02*
X127949000Y-110504000I0J500000D01*
G01*
X129459000Y-99515000D02*
G75*
G02*
X131364000Y-97610000I1905000J0D01*
G01*
X131364000Y-115390000D02*
G75*
G02*
X129459000Y-113485000I0J1905000D01*
G01*
X148509000Y-97610000D02*
G75*
G02*
X150414000Y-99515000I-1J-1905001D01*
G01*
X150414000Y-113485000D02*
G75*
G02*
X148509000Y-115390000I-1905001J1D01*
G01*
D15*
X130002000Y-97500000D02*
G75*
G02*
X129498000Y-97500000I-252000J0D01*
G01*
X129498000Y-97500000D02*
G75*
G02*
X130002000Y-97500000I252000J0D01*
G01*
X130882000Y-98643000D02*
G75*
G02*
X130378000Y-98643000I-252000J0D01*
G01*
X130378000Y-98643000D02*
G75*
G02*
X130882000Y-98643000I252000J0D01*
G01*
%TO.C,J5*%
D13*
X71949000Y-76508728D02*
X71949000Y-84504000D01*
X72449000Y-85004000D02*
X73459000Y-85004000D01*
X73459000Y-76005000D02*
X72448728Y-76008728D01*
D14*
X73459000Y-87485000D02*
X73459000Y-73515000D01*
D13*
X73459000Y-87485000D02*
X73459000Y-73515000D01*
X92509000Y-71610000D02*
X75364000Y-71610000D01*
X92509000Y-89390000D02*
X75364000Y-89390000D01*
X94414000Y-73515000D02*
X94414000Y-87485000D01*
X71949000Y-76508728D02*
G75*
G02*
X72448728Y-76008700I500000J28D01*
G01*
X72449000Y-85004000D02*
G75*
G02*
X71949000Y-84504000I0J500000D01*
G01*
X73459000Y-73515000D02*
G75*
G02*
X75364000Y-71610000I1905000J0D01*
G01*
X75364000Y-89390000D02*
G75*
G02*
X73459000Y-87485000I0J1905000D01*
G01*
X92509000Y-71610000D02*
G75*
G02*
X94414000Y-73515000I-1J-1905001D01*
G01*
X94414000Y-87485000D02*
G75*
G02*
X92509000Y-89390000I-1905001J1D01*
G01*
D15*
X74002000Y-71500000D02*
G75*
G02*
X73498000Y-71500000I-252000J0D01*
G01*
X73498000Y-71500000D02*
G75*
G02*
X74002000Y-71500000I252000J0D01*
G01*
X74882000Y-72643000D02*
G75*
G02*
X74378000Y-72643000I-252000J0D01*
G01*
X74378000Y-72643000D02*
G75*
G02*
X74882000Y-72643000I252000J0D01*
G01*
%TO.C,J7*%
D13*
X127949000Y-76508728D02*
X127949000Y-84504000D01*
X128449000Y-85004000D02*
X129459000Y-85004000D01*
X129459000Y-76005000D02*
X128448728Y-76008728D01*
D14*
X129459000Y-87485000D02*
X129459000Y-73515000D01*
D13*
X129459000Y-87485000D02*
X129459000Y-73515000D01*
X148509000Y-71610000D02*
X131364000Y-71610000D01*
X148509000Y-89390000D02*
X131364000Y-89390000D01*
X150414000Y-73515000D02*
X150414000Y-87485000D01*
X127949000Y-76508728D02*
G75*
G02*
X128448728Y-76008700I500000J28D01*
G01*
X128449000Y-85004000D02*
G75*
G02*
X127949000Y-84504000I0J500000D01*
G01*
X129459000Y-73515000D02*
G75*
G02*
X131364000Y-71610000I1905000J0D01*
G01*
X131364000Y-89390000D02*
G75*
G02*
X129459000Y-87485000I0J1905000D01*
G01*
X148509000Y-71610000D02*
G75*
G02*
X150414000Y-73515000I-1J-1905001D01*
G01*
X150414000Y-87485000D02*
G75*
G02*
X148509000Y-89390000I-1905001J1D01*
G01*
D15*
X130002000Y-71500000D02*
G75*
G02*
X129498000Y-71500000I-252000J0D01*
G01*
X129498000Y-71500000D02*
G75*
G02*
X130002000Y-71500000I252000J0D01*
G01*
X130882000Y-72643000D02*
G75*
G02*
X130378000Y-72643000I-252000J0D01*
G01*
X130378000Y-72643000D02*
G75*
G02*
X130882000Y-72643000I252000J0D01*
G01*
%TD*%
M02*
