%TF.GenerationSoftware,KiCad,Pcbnew,10.0.3*%
%TF.CreationDate,2026-06-11T20:55:00-04:00*%
%TF.ProjectId,ESP32-C5-Board-V2,45535033-322d-4433-952d-426f6172642d,rev?*%
%TF.SameCoordinates,Original*%
%TF.FileFunction,Soldermask,Bot*%
%TF.FilePolarity,Negative*%
%FSLAX46Y46*%
G04 Gerber Fmt 4.6, Leading zero omitted, Abs format (unit mm)*
G04 Created by KiCad (PCBNEW 10.0.3) date 2026-06-11 20:55:00*
%MOMM*%
%LPD*%
G01*
G04 APERTURE LIST*
G04 Aperture macros list*
%AMRoundRect*
0 Rectangle with rounded corners*
0 $1 Rounding radius*
0 $2 $3 $4 $5 $6 $7 $8 $9 X,Y pos of 4 corners*
0 Add a 4 corners polygon primitive as box body*
4,1,4,$2,$3,$4,$5,$6,$7,$8,$9,$2,$3,0*
0 Add four circle primitives for the rounded corners*
1,1,$1+$1,$2,$3*
1,1,$1+$1,$4,$5*
1,1,$1+$1,$6,$7*
1,1,$1+$1,$8,$9*
0 Add four rect primitives between the rounded corners*
20,1,$1+$1,$2,$3,$4,$5,0*
20,1,$1+$1,$4,$5,$6,$7,0*
20,1,$1+$1,$6,$7,$8,$9,0*
20,1,$1+$1,$8,$9,$2,$3,0*%
G04 Aperture macros list end*
%ADD10C,2.050000*%
%ADD11C,2.250000*%
%ADD12C,0.650000*%
%ADD13O,1.000000X2.100000*%
%ADD14O,1.000000X1.800000*%
%ADD15R,1.700000X1.700000*%
%ADD16C,1.700000*%
%ADD17C,1.524000*%
%ADD18RoundRect,0.152400X0.609600X-1.063600X0.609600X1.063600X-0.609600X1.063600X-0.609600X-1.063600X0*%
%ADD19RoundRect,0.152400X-0.609600X1.063600X-0.609600X-1.063600X0.609600X-1.063600X0.609600X1.063600X0*%
%ADD20C,6.000000*%
G04 APERTURE END LIST*
D10*
%TO.C,SMA04*%
X162030000Y-35000000D03*
D11*
X159490000Y-32460000D03*
X159490000Y-37540000D03*
X164570000Y-32460000D03*
X164570000Y-37540000D03*
%TD*%
D10*
%TO.C,SMA08*%
X183000000Y-77490000D03*
D11*
X180460000Y-74950000D03*
X180460000Y-80030000D03*
X185540000Y-74950000D03*
X185540000Y-80030000D03*
%TD*%
D10*
%TO.C,SMA01*%
X80970000Y-35000000D03*
D11*
X78430000Y-32460000D03*
X78430000Y-37540000D03*
X83510000Y-32460000D03*
X83510000Y-37540000D03*
%TD*%
D10*
%TO.C,SMA02*%
X107990000Y-35000000D03*
D11*
X105450000Y-32460000D03*
X105450000Y-37540000D03*
X110530000Y-32460000D03*
X110530000Y-37540000D03*
%TD*%
D10*
%TO.C,SMA10*%
X60000000Y-125530000D03*
D11*
X57460000Y-122990000D03*
X57460000Y-128070000D03*
X62540000Y-122990000D03*
X62540000Y-128070000D03*
%TD*%
D10*
%TO.C,SMA12*%
X183000000Y-125530000D03*
D11*
X180460000Y-122990000D03*
X180460000Y-128070000D03*
X185540000Y-122990000D03*
X185540000Y-128070000D03*
%TD*%
D10*
%TO.C,SMA05*%
X60000000Y-53470000D03*
D11*
X57460000Y-50930000D03*
X57460000Y-56010000D03*
X62540000Y-50930000D03*
X62540000Y-56010000D03*
%TD*%
D12*
%TO.C,J13*%
X118610000Y-141395000D03*
X124390000Y-141395000D03*
D13*
X117180000Y-140895000D03*
D14*
X117180000Y-145075000D03*
D13*
X125820000Y-140895000D03*
D14*
X125820000Y-145075000D03*
%TD*%
D10*
%TO.C,SMA07*%
X183000000Y-53470000D03*
D11*
X180460000Y-50930000D03*
X180460000Y-56010000D03*
X185540000Y-50930000D03*
X185540000Y-56010000D03*
%TD*%
D10*
%TO.C,SMA11*%
X183000000Y-101510000D03*
D11*
X180460000Y-98970000D03*
X180460000Y-104050000D03*
X185540000Y-98970000D03*
X185540000Y-104050000D03*
%TD*%
D10*
%TO.C,SMA09*%
X60000000Y-101510000D03*
D11*
X57460000Y-98970000D03*
X57460000Y-104050000D03*
X62540000Y-98970000D03*
X62540000Y-104050000D03*
%TD*%
D10*
%TO.C,SMA06*%
X60000000Y-77490000D03*
D11*
X57460000Y-74950000D03*
X57460000Y-80030000D03*
X62540000Y-74950000D03*
X62540000Y-80030000D03*
%TD*%
D10*
%TO.C,SMA03*%
X135010000Y-35000000D03*
D11*
X132470000Y-32460000D03*
X132470000Y-37540000D03*
X137550000Y-32460000D03*
X137550000Y-37540000D03*
%TD*%
D15*
%TO.C,J14*%
X83000000Y-132460000D03*
D16*
X83000000Y-135000000D03*
%TD*%
D17*
%TO.C,J1*%
X76380000Y-46880000D03*
D18*
X76380000Y-46045000D03*
D17*
X78920000Y-46880000D03*
D18*
X78920000Y-46045000D03*
D17*
X81460000Y-46880000D03*
D18*
X81460000Y-46045000D03*
D17*
X84000000Y-46880000D03*
D18*
X84000000Y-46045000D03*
D17*
X86540000Y-46880000D03*
D18*
X86540000Y-46045000D03*
D17*
X89080000Y-46880000D03*
D18*
X89080000Y-46045000D03*
D17*
X91620000Y-46880000D03*
D18*
X91620000Y-46045000D03*
D19*
X91620000Y-62955000D03*
D17*
X91620000Y-62120000D03*
D19*
X89080000Y-62955000D03*
D17*
X89080000Y-62120000D03*
D19*
X86540000Y-62955000D03*
D17*
X86540000Y-62120000D03*
D19*
X84000000Y-62955000D03*
D17*
X84000000Y-62120000D03*
D19*
X81460000Y-62955000D03*
D17*
X81460000Y-62120000D03*
D19*
X78920000Y-62955000D03*
D17*
X78920000Y-62120000D03*
D19*
X76380000Y-62955000D03*
D17*
X76380000Y-62120000D03*
%TD*%
%TO.C,J12*%
X160380000Y-98880000D03*
D18*
X160380000Y-98045000D03*
D17*
X162920000Y-98880000D03*
D18*
X162920000Y-98045000D03*
D17*
X165460000Y-98880000D03*
D18*
X165460000Y-98045000D03*
D17*
X168000000Y-98880000D03*
D18*
X168000000Y-98045000D03*
D17*
X170540000Y-98880000D03*
D18*
X170540000Y-98045000D03*
D17*
X173080000Y-98880000D03*
D18*
X173080000Y-98045000D03*
D17*
X175620000Y-98880000D03*
D18*
X175620000Y-98045000D03*
D19*
X175620000Y-114955000D03*
D17*
X175620000Y-114120000D03*
D19*
X173080000Y-114955000D03*
D17*
X173080000Y-114120000D03*
D19*
X170540000Y-114955000D03*
D17*
X170540000Y-114120000D03*
D19*
X168000000Y-114955000D03*
D17*
X168000000Y-114120000D03*
D19*
X165460000Y-114955000D03*
D17*
X165460000Y-114120000D03*
D19*
X162920000Y-114955000D03*
D17*
X162920000Y-114120000D03*
D19*
X160380000Y-114955000D03*
D17*
X160380000Y-114120000D03*
%TD*%
D20*
%TO.C,MH1*%
X58500000Y-34000000D03*
%TD*%
D17*
%TO.C,J4*%
X160380000Y-46880000D03*
D18*
X160380000Y-46045000D03*
D17*
X162920000Y-46880000D03*
D18*
X162920000Y-46045000D03*
D17*
X165460000Y-46880000D03*
D18*
X165460000Y-46045000D03*
D17*
X168000000Y-46880000D03*
D18*
X168000000Y-46045000D03*
D17*
X170540000Y-46880000D03*
D18*
X170540000Y-46045000D03*
D17*
X173080000Y-46880000D03*
D18*
X173080000Y-46045000D03*
D17*
X175620000Y-46880000D03*
D18*
X175620000Y-46045000D03*
D19*
X175620000Y-62955000D03*
D17*
X175620000Y-62120000D03*
D19*
X173080000Y-62955000D03*
D17*
X173080000Y-62120000D03*
D19*
X170540000Y-62955000D03*
D17*
X170540000Y-62120000D03*
D19*
X168000000Y-62955000D03*
D17*
X168000000Y-62120000D03*
D19*
X165460000Y-62955000D03*
D17*
X165460000Y-62120000D03*
D19*
X162920000Y-62955000D03*
D17*
X162920000Y-62120000D03*
D19*
X160380000Y-62955000D03*
D17*
X160380000Y-62120000D03*
%TD*%
%TO.C,J8*%
X160380000Y-72880000D03*
D18*
X160380000Y-72045000D03*
D17*
X162920000Y-72880000D03*
D18*
X162920000Y-72045000D03*
D17*
X165460000Y-72880000D03*
D18*
X165460000Y-72045000D03*
D17*
X168000000Y-72880000D03*
D18*
X168000000Y-72045000D03*
D17*
X170540000Y-72880000D03*
D18*
X170540000Y-72045000D03*
D17*
X173080000Y-72880000D03*
D18*
X173080000Y-72045000D03*
D17*
X175620000Y-72880000D03*
D18*
X175620000Y-72045000D03*
D19*
X175620000Y-88955000D03*
D17*
X175620000Y-88120000D03*
D19*
X173080000Y-88955000D03*
D17*
X173080000Y-88120000D03*
D19*
X170540000Y-88955000D03*
D17*
X170540000Y-88120000D03*
D19*
X168000000Y-88955000D03*
D17*
X168000000Y-88120000D03*
D19*
X165460000Y-88955000D03*
D17*
X165460000Y-88120000D03*
D19*
X162920000Y-88955000D03*
D17*
X162920000Y-88120000D03*
D19*
X160380000Y-88955000D03*
D17*
X160380000Y-88120000D03*
%TD*%
D20*
%TO.C,MH3*%
X59000000Y-144500000D03*
%TD*%
D17*
%TO.C,J2*%
X104380000Y-46880000D03*
D18*
X104380000Y-46045000D03*
D17*
X106920000Y-46880000D03*
D18*
X106920000Y-46045000D03*
D17*
X109460000Y-46880000D03*
D18*
X109460000Y-46045000D03*
D17*
X112000000Y-46880000D03*
D18*
X112000000Y-46045000D03*
D17*
X114540000Y-46880000D03*
D18*
X114540000Y-46045000D03*
D17*
X117080000Y-46880000D03*
D18*
X117080000Y-46045000D03*
D17*
X119620000Y-46880000D03*
D18*
X119620000Y-46045000D03*
D19*
X119620000Y-62955000D03*
D17*
X119620000Y-62120000D03*
D19*
X117080000Y-62955000D03*
D17*
X117080000Y-62120000D03*
D19*
X114540000Y-62955000D03*
D17*
X114540000Y-62120000D03*
D19*
X112000000Y-62955000D03*
D17*
X112000000Y-62120000D03*
D19*
X109460000Y-62955000D03*
D17*
X109460000Y-62120000D03*
D19*
X106920000Y-62955000D03*
D17*
X106920000Y-62120000D03*
D19*
X104380000Y-62955000D03*
D17*
X104380000Y-62120000D03*
%TD*%
D20*
%TO.C,MH4*%
X184500000Y-145000000D03*
%TD*%
D17*
%TO.C,J10*%
X104380000Y-98880000D03*
D18*
X104380000Y-98045000D03*
D17*
X106920000Y-98880000D03*
D18*
X106920000Y-98045000D03*
D17*
X109460000Y-98880000D03*
D18*
X109460000Y-98045000D03*
D17*
X112000000Y-98880000D03*
D18*
X112000000Y-98045000D03*
D17*
X114540000Y-98880000D03*
D18*
X114540000Y-98045000D03*
D17*
X117080000Y-98880000D03*
D18*
X117080000Y-98045000D03*
D17*
X119620000Y-98880000D03*
D18*
X119620000Y-98045000D03*
D19*
X119620000Y-114955000D03*
D17*
X119620000Y-114120000D03*
D19*
X117080000Y-114955000D03*
D17*
X117080000Y-114120000D03*
D19*
X114540000Y-114955000D03*
D17*
X114540000Y-114120000D03*
D19*
X112000000Y-114955000D03*
D17*
X112000000Y-114120000D03*
D19*
X109460000Y-114955000D03*
D17*
X109460000Y-114120000D03*
D19*
X106920000Y-114955000D03*
D17*
X106920000Y-114120000D03*
D19*
X104380000Y-114955000D03*
D17*
X104380000Y-114120000D03*
%TD*%
%TO.C,J6*%
X104380000Y-72880000D03*
D18*
X104380000Y-72045000D03*
D17*
X106920000Y-72880000D03*
D18*
X106920000Y-72045000D03*
D17*
X109460000Y-72880000D03*
D18*
X109460000Y-72045000D03*
D17*
X112000000Y-72880000D03*
D18*
X112000000Y-72045000D03*
D17*
X114540000Y-72880000D03*
D18*
X114540000Y-72045000D03*
D17*
X117080000Y-72880000D03*
D18*
X117080000Y-72045000D03*
D17*
X119620000Y-72880000D03*
D18*
X119620000Y-72045000D03*
D19*
X119620000Y-88955000D03*
D17*
X119620000Y-88120000D03*
D19*
X117080000Y-88955000D03*
D17*
X117080000Y-88120000D03*
D19*
X114540000Y-88955000D03*
D17*
X114540000Y-88120000D03*
D19*
X112000000Y-88955000D03*
D17*
X112000000Y-88120000D03*
D19*
X109460000Y-88955000D03*
D17*
X109460000Y-88120000D03*
D19*
X106920000Y-88955000D03*
D17*
X106920000Y-88120000D03*
D19*
X104380000Y-88955000D03*
D17*
X104380000Y-88120000D03*
%TD*%
%TO.C,J9*%
X76380000Y-98880000D03*
D18*
X76380000Y-98045000D03*
D17*
X78920000Y-98880000D03*
D18*
X78920000Y-98045000D03*
D17*
X81460000Y-98880000D03*
D18*
X81460000Y-98045000D03*
D17*
X84000000Y-98880000D03*
D18*
X84000000Y-98045000D03*
D17*
X86540000Y-98880000D03*
D18*
X86540000Y-98045000D03*
D17*
X89080000Y-98880000D03*
D18*
X89080000Y-98045000D03*
D17*
X91620000Y-98880000D03*
D18*
X91620000Y-98045000D03*
D19*
X91620000Y-114955000D03*
D17*
X91620000Y-114120000D03*
D19*
X89080000Y-114955000D03*
D17*
X89080000Y-114120000D03*
D19*
X86540000Y-114955000D03*
D17*
X86540000Y-114120000D03*
D19*
X84000000Y-114955000D03*
D17*
X84000000Y-114120000D03*
D19*
X81460000Y-114955000D03*
D17*
X81460000Y-114120000D03*
D19*
X78920000Y-114955000D03*
D17*
X78920000Y-114120000D03*
D19*
X76380000Y-114955000D03*
D17*
X76380000Y-114120000D03*
%TD*%
%TO.C,J3*%
X132380000Y-46880000D03*
D18*
X132380000Y-46045000D03*
D17*
X134920000Y-46880000D03*
D18*
X134920000Y-46045000D03*
D17*
X137460000Y-46880000D03*
D18*
X137460000Y-46045000D03*
D17*
X140000000Y-46880000D03*
D18*
X140000000Y-46045000D03*
D17*
X142540000Y-46880000D03*
D18*
X142540000Y-46045000D03*
D17*
X145080000Y-46880000D03*
D18*
X145080000Y-46045000D03*
D17*
X147620000Y-46880000D03*
D18*
X147620000Y-46045000D03*
D19*
X147620000Y-62955000D03*
D17*
X147620000Y-62120000D03*
D19*
X145080000Y-62955000D03*
D17*
X145080000Y-62120000D03*
D19*
X142540000Y-62955000D03*
D17*
X142540000Y-62120000D03*
D19*
X140000000Y-62955000D03*
D17*
X140000000Y-62120000D03*
D19*
X137460000Y-62955000D03*
D17*
X137460000Y-62120000D03*
D19*
X134920000Y-62955000D03*
D17*
X134920000Y-62120000D03*
D19*
X132380000Y-62955000D03*
D17*
X132380000Y-62120000D03*
%TD*%
%TO.C,J11*%
X132380000Y-98880000D03*
D18*
X132380000Y-98045000D03*
D17*
X134920000Y-98880000D03*
D18*
X134920000Y-98045000D03*
D17*
X137460000Y-98880000D03*
D18*
X137460000Y-98045000D03*
D17*
X140000000Y-98880000D03*
D18*
X140000000Y-98045000D03*
D17*
X142540000Y-98880000D03*
D18*
X142540000Y-98045000D03*
D17*
X145080000Y-98880000D03*
D18*
X145080000Y-98045000D03*
D17*
X147620000Y-98880000D03*
D18*
X147620000Y-98045000D03*
D19*
X147620000Y-114955000D03*
D17*
X147620000Y-114120000D03*
D19*
X145080000Y-114955000D03*
D17*
X145080000Y-114120000D03*
D19*
X142540000Y-114955000D03*
D17*
X142540000Y-114120000D03*
D19*
X140000000Y-114955000D03*
D17*
X140000000Y-114120000D03*
D19*
X137460000Y-114955000D03*
D17*
X137460000Y-114120000D03*
D19*
X134920000Y-114955000D03*
D17*
X134920000Y-114120000D03*
D19*
X132380000Y-114955000D03*
D17*
X132380000Y-114120000D03*
%TD*%
%TO.C,J5*%
X76380000Y-72880000D03*
D18*
X76380000Y-72045000D03*
D17*
X78920000Y-72880000D03*
D18*
X78920000Y-72045000D03*
D17*
X81460000Y-72880000D03*
D18*
X81460000Y-72045000D03*
D17*
X84000000Y-72880000D03*
D18*
X84000000Y-72045000D03*
D17*
X86540000Y-72880000D03*
D18*
X86540000Y-72045000D03*
D17*
X89080000Y-72880000D03*
D18*
X89080000Y-72045000D03*
D17*
X91620000Y-72880000D03*
D18*
X91620000Y-72045000D03*
D19*
X91620000Y-88955000D03*
D17*
X91620000Y-88120000D03*
D19*
X89080000Y-88955000D03*
D17*
X89080000Y-88120000D03*
D19*
X86540000Y-88955000D03*
D17*
X86540000Y-88120000D03*
D19*
X84000000Y-88955000D03*
D17*
X84000000Y-88120000D03*
D19*
X81460000Y-88955000D03*
D17*
X81460000Y-88120000D03*
D19*
X78920000Y-88955000D03*
D17*
X78920000Y-88120000D03*
D19*
X76380000Y-88955000D03*
D17*
X76380000Y-88120000D03*
%TD*%
%TO.C,J7*%
X132380000Y-72880000D03*
D18*
X132380000Y-72045000D03*
D17*
X134920000Y-72880000D03*
D18*
X134920000Y-72045000D03*
D17*
X137460000Y-72880000D03*
D18*
X137460000Y-72045000D03*
D17*
X140000000Y-72880000D03*
D18*
X140000000Y-72045000D03*
D17*
X142540000Y-72880000D03*
D18*
X142540000Y-72045000D03*
D17*
X145080000Y-72880000D03*
D18*
X145080000Y-72045000D03*
D17*
X147620000Y-72880000D03*
D18*
X147620000Y-72045000D03*
D19*
X147620000Y-88955000D03*
D17*
X147620000Y-88120000D03*
D19*
X145080000Y-88955000D03*
D17*
X145080000Y-88120000D03*
D19*
X142540000Y-88955000D03*
D17*
X142540000Y-88120000D03*
D19*
X140000000Y-88955000D03*
D17*
X140000000Y-88120000D03*
D19*
X137460000Y-88955000D03*
D17*
X137460000Y-88120000D03*
D19*
X134920000Y-88955000D03*
D17*
X134920000Y-88120000D03*
D19*
X132380000Y-88955000D03*
D17*
X132380000Y-88120000D03*
%TD*%
D20*
%TO.C,MH2*%
X184000000Y-34000000D03*
%TD*%
M02*
