M48
; DRILL file KiCad 10.0.3 date 2026-06-11T20:55:02
; FORMAT={-:-/ absolute / metric / decimal}
; #@! TF.CreationDate,2026-06-11T20:55:02-04:00
; #@! TF.GenerationSoftware,Kicad,Pcbnew,10.0.3
; #@! TF.FileFunction,Plated,1,2,PTH
FMAT,2
METRIC
; #@! TA.AperFunction,Plated,PTH,ViaDrill
T1C0.400
; #@! TA.AperFunction,Plated,PTH,ComponentDrill
T2C0.600
; #@! TA.AperFunction,Plated,PTH,ComponentDrill
T3C0.889
; #@! TA.AperFunction,Plated,PTH,ViaDrill
T4C1.000
; #@! TA.AperFunction,Plated,PTH,ComponentDrill
T5C1.000
; #@! TA.AperFunction,Plated,PTH,ComponentDrill
T6C1.500
; #@! TA.AperFunction,Plated,PTH,ComponentDrill
T7C1.700
%
G90
G05
T1
X111.0Y-130.0
X115.5Y-131.0
X118.3Y-140.32
X119.0Y-130.0
X119.0Y-131.0
X119.0Y-132.0
X119.0Y-133.0
X124.5Y-130.0
X124.7Y-140.32
T3
X76.38Y-46.88
X76.38Y-62.12
X76.38Y-72.88
X76.38Y-88.12
X76.38Y-98.88
X76.38Y-114.12
X78.92Y-46.88
X78.92Y-62.12
X78.92Y-72.88
X78.92Y-88.12
X78.92Y-98.88
X78.92Y-114.12
X81.46Y-46.88
X81.46Y-62.12
X81.46Y-72.88
X81.46Y-88.12
X81.46Y-98.88
X81.46Y-114.12
X84.0Y-46.88
X84.0Y-62.12
X84.0Y-72.88
X84.0Y-88.12
X84.0Y-98.88
X84.0Y-114.12
X86.54Y-46.88
X86.54Y-62.12
X86.54Y-72.88
X86.54Y-88.12
X86.54Y-98.88
X86.54Y-114.12
X89.08Y-46.88
X89.08Y-62.12
X89.08Y-72.88
X89.08Y-88.12
X89.08Y-98.88
X89.08Y-114.12
X91.62Y-46.88
X91.62Y-62.12
X91.62Y-72.88
X91.62Y-88.12
X91.62Y-98.88
X91.62Y-114.12
X104.38Y-46.88
X104.38Y-62.12
X104.38Y-72.88
X104.38Y-88.12
X104.38Y-98.88
X104.38Y-114.12
X106.92Y-46.88
X106.92Y-62.12
X106.92Y-72.88
X106.92Y-88.12
X106.92Y-98.88
X106.92Y-114.12
X109.46Y-46.88
X109.46Y-62.12
X109.46Y-72.88
X109.46Y-88.12
X109.46Y-98.88
X109.46Y-114.12
X112.0Y-46.88
X112.0Y-62.12
X112.0Y-72.88
X112.0Y-88.12
X112.0Y-98.88
X112.0Y-114.12
X114.54Y-46.88
X114.54Y-62.12
X114.54Y-72.88
X114.54Y-88.12
X114.54Y-98.88
X114.54Y-114.12
X117.08Y-46.88
X117.08Y-62.12
X117.08Y-72.88
X117.08Y-88.12
X117.08Y-98.88
X117.08Y-114.12
X119.62Y-46.88
X119.62Y-62.12
X119.62Y-72.88
X119.62Y-88.12
X119.62Y-98.88
X119.62Y-114.12
X132.38Y-46.88
X132.38Y-62.12
X132.38Y-72.88
X132.38Y-88.12
X132.38Y-98.88
X132.38Y-114.12
X134.92Y-46.88
X134.92Y-62.12
X134.92Y-72.88
X134.92Y-88.12
X134.92Y-98.88
X134.92Y-114.12
X137.46Y-46.88
X137.46Y-62.12
X137.46Y-72.88
X137.46Y-88.12
X137.46Y-98.88
X137.46Y-114.12
X140.0Y-46.88
X140.0Y-62.12
X140.0Y-72.88
X140.0Y-88.12
X140.0Y-98.88
X140.0Y-114.12
X142.54Y-46.88
X142.54Y-62.12
X142.54Y-72.88
X142.54Y-88.12
X142.54Y-98.88
X142.54Y-114.12
X145.08Y-46.88
X145.08Y-62.12
X145.08Y-72.88
X145.08Y-88.12
X145.08Y-98.88
X145.08Y-114.12
X147.62Y-46.88
X147.62Y-62.12
X147.62Y-72.88
X147.62Y-88.12
X147.62Y-98.88
X147.62Y-114.12
X160.38Y-46.88
X160.38Y-62.12
X160.38Y-72.88
X160.38Y-88.12
X160.38Y-98.88
X160.38Y-114.12
X162.92Y-46.88
X162.92Y-62.12
X162.92Y-72.88
X162.92Y-88.12
X162.92Y-98.88
X162.92Y-114.12
X165.46Y-46.88
X165.46Y-62.12
X165.46Y-72.88
X165.46Y-88.12
X165.46Y-98.88
X165.46Y-114.12
X168.0Y-46.88
X168.0Y-62.12
X168.0Y-72.88
X168.0Y-88.12
X168.0Y-98.88
X168.0Y-114.12
X170.54Y-46.88
X170.54Y-62.12
X170.54Y-72.88
X170.54Y-88.12
X170.54Y-98.88
X170.54Y-114.12
X173.08Y-46.88
X173.08Y-62.12
X173.08Y-72.88
X173.08Y-88.12
X173.08Y-98.88
X173.08Y-114.12
X175.62Y-46.88
X175.62Y-62.12
X175.62Y-72.88
X175.62Y-88.12
X175.62Y-98.88
X175.62Y-114.12
T4
X121.75Y-131.0
T5
X83.0Y-132.46
X83.0Y-135.0
T6
X60.0Y-53.47
X60.0Y-77.49
X60.0Y-101.51
X60.0Y-125.53
X80.97Y-35.0
X107.99Y-35.0
X135.01Y-35.0
X162.03Y-35.0
X183.0Y-53.47
X183.0Y-77.49
X183.0Y-101.51
X183.0Y-125.53
T7
X57.46Y-50.93
X57.46Y-56.01
X57.46Y-74.95
X57.46Y-80.03
X57.46Y-98.97
X57.46Y-104.05
X57.46Y-122.99
X57.46Y-128.07
X62.54Y-50.93
X62.54Y-56.01
X62.54Y-74.95
X62.54Y-80.03
X62.54Y-98.97
X62.54Y-104.05
X62.54Y-122.99
X62.54Y-128.07
X78.43Y-32.46
X78.43Y-37.54
X83.51Y-32.46
X83.51Y-37.54
X105.45Y-32.46
X105.45Y-37.54
X110.53Y-32.46
X110.53Y-37.54
X132.47Y-32.46
X132.47Y-37.54
X137.55Y-32.46
X137.55Y-37.54
X159.49Y-32.46
X159.49Y-37.54
X164.57Y-32.46
X164.57Y-37.54
X180.46Y-50.93
X180.46Y-56.01
X180.46Y-74.95
X180.46Y-80.03
X180.46Y-98.97
X180.46Y-104.05
X180.46Y-122.99
X180.46Y-128.07
X185.54Y-50.93
X185.54Y-56.01
X185.54Y-74.95
X185.54Y-80.03
X185.54Y-98.97
X185.54Y-104.05
X185.54Y-122.99
X185.54Y-128.07
T2
G00X117.18Y-140.345
M15
G01X117.18Y-141.445
M16
G05
G00X117.18Y-144.675
M15
G01X117.18Y-145.475
M16
G05
G00X125.82Y-140.345
M15
G01X125.82Y-141.445
M16
G05
G00X125.82Y-144.675
M15
G01X125.82Y-145.475
M16
G05
M30
