%TF.GenerationSoftware,KiCad,Pcbnew,10.0.3*%
%TF.CreationDate,2026-06-11T20:55:00-04:00*%
%TF.ProjectId,ESP32-C5-Board-V2,45535033-322d-4433-952d-426f6172642d,rev?*%
%TF.SameCoordinates,Original*%
%TF.FileFunction,Copper,L1,Top*%
%TF.FilePolarity,Positive*%
%FSLAX46Y46*%
G04 Gerber Fmt 4.6, Leading zero omitted, Abs format (unit mm)*
G04 Created by KiCad (PCBNEW 10.0.3) date 2026-06-11 20:55:00*
%MOMM*%
%LPD*%
G01*
G04 APERTURE LIST*
G04 Aperture macros list*
%AMRoundRect*
0 Rectangle with rounded corners*
0 $1 Rounding radius*
0 $2 $3 $4 $5 $6 $7 $8 $9 X,Y pos of 4 corners*
0 Add a 4 corners polygon primitive as box body*
4,1,4,$2,$3,$4,$5,$6,$7,$8,$9,$2,$3,0*
0 Add four circle primitives for the rounded corners*
1,1,$1+$1,$2,$3*
1,1,$1+$1,$4,$5*
1,1,$1+$1,$6,$7*
1,1,$1+$1,$8,$9*
0 Add four rect primitives between the rounded corners*
20,1,$1+$1,$2,$3,$4,$5,0*
20,1,$1+$1,$4,$5,$6,$7,0*
20,1,$1+$1,$6,$7,$8,$9,0*
20,1,$1+$1,$8,$9,$2,$3,0*%
G04 Aperture macros list end*
%TA.AperFunction,ComponentPad*%
%ADD10C,2.050000*%
%TD*%
%TA.AperFunction,ComponentPad*%
%ADD11C,2.250000*%
%TD*%
%TA.AperFunction,SMDPad,CuDef*%
%ADD12RoundRect,0.250000X-0.475000X0.250000X-0.475000X-0.250000X0.475000X-0.250000X0.475000X0.250000X0*%
%TD*%
%TA.AperFunction,SMDPad,CuDef*%
%ADD13RoundRect,0.140000X-0.170000X0.140000X-0.170000X-0.140000X0.170000X-0.140000X0.170000X0.140000X0*%
%TD*%
%TA.AperFunction,SMDPad,CuDef*%
%ADD14R,2.100000X3.300000*%
%TD*%
%TA.AperFunction,SMDPad,CuDef*%
%ADD15R,1.700000X0.550000*%
%TD*%
%TA.AperFunction,SMDPad,CuDef*%
%ADD16RoundRect,0.137500X-0.712500X-0.137500X0.712500X-0.137500X0.712500X0.137500X-0.712500X0.137500X0*%
%TD*%
%TA.AperFunction,SMDPad,CuDef*%
%ADD17RoundRect,0.150000X-0.150000X-0.425000X0.150000X-0.425000X0.150000X0.425000X-0.150000X0.425000X0*%
%TD*%
%TA.AperFunction,SMDPad,CuDef*%
%ADD18RoundRect,0.075000X-0.075000X-0.500000X0.075000X-0.500000X0.075000X0.500000X-0.075000X0.500000X0*%
%TD*%
%TA.AperFunction,ComponentPad*%
%ADD19O,1.000000X2.100000*%
%TD*%
%TA.AperFunction,ComponentPad*%
%ADD20O,1.000000X1.800000*%
%TD*%
%TA.AperFunction,ComponentPad*%
%ADD21R,1.700000X1.700000*%
%TD*%
%TA.AperFunction,ComponentPad*%
%ADD22C,1.700000*%
%TD*%
%TA.AperFunction,ComponentPad*%
%ADD23C,1.524000*%
%TD*%
%TA.AperFunction,ViaPad*%
%ADD24C,1.500000*%
%TD*%
%TA.AperFunction,ViaPad*%
%ADD25C,0.600000*%
%TD*%
%TA.AperFunction,Conductor*%
%ADD26C,0.400000*%
%TD*%
%TA.AperFunction,Conductor*%
%ADD27C,0.200000*%
%TD*%
G04 APERTURE END LIST*
D10*
%TO.P,SMA04,1*%
%TO.N,N/C*%
X162030000Y-35000000D03*
D11*
%TO.P,SMA04,2*%
X159490000Y-32460000D03*
X159490000Y-37540000D03*
X164570000Y-32460000D03*
X164570000Y-37540000D03*
%TD*%
D10*
%TO.P,SMA08,1*%
%TO.N,N/C*%
X183000000Y-77490000D03*
D11*
%TO.P,SMA08,2*%
X180460000Y-74950000D03*
X180460000Y-80030000D03*
X185540000Y-74950000D03*
X185540000Y-80030000D03*
%TD*%
D10*
%TO.P,SMA01,1*%
%TO.N,N/C*%
X80970000Y-35000000D03*
D11*
%TO.P,SMA01,2*%
X78430000Y-32460000D03*
X78430000Y-37540000D03*
X83510000Y-32460000D03*
X83510000Y-37540000D03*
%TD*%
D12*
%TO.P,C1,1*%
%TO.N,+5V*%
X115500000Y-129100000D03*
%TO.P,C1,2*%
%TO.N,GND*%
X115500000Y-131000000D03*
%TD*%
D10*
%TO.P,SMA02,1*%
%TO.N,N/C*%
X107990000Y-35000000D03*
D11*
%TO.P,SMA02,2*%
X105450000Y-32460000D03*
X105450000Y-37540000D03*
X110530000Y-32460000D03*
X110530000Y-37540000D03*
%TD*%
D10*
%TO.P,SMA10,1*%
%TO.N,N/C*%
X60000000Y-125530000D03*
D11*
%TO.P,SMA10,2*%
X57460000Y-122990000D03*
X57460000Y-128070000D03*
X62540000Y-122990000D03*
X62540000Y-128070000D03*
%TD*%
D10*
%TO.P,SMA12,1*%
%TO.N,N/C*%
X183000000Y-125530000D03*
D11*
%TO.P,SMA12,2*%
X180460000Y-122990000D03*
X180460000Y-128070000D03*
X185540000Y-122990000D03*
X185540000Y-128070000D03*
%TD*%
D13*
%TO.P,C2,1,1_1*%
%TO.N,+5V*%
X111000000Y-129040000D03*
%TO.P,C2,2,2_2*%
%TO.N,GND*%
X111000000Y-130000000D03*
%TD*%
D14*
%TO.P,U1,0*%
%TO.N,GND*%
X121750000Y-131000000D03*
D15*
%TO.P,U1,1*%
%TO.N,+5V*%
X119000000Y-129000000D03*
D16*
%TO.P,U1,2*%
%TO.N,GND*%
X119000000Y-130000000D03*
%TO.P,U1,3*%
X119000000Y-131000000D03*
%TO.P,U1,4*%
X119000000Y-132000000D03*
%TO.P,U1,5*%
X119000000Y-133000000D03*
%TO.P,U1,6*%
%TO.N,CC2*%
X124500000Y-133000000D03*
%TO.P,U1,7*%
%TO.N,CC1*%
X124500000Y-132000000D03*
%TO.P,U1,8*%
%TO.N,+5V*%
X124500000Y-131000000D03*
%TO.P,U1,9*%
%TO.N,GND*%
X124500000Y-130000000D03*
%TO.P,U1,10*%
%TO.N,N/C*%
X124500000Y-129000000D03*
%TD*%
D10*
%TO.P,SMA05,1*%
%TO.N,N/C*%
X60000000Y-53470000D03*
D11*
%TO.P,SMA05,2*%
X57460000Y-50930000D03*
X57460000Y-56010000D03*
X62540000Y-50930000D03*
X62540000Y-56010000D03*
%TD*%
D17*
%TO.P,J13,A1,VBUS_A1*%
%TO.N,GND*%
X118300000Y-140320000D03*
%TO.P,J13,A4*%
%TO.N,+5V*%
X119100000Y-140320000D03*
D18*
%TO.P,J13,A5,CC1_A5*%
%TO.N,CC1*%
X120250000Y-140320000D03*
%TO.P,J13,A6,D+_A6*%
%TO.N,unconnected-(J13-D+-PadA6)*%
X121250000Y-140320000D03*
%TO.P,J13,A7,D-_A7*%
%TO.N,unconnected-(J13-D--PadA7)*%
X121750000Y-140320000D03*
%TO.P,J13,A8,SBU1_A8*%
%TO.N,unconnected-(J13-SBU1-PadA8)*%
X122750000Y-140320000D03*
D17*
%TO.P,J13,A9*%
%TO.N,+5V*%
X123900000Y-140320000D03*
%TO.P,J13,A12,GND_A12*%
%TO.N,GND*%
X124700000Y-140320000D03*
%TO.P,J13,B1,VBUS_B1*%
X124700000Y-140320000D03*
%TO.P,J13,B4*%
%TO.N,+5V*%
X123900000Y-140320000D03*
D18*
%TO.P,J13,B5,CC2_B5*%
%TO.N,CC2*%
X123250000Y-140320000D03*
%TO.P,J13,B6*%
%TO.N,N/C*%
X122250000Y-140320000D03*
%TO.P,J13,B7*%
X120750000Y-140320000D03*
%TO.P,J13,B8,SBU2_B8*%
%TO.N,unconnected-(J13-SBU2-PadB8)*%
X119750000Y-140320000D03*
D17*
%TO.P,J13,B9*%
%TO.N,+5V*%
X119100000Y-140320000D03*
%TO.P,J13,B12,GND_B12*%
%TO.N,GND*%
X118300000Y-140320000D03*
D19*
%TO.P,J13,SH*%
%TO.N,N/C*%
X117180000Y-140895000D03*
D20*
X117180000Y-145075000D03*
D19*
X125820000Y-140895000D03*
D20*
X125820000Y-145075000D03*
%TD*%
D10*
%TO.P,SMA07,1*%
%TO.N,N/C*%
X183000000Y-53470000D03*
D11*
%TO.P,SMA07,2*%
X180460000Y-50930000D03*
X180460000Y-56010000D03*
X185540000Y-50930000D03*
X185540000Y-56010000D03*
%TD*%
D10*
%TO.P,SMA11,1*%
%TO.N,N/C*%
X183000000Y-101510000D03*
D11*
%TO.P,SMA11,2*%
X180460000Y-98970000D03*
X180460000Y-104050000D03*
X185540000Y-98970000D03*
X185540000Y-104050000D03*
%TD*%
D10*
%TO.P,SMA09,1*%
%TO.N,N/C*%
X60000000Y-101510000D03*
D11*
%TO.P,SMA09,2*%
X57460000Y-98970000D03*
X57460000Y-104050000D03*
X62540000Y-98970000D03*
X62540000Y-104050000D03*
%TD*%
D10*
%TO.P,SMA06,1*%
%TO.N,N/C*%
X60000000Y-77490000D03*
D11*
%TO.P,SMA06,2*%
X57460000Y-74950000D03*
X57460000Y-80030000D03*
X62540000Y-74950000D03*
X62540000Y-80030000D03*
%TD*%
D10*
%TO.P,SMA03,1*%
%TO.N,N/C*%
X135010000Y-35000000D03*
D11*
%TO.P,SMA03,2*%
X132470000Y-32460000D03*
X132470000Y-37540000D03*
X137550000Y-32460000D03*
X137550000Y-37540000D03*
%TD*%
D21*
%TO.P,J14,1,+5V_1*%
%TO.N,+5V*%
X83000000Y-132460000D03*
D22*
%TO.P,J14,2,GND_2*%
%TO.N,GND*%
X83000000Y-135000000D03*
%TD*%
D23*
%TO.P,J1,1,GPIO1_A0_D0_1*%
%TO.N,unconnected-(J1-GPIO1_A0_D0-Pad1)_1*%
X76380000Y-46880000D03*
%TO.P,J1,2,GPIO0_D1_2*%
%TO.N,unconnected-(J1-GPIO0_D1-Pad2)*%
X78920000Y-46880000D03*
%TO.P,J1,3,GPIO25_D2_3*%
%TO.N,unconnected-(J1-GPIO25_D2-Pad3)_1*%
X81460000Y-46880000D03*
%TO.P,J1,4,GPIO7_D3_4*%
%TO.N,unconnected-(J1-GPIO7_D3-Pad4)*%
X84000000Y-46880000D03*
%TO.P,J1,5,GPIO23_D4_SDA_5*%
%TO.N,unconnected-(J1-GPIO23_D4_SDA-Pad5)*%
X86540000Y-46880000D03*
%TO.P,J1,6,GPIO24_D5_SCL_6*%
%TO.N,unconnected-(J1-GPIO24_D5_SCL-Pad6)*%
X89080000Y-46880000D03*
%TO.P,J1,7,GPIO11_D6_TX_7*%
%TO.N,unconnected-(J1-GPIO11_D6_TX-Pad7)*%
X91620000Y-46880000D03*
%TO.P,J1,8,GPIO12_D7_RX_8*%
%TO.N,unconnected-(J1-GPIO12_D7_RX-Pad8)*%
X91620000Y-62120000D03*
%TO.P,J1,9,GPIO8_D8_SCK_9*%
%TO.N,unconnected-(J1-GPIO8_D8_SCK-Pad9)*%
X89080000Y-62120000D03*
%TO.P,J1,10,GPIO9_D9_MISO_10*%
%TO.N,unconnected-(J1-GPIO9_D9_MISO-Pad10)*%
X86540000Y-62120000D03*
%TO.P,J1,11,GPIO18_D10_MOSI_11*%
%TO.N,unconnected-(J1-GPIO18_D10_MOSI-Pad11)*%
X84000000Y-62120000D03*
%TO.P,J1,12,3V3_12*%
%TO.N,unconnected-(J1-3V3-Pad12)*%
X81460000Y-62120000D03*
%TO.P,J1,13,GND_13*%
%TO.N,GND*%
X78920000Y-62120000D03*
%TO.P,J1,14,VBUS_14*%
%TO.N,+5V*%
X76380000Y-62120000D03*
%TD*%
%TO.P,J12,1,GPIO1_A0_D0_1*%
%TO.N,unconnected-(J12-GPIO1_A0_D0-Pad1)_1*%
X160380000Y-98880000D03*
%TO.P,J12,2,GPIO0_D1_2*%
%TO.N,unconnected-(J12-GPIO0_D1-Pad2)_1*%
X162920000Y-98880000D03*
%TO.P,J12,3,GPIO25_D2_3*%
%TO.N,unconnected-(J12-GPIO25_D2-Pad3)_1*%
X165460000Y-98880000D03*
%TO.P,J12,4,GPIO7_D3_4*%
%TO.N,unconnected-(J12-GPIO7_D3-Pad4)*%
X168000000Y-98880000D03*
%TO.P,J12,5,GPIO23_D4_SDA_5*%
%TO.N,unconnected-(J12-GPIO23_D4_SDA-Pad5)*%
X170540000Y-98880000D03*
%TO.P,J12,6,GPIO24_D5_SCL_6*%
%TO.N,unconnected-(J12-GPIO24_D5_SCL-Pad6)_1*%
X173080000Y-98880000D03*
%TO.P,J12,7,GPIO11_D6_TX_7*%
%TO.N,unconnected-(J12-GPIO11_D6_TX-Pad7)*%
X175620000Y-98880000D03*
%TO.P,J12,8,GPIO12_D7_RX_8*%
%TO.N,unconnected-(J12-GPIO12_D7_RX-Pad8)*%
X175620000Y-114120000D03*
%TO.P,J12,9,GPIO8_D8_SCK_9*%
%TO.N,unconnected-(J12-GPIO8_D8_SCK-Pad9)*%
X173080000Y-114120000D03*
%TO.P,J12,10,GPIO9_D9_MISO_10*%
%TO.N,unconnected-(J12-GPIO9_D9_MISO-Pad10)_1*%
X170540000Y-114120000D03*
%TO.P,J12,11,GPIO18_D10_MOSI_11*%
%TO.N,unconnected-(J12-GPIO18_D10_MOSI-Pad11)_1*%
X168000000Y-114120000D03*
%TO.P,J12,12,3V3_12*%
%TO.N,unconnected-(J12-3V3-Pad12)_1*%
X165460000Y-114120000D03*
%TO.P,J12,13,GND_13*%
%TO.N,GND*%
X162920000Y-114120000D03*
%TO.P,J12,14,VBUS_14*%
%TO.N,+5V*%
X160380000Y-114120000D03*
%TD*%
%TO.P,J4,1,GPIO1_A0_D0_1*%
%TO.N,unconnected-(J4-GPIO1_A0_D0-Pad1)_1*%
X160380000Y-46880000D03*
%TO.P,J4,2,GPIO0_D1_2*%
%TO.N,unconnected-(J4-GPIO0_D1-Pad2)*%
X162920000Y-46880000D03*
%TO.P,J4,3,GPIO25_D2_3*%
%TO.N,unconnected-(J4-GPIO25_D2-Pad3)*%
X165460000Y-46880000D03*
%TO.P,J4,4,GPIO7_D3_4*%
%TO.N,unconnected-(J4-GPIO7_D3-Pad4)_1*%
X168000000Y-46880000D03*
%TO.P,J4,5,GPIO23_D4_SDA_5*%
%TO.N,unconnected-(J4-GPIO23_D4_SDA-Pad5)_1*%
X170540000Y-46880000D03*
%TO.P,J4,6,GPIO24_D5_SCL_6*%
%TO.N,unconnected-(J4-GPIO24_D5_SCL-Pad6)*%
X173080000Y-46880000D03*
%TO.P,J4,7,GPIO11_D6_TX_7*%
%TO.N,unconnected-(J4-GPIO11_D6_TX-Pad7)_1*%
X175620000Y-46880000D03*
%TO.P,J4,8,GPIO12_D7_RX_8*%
%TO.N,unconnected-(J4-GPIO12_D7_RX-Pad8)_1*%
X175620000Y-62120000D03*
%TO.P,J4,9,GPIO8_D8_SCK_9*%
%TO.N,unconnected-(J4-GPIO8_D8_SCK-Pad9)*%
X173080000Y-62120000D03*
%TO.P,J4,10,GPIO9_D9_MISO_10*%
%TO.N,unconnected-(J4-GPIO9_D9_MISO-Pad10)*%
X170540000Y-62120000D03*
%TO.P,J4,11,GPIO18_D10_MOSI_11*%
%TO.N,unconnected-(J4-GPIO18_D10_MOSI-Pad11)*%
X168000000Y-62120000D03*
%TO.P,J4,12,3V3_12*%
%TO.N,unconnected-(J4-3V3-Pad12)_1*%
X165460000Y-62120000D03*
%TO.P,J4,13,GND_13*%
%TO.N,GND*%
X162920000Y-62120000D03*
%TO.P,J4,14,VBUS_14*%
%TO.N,+5V*%
X160380000Y-62120000D03*
%TD*%
%TO.P,J8,1,GPIO1_A0_D0_1*%
%TO.N,unconnected-(J8-GPIO1_A0_D0-Pad1)*%
X160380000Y-72880000D03*
%TO.P,J8,2,GPIO0_D1_2*%
%TO.N,unconnected-(J8-GPIO0_D1-Pad2)*%
X162920000Y-72880000D03*
%TO.P,J8,3,GPIO25_D2_3*%
%TO.N,unconnected-(J8-GPIO25_D2-Pad3)_1*%
X165460000Y-72880000D03*
%TO.P,J8,4,GPIO7_D3_4*%
%TO.N,unconnected-(J8-GPIO7_D3-Pad4)_1*%
X168000000Y-72880000D03*
%TO.P,J8,5,GPIO23_D4_SDA_5*%
%TO.N,unconnected-(J8-GPIO23_D4_SDA-Pad5)*%
X170540000Y-72880000D03*
%TO.P,J8,6,GPIO24_D5_SCL_6*%
%TO.N,unconnected-(J8-GPIO24_D5_SCL-Pad6)*%
X173080000Y-72880000D03*
%TO.P,J8,7,GPIO11_D6_TX_7*%
%TO.N,unconnected-(J8-GPIO11_D6_TX-Pad7)*%
X175620000Y-72880000D03*
%TO.P,J8,8,GPIO12_D7_RX_8*%
%TO.N,unconnected-(J8-GPIO12_D7_RX-Pad8)*%
X175620000Y-88120000D03*
%TO.P,J8,9,GPIO8_D8_SCK_9*%
%TO.N,unconnected-(J8-GPIO8_D8_SCK-Pad9)_1*%
X173080000Y-88120000D03*
%TO.P,J8,10,GPIO9_D9_MISO_10*%
%TO.N,unconnected-(J8-GPIO9_D9_MISO-Pad10)_1*%
X170540000Y-88120000D03*
%TO.P,J8,11,GPIO18_D10_MOSI_11*%
%TO.N,unconnected-(J8-GPIO18_D10_MOSI-Pad11)*%
X168000000Y-88120000D03*
%TO.P,J8,12,3V3_12*%
%TO.N,unconnected-(J8-3V3-Pad12)_1*%
X165460000Y-88120000D03*
%TO.P,J8,13,GND_13*%
%TO.N,GND*%
X162920000Y-88120000D03*
%TO.P,J8,14,VBUS_14*%
%TO.N,+5V*%
X160380000Y-88120000D03*
%TD*%
%TO.P,J2,1,GPIO1_A0_D0_1*%
%TO.N,unconnected-(J2-GPIO1_A0_D0-Pad1)*%
X104380000Y-46880000D03*
%TO.P,J2,2,GPIO0_D1_2*%
%TO.N,unconnected-(J2-GPIO0_D1-Pad2)_1*%
X106920000Y-46880000D03*
%TO.P,J2,3,GPIO25_D2_3*%
%TO.N,unconnected-(J2-GPIO25_D2-Pad3)_1*%
X109460000Y-46880000D03*
%TO.P,J2,4,GPIO7_D3_4*%
%TO.N,unconnected-(J2-GPIO7_D3-Pad4)*%
X112000000Y-46880000D03*
%TO.P,J2,5,GPIO23_D4_SDA_5*%
%TO.N,unconnected-(J2-GPIO23_D4_SDA-Pad5)_1*%
X114540000Y-46880000D03*
%TO.P,J2,6,GPIO24_D5_SCL_6*%
%TO.N,unconnected-(J2-GPIO24_D5_SCL-Pad6)*%
X117080000Y-46880000D03*
%TO.P,J2,7,GPIO11_D6_TX_7*%
%TO.N,unconnected-(J2-GPIO11_D6_TX-Pad7)_1*%
X119620000Y-46880000D03*
%TO.P,J2,8,GPIO12_D7_RX_8*%
%TO.N,unconnected-(J2-GPIO12_D7_RX-Pad8)*%
X119620000Y-62120000D03*
%TO.P,J2,9,GPIO8_D8_SCK_9*%
%TO.N,unconnected-(J2-GPIO8_D8_SCK-Pad9)*%
X117080000Y-62120000D03*
%TO.P,J2,10,GPIO9_D9_MISO_10*%
%TO.N,unconnected-(J2-GPIO9_D9_MISO-Pad10)_1*%
X114540000Y-62120000D03*
%TO.P,J2,11,GPIO18_D10_MOSI_11*%
%TO.N,unconnected-(J2-GPIO18_D10_MOSI-Pad11)_1*%
X112000000Y-62120000D03*
%TO.P,J2,12,3V3_12*%
%TO.N,unconnected-(J2-3V3-Pad12)*%
X109460000Y-62120000D03*
%TO.P,J2,13,GND_13*%
%TO.N,GND*%
X106920000Y-62120000D03*
%TO.P,J2,14,VBUS_14*%
%TO.N,+5V*%
X104380000Y-62120000D03*
%TD*%
%TO.P,J10,1,GPIO1_A0_D0_1*%
%TO.N,unconnected-(J10-GPIO1_A0_D0-Pad1)*%
X104380000Y-98880000D03*
%TO.P,J10,2,GPIO0_D1_2*%
%TO.N,unconnected-(J10-GPIO0_D1-Pad2)*%
X106920000Y-98880000D03*
%TO.P,J10,3,GPIO25_D2_3*%
%TO.N,unconnected-(J10-GPIO25_D2-Pad3)*%
X109460000Y-98880000D03*
%TO.P,J10,4,GPIO7_D3_4*%
%TO.N,unconnected-(J10-GPIO7_D3-Pad4)_1*%
X112000000Y-98880000D03*
%TO.P,J10,5,GPIO23_D4_SDA_5*%
%TO.N,unconnected-(J10-GPIO23_D4_SDA-Pad5)_1*%
X114540000Y-98880000D03*
%TO.P,J10,6,GPIO24_D5_SCL_6*%
%TO.N,unconnected-(J10-GPIO24_D5_SCL-Pad6)_1*%
X117080000Y-98880000D03*
%TO.P,J10,7,GPIO11_D6_TX_7*%
%TO.N,unconnected-(J10-GPIO11_D6_TX-Pad7)*%
X119620000Y-98880000D03*
%TO.P,J10,8,GPIO12_D7_RX_8*%
%TO.N,unconnected-(J10-GPIO12_D7_RX-Pad8)*%
X119620000Y-114120000D03*
%TO.P,J10,9,GPIO8_D8_SCK_9*%
%TO.N,unconnected-(J10-GPIO8_D8_SCK-Pad9)*%
X117080000Y-114120000D03*
%TO.P,J10,10,GPIO9_D9_MISO_10*%
%TO.N,unconnected-(J10-GPIO9_D9_MISO-Pad10)_1*%
X114540000Y-114120000D03*
%TO.P,J10,11,GPIO18_D10_MOSI_11*%
%TO.N,unconnected-(J10-GPIO18_D10_MOSI-Pad11)*%
X112000000Y-114120000D03*
%TO.P,J10,12,3V3_12*%
%TO.N,unconnected-(J10-3V3-Pad12)*%
X109460000Y-114120000D03*
%TO.P,J10,13,GND_13*%
%TO.N,GND*%
X106920000Y-114120000D03*
%TO.P,J10,14,VBUS_14*%
%TO.N,+5V*%
X104380000Y-114120000D03*
%TD*%
%TO.P,J6,1,GPIO1_A0_D0_1*%
%TO.N,unconnected-(J6-GPIO1_A0_D0-Pad1)*%
X104380000Y-72880000D03*
%TO.P,J6,2,GPIO0_D1_2*%
%TO.N,unconnected-(J6-GPIO0_D1-Pad2)_1*%
X106920000Y-72880000D03*
%TO.P,J6,3,GPIO25_D2_3*%
%TO.N,unconnected-(J6-GPIO25_D2-Pad3)*%
X109460000Y-72880000D03*
%TO.P,J6,4,GPIO7_D3_4*%
%TO.N,unconnected-(J6-GPIO7_D3-Pad4)_1*%
X112000000Y-72880000D03*
%TO.P,J6,5,GPIO23_D4_SDA_5*%
%TO.N,unconnected-(J6-GPIO23_D4_SDA-Pad5)_1*%
X114540000Y-72880000D03*
%TO.P,J6,6,GPIO24_D5_SCL_6*%
%TO.N,unconnected-(J6-GPIO24_D5_SCL-Pad6)_1*%
X117080000Y-72880000D03*
%TO.P,J6,7,GPIO11_D6_TX_7*%
%TO.N,unconnected-(J6-GPIO11_D6_TX-Pad7)_1*%
X119620000Y-72880000D03*
%TO.P,J6,8,GPIO12_D7_RX_8*%
%TO.N,unconnected-(J6-GPIO12_D7_RX-Pad8)_1*%
X119620000Y-88120000D03*
%TO.P,J6,9,GPIO8_D8_SCK_9*%
%TO.N,unconnected-(J6-GPIO8_D8_SCK-Pad9)*%
X117080000Y-88120000D03*
%TO.P,J6,10,GPIO9_D9_MISO_10*%
%TO.N,unconnected-(J6-GPIO9_D9_MISO-Pad10)*%
X114540000Y-88120000D03*
%TO.P,J6,11,GPIO18_D10_MOSI_11*%
%TO.N,unconnected-(J6-GPIO18_D10_MOSI-Pad11)_1*%
X112000000Y-88120000D03*
%TO.P,J6,12,3V3_12*%
%TO.N,unconnected-(J6-3V3-Pad12)_1*%
X109460000Y-88120000D03*
%TO.P,J6,13,GND_13*%
%TO.N,GND*%
X106920000Y-88120000D03*
%TO.P,J6,14,VBUS_14*%
%TO.N,+5V*%
X104380000Y-88120000D03*
%TD*%
%TO.P,J9,1,GPIO1_A0_D0_1*%
%TO.N,unconnected-(J9-GPIO1_A0_D0-Pad1)_1*%
X76380000Y-98880000D03*
%TO.P,J9,2,GPIO0_D1_2*%
%TO.N,unconnected-(J9-GPIO0_D1-Pad2)*%
X78920000Y-98880000D03*
%TO.P,J9,3,GPIO25_D2_3*%
%TO.N,unconnected-(J9-GPIO25_D2-Pad3)*%
X81460000Y-98880000D03*
%TO.P,J9,4,GPIO7_D3_4*%
%TO.N,unconnected-(J9-GPIO7_D3-Pad4)*%
X84000000Y-98880000D03*
%TO.P,J9,5,GPIO23_D4_SDA_5*%
%TO.N,unconnected-(J9-GPIO23_D4_SDA-Pad5)_1*%
X86540000Y-98880000D03*
%TO.P,J9,6,GPIO24_D5_SCL_6*%
%TO.N,unconnected-(J9-GPIO24_D5_SCL-Pad6)*%
X89080000Y-98880000D03*
%TO.P,J9,7,GPIO11_D6_TX_7*%
%TO.N,unconnected-(J9-GPIO11_D6_TX-Pad7)*%
X91620000Y-98880000D03*
%TO.P,J9,8,GPIO12_D7_RX_8*%
%TO.N,unconnected-(J9-GPIO12_D7_RX-Pad8)_1*%
X91620000Y-114120000D03*
%TO.P,J9,9,GPIO8_D8_SCK_9*%
%TO.N,unconnected-(J9-GPIO8_D8_SCK-Pad9)_1*%
X89080000Y-114120000D03*
%TO.P,J9,10,GPIO9_D9_MISO_10*%
%TO.N,unconnected-(J9-GPIO9_D9_MISO-Pad10)*%
X86540000Y-114120000D03*
%TO.P,J9,11,GPIO18_D10_MOSI_11*%
%TO.N,unconnected-(J9-GPIO18_D10_MOSI-Pad11)*%
X84000000Y-114120000D03*
%TO.P,J9,12,3V3_12*%
%TO.N,unconnected-(J9-3V3-Pad12)*%
X81460000Y-114120000D03*
%TO.P,J9,13,GND_13*%
%TO.N,GND*%
X78920000Y-114120000D03*
%TO.P,J9,14,VBUS_14*%
%TO.N,+5V*%
X76380000Y-114120000D03*
%TD*%
%TO.P,J3,1,GPIO1_A0_D0_1*%
%TO.N,unconnected-(J3-GPIO1_A0_D0-Pad1)*%
X132380000Y-46880000D03*
%TO.P,J3,2,GPIO0_D1_2*%
%TO.N,unconnected-(J3-GPIO0_D1-Pad2)_1*%
X134920000Y-46880000D03*
%TO.P,J3,3,GPIO25_D2_3*%
%TO.N,unconnected-(J3-GPIO25_D2-Pad3)_1*%
X137460000Y-46880000D03*
%TO.P,J3,4,GPIO7_D3_4*%
%TO.N,unconnected-(J3-GPIO7_D3-Pad4)*%
X140000000Y-46880000D03*
%TO.P,J3,5,GPIO23_D4_SDA_5*%
%TO.N,unconnected-(J3-GPIO23_D4_SDA-Pad5)_1*%
X142540000Y-46880000D03*
%TO.P,J3,6,GPIO24_D5_SCL_6*%
%TO.N,unconnected-(J3-GPIO24_D5_SCL-Pad6)*%
X145080000Y-46880000D03*
%TO.P,J3,7,GPIO11_D6_TX_7*%
%TO.N,unconnected-(J3-GPIO11_D6_TX-Pad7)*%
X147620000Y-46880000D03*
%TO.P,J3,8,GPIO12_D7_RX_8*%
%TO.N,unconnected-(J3-GPIO12_D7_RX-Pad8)_1*%
X147620000Y-62120000D03*
%TO.P,J3,9,GPIO8_D8_SCK_9*%
%TO.N,unconnected-(J3-GPIO8_D8_SCK-Pad9)_1*%
X145080000Y-62120000D03*
%TO.P,J3,10,GPIO9_D9_MISO_10*%
%TO.N,unconnected-(J3-GPIO9_D9_MISO-Pad10)*%
X142540000Y-62120000D03*
%TO.P,J3,11,GPIO18_D10_MOSI_11*%
%TO.N,unconnected-(J3-GPIO18_D10_MOSI-Pad11)*%
X140000000Y-62120000D03*
%TO.P,J3,12,3V3_12*%
%TO.N,unconnected-(J3-3V3-Pad12)_1*%
X137460000Y-62120000D03*
%TO.P,J3,13,GND_13*%
%TO.N,GND*%
X134920000Y-62120000D03*
%TO.P,J3,14,VBUS_14*%
%TO.N,+5V*%
X132380000Y-62120000D03*
%TD*%
%TO.P,J11,1,GPIO1_A0_D0_1*%
%TO.N,unconnected-(J11-GPIO1_A0_D0-Pad1)*%
X132380000Y-98880000D03*
%TO.P,J11,2,GPIO0_D1_2*%
%TO.N,unconnected-(J11-GPIO0_D1-Pad2)*%
X134920000Y-98880000D03*
%TO.P,J11,3,GPIO25_D2_3*%
%TO.N,unconnected-(J11-GPIO25_D2-Pad3)*%
X137460000Y-98880000D03*
%TO.P,J11,4,GPIO7_D3_4*%
%TO.N,unconnected-(J11-GPIO7_D3-Pad4)_1*%
X140000000Y-98880000D03*
%TO.P,J11,5,GPIO23_D4_SDA_5*%
%TO.N,unconnected-(J11-GPIO23_D4_SDA-Pad5)_1*%
X142540000Y-98880000D03*
%TO.P,J11,6,GPIO24_D5_SCL_6*%
%TO.N,unconnected-(J11-GPIO24_D5_SCL-Pad6)*%
X145080000Y-98880000D03*
%TO.P,J11,7,GPIO11_D6_TX_7*%
%TO.N,unconnected-(J11-GPIO11_D6_TX-Pad7)_1*%
X147620000Y-98880000D03*
%TO.P,J11,8,GPIO12_D7_RX_8*%
%TO.N,unconnected-(J11-GPIO12_D7_RX-Pad8)*%
X147620000Y-114120000D03*
%TO.P,J11,9,GPIO8_D8_SCK_9*%
%TO.N,unconnected-(J11-GPIO8_D8_SCK-Pad9)_1*%
X145080000Y-114120000D03*
%TO.P,J11,10,GPIO9_D9_MISO_10*%
%TO.N,unconnected-(J11-GPIO9_D9_MISO-Pad10)*%
X142540000Y-114120000D03*
%TO.P,J11,11,GPIO18_D10_MOSI_11*%
%TO.N,unconnected-(J11-GPIO18_D10_MOSI-Pad11)_1*%
X140000000Y-114120000D03*
%TO.P,J11,12,3V3_12*%
%TO.N,unconnected-(J11-3V3-Pad12)_1*%
X137460000Y-114120000D03*
%TO.P,J11,13,GND_13*%
%TO.N,GND*%
X134920000Y-114120000D03*
%TO.P,J11,14,VBUS_14*%
%TO.N,+5V*%
X132380000Y-114120000D03*
%TD*%
%TO.P,J5,1,GPIO1_A0_D0_1*%
%TO.N,unconnected-(J5-GPIO1_A0_D0-Pad1)*%
X76380000Y-72880000D03*
%TO.P,J5,2,GPIO0_D1_2*%
%TO.N,unconnected-(J5-GPIO0_D1-Pad2)_1*%
X78920000Y-72880000D03*
%TO.P,J5,3,GPIO25_D2_3*%
%TO.N,unconnected-(J5-GPIO25_D2-Pad3)*%
X81460000Y-72880000D03*
%TO.P,J5,4,GPIO7_D3_4*%
%TO.N,unconnected-(J5-GPIO7_D3-Pad4)*%
X84000000Y-72880000D03*
%TO.P,J5,5,GPIO23_D4_SDA_5*%
%TO.N,unconnected-(J5-GPIO23_D4_SDA-Pad5)_1*%
X86540000Y-72880000D03*
%TO.P,J5,6,GPIO24_D5_SCL_6*%
%TO.N,unconnected-(J5-GPIO24_D5_SCL-Pad6)*%
X89080000Y-72880000D03*
%TO.P,J5,7,GPIO11_D6_TX_7*%
%TO.N,unconnected-(J5-GPIO11_D6_TX-Pad7)_1*%
X91620000Y-72880000D03*
%TO.P,J5,8,GPIO12_D7_RX_8*%
%TO.N,unconnected-(J5-GPIO12_D7_RX-Pad8)_1*%
X91620000Y-88120000D03*
%TO.P,J5,9,GPIO8_D8_SCK_9*%
%TO.N,unconnected-(J5-GPIO8_D8_SCK-Pad9)*%
X89080000Y-88120000D03*
%TO.P,J5,10,GPIO9_D9_MISO_10*%
%TO.N,unconnected-(J5-GPIO9_D9_MISO-Pad10)*%
X86540000Y-88120000D03*
%TO.P,J5,11,GPIO18_D10_MOSI_11*%
%TO.N,unconnected-(J5-GPIO18_D10_MOSI-Pad11)*%
X84000000Y-88120000D03*
%TO.P,J5,12,3V3_12*%
%TO.N,unconnected-(J5-3V3-Pad12)*%
X81460000Y-88120000D03*
%TO.P,J5,13,GND_13*%
%TO.N,GND*%
X78920000Y-88120000D03*
%TO.P,J5,14,VBUS_14*%
%TO.N,+5V*%
X76380000Y-88120000D03*
%TD*%
%TO.P,J7,1,GPIO1_A0_D0_1*%
%TO.N,unconnected-(J7-GPIO1_A0_D0-Pad1)*%
X132380000Y-72880000D03*
%TO.P,J7,2,GPIO0_D1_2*%
%TO.N,unconnected-(J7-GPIO0_D1-Pad2)_1*%
X134920000Y-72880000D03*
%TO.P,J7,3,GPIO25_D2_3*%
%TO.N,unconnected-(J7-GPIO25_D2-Pad3)*%
X137460000Y-72880000D03*
%TO.P,J7,4,GPIO7_D3_4*%
%TO.N,unconnected-(J7-GPIO7_D3-Pad4)*%
X140000000Y-72880000D03*
%TO.P,J7,5,GPIO23_D4_SDA_5*%
%TO.N,unconnected-(J7-GPIO23_D4_SDA-Pad5)_1*%
X142540000Y-72880000D03*
%TO.P,J7,6,GPIO24_D5_SCL_6*%
%TO.N,unconnected-(J7-GPIO24_D5_SCL-Pad6)_1*%
X145080000Y-72880000D03*
%TO.P,J7,7,GPIO11_D6_TX_7*%
%TO.N,unconnected-(J7-GPIO11_D6_TX-Pad7)_1*%
X147620000Y-72880000D03*
%TO.P,J7,8,GPIO12_D7_RX_8*%
%TO.N,unconnected-(J7-GPIO12_D7_RX-Pad8)*%
X147620000Y-88120000D03*
%TO.P,J7,9,GPIO8_D8_SCK_9*%
%TO.N,unconnected-(J7-GPIO8_D8_SCK-Pad9)*%
X145080000Y-88120000D03*
%TO.P,J7,10,GPIO9_D9_MISO_10*%
%TO.N,unconnected-(J7-GPIO9_D9_MISO-Pad10)_1*%
X142540000Y-88120000D03*
%TO.P,J7,11,GPIO18_D10_MOSI_11*%
%TO.N,unconnected-(J7-GPIO18_D10_MOSI-Pad11)_1*%
X140000000Y-88120000D03*
%TO.P,J7,12,3V3_12*%
%TO.N,unconnected-(J7-3V3-Pad12)_1*%
X137460000Y-88120000D03*
%TO.P,J7,13,GND_13*%
%TO.N,GND*%
X134920000Y-88120000D03*
%TO.P,J7,14,VBUS_14*%
%TO.N,+5V*%
X132380000Y-88120000D03*
%TD*%
D24*
%TO.N,GND*%
X121750000Y-131000000D03*
D25*
X124500000Y-130000000D03*
X124700000Y-140320000D03*
X111000000Y-130000000D03*
X119000000Y-133000000D03*
X119000000Y-131000000D03*
X119000000Y-132000000D03*
X115500000Y-131000000D03*
X118300000Y-140320000D03*
X119000000Y-130000000D03*
%TD*%
%TO.N,+5V*%
D26*
X126500000Y-131000000D02*
X127000000Y-130500000D01*
X123250000Y-139058800D02*
X123532400Y-139341200D01*
X119000000Y-129000000D02*
X119613950Y-129000000D01*
X157500000Y-93500000D02*
X153500000Y-93500000D01*
X73000000Y-93500000D02*
X73000000Y-93000000D01*
X127000000Y-120000000D02*
X125500000Y-118500000D01*
X133570600Y-67500000D02*
X153500000Y-67500000D01*
X128500000Y-120000000D02*
X150500000Y-120000000D01*
X119100000Y-139710500D02*
X119469300Y-139341200D01*
X76380000Y-114120000D02*
X76380000Y-104380000D01*
X98000000Y-67500000D02*
X103000000Y-67500000D01*
X73000000Y-69500000D02*
X73000000Y-93000000D01*
X120275300Y-139341200D02*
X123532400Y-139341200D01*
X95500000Y-120500000D02*
X76380000Y-120500000D01*
X125500000Y-67500000D02*
X130500000Y-67500000D01*
X110942700Y-128982700D02*
X110942700Y-128982600D01*
X76380000Y-114955000D02*
X76380000Y-120500000D01*
X123650001Y-131000000D02*
X123250000Y-131400001D01*
X76380000Y-120500000D02*
X76380000Y-124588300D01*
X76380000Y-66120000D02*
X75000000Y-67500000D01*
X104380000Y-66120000D02*
X103000000Y-67500000D01*
X125500000Y-93500000D02*
X125500000Y-67500000D01*
X153500000Y-93500000D02*
X133570600Y-93500000D01*
X133570600Y-93500000D02*
X131000000Y-93500000D01*
X98000000Y-93500000D02*
X100500000Y-93500000D01*
X123250000Y-131400001D02*
X123250000Y-139058800D01*
X127000000Y-120000000D02*
X96000000Y-120000000D01*
X130500000Y-67500000D02*
X133570600Y-67500000D01*
X160380000Y-116620000D02*
X160000000Y-117000000D01*
X76380000Y-104380000D02*
X73000000Y-101000000D01*
X103000000Y-67500000D02*
X105500000Y-67500000D01*
X160000000Y-117000000D02*
X153500000Y-117000000D01*
X119000000Y-129000000D02*
X115600000Y-129000000D01*
X153500000Y-93500000D02*
X153500000Y-67500000D01*
X73000000Y-93000000D02*
X76380000Y-89620000D01*
X75000000Y-67500000D02*
X73000000Y-69500000D01*
X104380000Y-114120000D02*
X104380000Y-115620000D01*
X123532400Y-139341200D02*
X123900000Y-139708800D01*
X160380000Y-88120000D02*
X160380000Y-90620000D01*
X98000000Y-116000000D02*
X98000000Y-93500000D01*
X160380000Y-64620000D02*
X157500000Y-67500000D01*
X115600000Y-129000000D02*
X115500000Y-129100000D01*
X76380000Y-114120000D02*
X76380000Y-114955000D01*
X104000000Y-116000000D02*
X98000000Y-116000000D01*
X132380000Y-114120000D02*
X132380000Y-116120000D01*
X127000000Y-120000000D02*
X128500000Y-120000000D01*
X157500000Y-67500000D02*
X153500000Y-67500000D01*
X153500000Y-117000000D02*
X153500000Y-93500000D01*
X150500000Y-120000000D02*
X153500000Y-117000000D01*
X115100000Y-129100000D02*
X115040000Y-129040000D01*
X120275300Y-129661350D02*
X120275300Y-139341200D01*
X124500000Y-131000000D02*
X126500000Y-131000000D01*
X104380000Y-89620000D02*
X100500000Y-93500000D01*
X132380000Y-62120000D02*
X132380000Y-65620000D01*
X132380000Y-65620000D02*
X130500000Y-67500000D01*
X131000000Y-93500000D02*
X125500000Y-93500000D01*
X123900000Y-139708800D02*
X123900000Y-140320000D01*
X132380000Y-92120000D02*
X131000000Y-93500000D01*
X104380000Y-88120000D02*
X104380000Y-89620000D01*
X119469300Y-139341200D02*
X120275300Y-139341200D01*
X83000000Y-132460000D02*
X83000000Y-131208300D01*
X100500000Y-93500000D02*
X125500000Y-93500000D01*
X104380000Y-62120000D02*
X104380000Y-66120000D01*
X125500000Y-118500000D02*
X125500000Y-93500000D01*
X95500000Y-118500000D02*
X95500000Y-120500000D01*
X76380000Y-89620000D02*
X76380000Y-88120000D01*
X98000000Y-116000000D02*
X95500000Y-118500000D01*
X132380000Y-116120000D02*
X128500000Y-120000000D01*
X105500000Y-67500000D02*
X125500000Y-67500000D01*
X160380000Y-62120000D02*
X160380000Y-64620000D01*
X96000000Y-120000000D02*
X95500000Y-120500000D01*
X76380000Y-124588300D02*
X83000000Y-131208300D01*
X124500000Y-131000000D02*
X123650001Y-131000000D01*
X119613950Y-129000000D02*
X120275300Y-129661350D01*
X111000000Y-129040000D02*
X110942700Y-128982700D01*
X160380000Y-114120000D02*
X160380000Y-116620000D01*
X115500000Y-129100000D02*
X115100000Y-129100000D01*
X132380000Y-88120000D02*
X132380000Y-92120000D01*
X98000000Y-93500000D02*
X98000000Y-67500000D01*
X127000000Y-130500000D02*
X127000000Y-120000000D01*
X76380000Y-62120000D02*
X76380000Y-66120000D01*
X73000000Y-93500000D02*
X98000000Y-93500000D01*
X115040000Y-129040000D02*
X111000000Y-129040000D01*
X119100000Y-140320000D02*
X119100000Y-139710500D01*
X160380000Y-90620000D02*
X157500000Y-93500000D01*
X75000000Y-67500000D02*
X98000000Y-67500000D01*
X104380000Y-115620000D02*
X104000000Y-116000000D01*
X73000000Y-101000000D02*
X73000000Y-93500000D01*
%TO.N,CC2*%
D27*
X124009300Y-142322200D02*
X123250000Y-141562900D01*
X123250000Y-141562900D02*
X123250000Y-140320000D01*
X124500000Y-133000000D02*
X126676800Y-135176800D01*
X126676800Y-141727200D02*
X126081800Y-142322200D01*
X126081800Y-142322200D02*
X124009300Y-142322200D01*
X126676800Y-135176800D02*
X126676800Y-141727200D01*
%TO.N,CC1*%
X120250000Y-140320000D02*
X120250000Y-140945800D01*
X125048500Y-132000000D02*
X124500000Y-132000000D01*
X127090700Y-134042200D02*
X125048500Y-132000000D01*
X126279900Y-142758500D02*
X127090700Y-141947700D01*
X122062700Y-142758500D02*
X126279900Y-142758500D01*
X127090700Y-141947700D02*
X127090700Y-134042200D01*
X120250000Y-140945800D02*
X122062700Y-142758500D01*
%TD*%
M02*
