%TF.GenerationSoftware,KiCad,Pcbnew,10.0.3*%
%TF.CreationDate,2026-06-11T20:55:00-04:00*%
%TF.ProjectId,ESP32-C5-Board-V2,45535033-322d-4433-952d-426f6172642d,rev?*%
%TF.SameCoordinates,Original*%
%TF.FileFunction,Legend,Top*%
%TF.FilePolarity,Positive*%
%FSLAX46Y46*%
G04 Gerber Fmt 4.6, Leading zero omitted, Abs format (unit mm)*
G04 Created by KiCad (PCBNEW 10.0.3) date 2026-06-11 20:55:00*
%MOMM*%
%LPD*%
G01*
G04 APERTURE LIST*
%ADD10C,0.400000*%
%ADD11C,0.150000*%
%ADD12C,0.120000*%
G04 APERTURE END LIST*
D10*
X137834585Y-137969200D02*
X138263157Y-138112057D01*
X138263157Y-138112057D02*
X138977442Y-138112057D01*
X138977442Y-138112057D02*
X139263157Y-137969200D01*
X139263157Y-137969200D02*
X139406014Y-137826342D01*
X139406014Y-137826342D02*
X139548871Y-137540628D01*
X139548871Y-137540628D02*
X139548871Y-137254914D01*
X139548871Y-137254914D02*
X139406014Y-136969200D01*
X139406014Y-136969200D02*
X139263157Y-136826342D01*
X139263157Y-136826342D02*
X138977442Y-136683485D01*
X138977442Y-136683485D02*
X138406014Y-136540628D01*
X138406014Y-136540628D02*
X138120299Y-136397771D01*
X138120299Y-136397771D02*
X137977442Y-136254914D01*
X137977442Y-136254914D02*
X137834585Y-135969200D01*
X137834585Y-135969200D02*
X137834585Y-135683485D01*
X137834585Y-135683485D02*
X137977442Y-135397771D01*
X137977442Y-135397771D02*
X138120299Y-135254914D01*
X138120299Y-135254914D02*
X138406014Y-135112057D01*
X138406014Y-135112057D02*
X139120299Y-135112057D01*
X139120299Y-135112057D02*
X139548871Y-135254914D01*
X140406014Y-136112057D02*
X141548871Y-136112057D01*
X140834585Y-135112057D02*
X140834585Y-137683485D01*
X140834585Y-137683485D02*
X140977442Y-137969200D01*
X140977442Y-137969200D02*
X141263157Y-138112057D01*
X141263157Y-138112057D02*
X141548871Y-138112057D01*
X143834586Y-138112057D02*
X143834586Y-136540628D01*
X143834586Y-136540628D02*
X143691728Y-136254914D01*
X143691728Y-136254914D02*
X143406014Y-136112057D01*
X143406014Y-136112057D02*
X142834586Y-136112057D01*
X142834586Y-136112057D02*
X142548871Y-136254914D01*
X143834586Y-137969200D02*
X143548871Y-138112057D01*
X143548871Y-138112057D02*
X142834586Y-138112057D01*
X142834586Y-138112057D02*
X142548871Y-137969200D01*
X142548871Y-137969200D02*
X142406014Y-137683485D01*
X142406014Y-137683485D02*
X142406014Y-137397771D01*
X142406014Y-137397771D02*
X142548871Y-137112057D01*
X142548871Y-137112057D02*
X142834586Y-136969200D01*
X142834586Y-136969200D02*
X143548871Y-136969200D01*
X143548871Y-136969200D02*
X143834586Y-136826342D01*
X145263157Y-138112057D02*
X145263157Y-136112057D01*
X145263157Y-136397771D02*
X145406014Y-136254914D01*
X145406014Y-136254914D02*
X145691729Y-136112057D01*
X145691729Y-136112057D02*
X146120300Y-136112057D01*
X146120300Y-136112057D02*
X146406014Y-136254914D01*
X146406014Y-136254914D02*
X146548872Y-136540628D01*
X146548872Y-136540628D02*
X146548872Y-138112057D01*
X146548872Y-136540628D02*
X146691729Y-136254914D01*
X146691729Y-136254914D02*
X146977443Y-136112057D01*
X146977443Y-136112057D02*
X147406014Y-136112057D01*
X147406014Y-136112057D02*
X147691729Y-136254914D01*
X147691729Y-136254914D02*
X147834586Y-136540628D01*
X147834586Y-136540628D02*
X147834586Y-138112057D01*
X150406014Y-137969200D02*
X150120300Y-138112057D01*
X150120300Y-138112057D02*
X149548872Y-138112057D01*
X149548872Y-138112057D02*
X149263157Y-137969200D01*
X149263157Y-137969200D02*
X149120300Y-137683485D01*
X149120300Y-137683485D02*
X149120300Y-136540628D01*
X149120300Y-136540628D02*
X149263157Y-136254914D01*
X149263157Y-136254914D02*
X149548872Y-136112057D01*
X149548872Y-136112057D02*
X150120300Y-136112057D01*
X150120300Y-136112057D02*
X150406014Y-136254914D01*
X150406014Y-136254914D02*
X150548872Y-136540628D01*
X150548872Y-136540628D02*
X150548872Y-136826342D01*
X150548872Y-136826342D02*
X149120300Y-137112057D01*
X151834586Y-136112057D02*
X151834586Y-138112057D01*
X151834586Y-136397771D02*
X151977443Y-136254914D01*
X151977443Y-136254914D02*
X152263158Y-136112057D01*
X152263158Y-136112057D02*
X152691729Y-136112057D01*
X152691729Y-136112057D02*
X152977443Y-136254914D01*
X152977443Y-136254914D02*
X153120301Y-136540628D01*
X153120301Y-136540628D02*
X153120301Y-138112057D01*
X154406015Y-137969200D02*
X154834587Y-138112057D01*
X154834587Y-138112057D02*
X155548872Y-138112057D01*
X155548872Y-138112057D02*
X155834587Y-137969200D01*
X155834587Y-137969200D02*
X155977444Y-137826342D01*
X155977444Y-137826342D02*
X156120301Y-137540628D01*
X156120301Y-137540628D02*
X156120301Y-137254914D01*
X156120301Y-137254914D02*
X155977444Y-136969200D01*
X155977444Y-136969200D02*
X155834587Y-136826342D01*
X155834587Y-136826342D02*
X155548872Y-136683485D01*
X155548872Y-136683485D02*
X154977444Y-136540628D01*
X154977444Y-136540628D02*
X154691729Y-136397771D01*
X154691729Y-136397771D02*
X154548872Y-136254914D01*
X154548872Y-136254914D02*
X154406015Y-135969200D01*
X154406015Y-135969200D02*
X154406015Y-135683485D01*
X154406015Y-135683485D02*
X154548872Y-135397771D01*
X154548872Y-135397771D02*
X154691729Y-135254914D01*
X154691729Y-135254914D02*
X154977444Y-135112057D01*
X154977444Y-135112057D02*
X155691729Y-135112057D01*
X155691729Y-135112057D02*
X156120301Y-135254914D01*
X158691730Y-137969200D02*
X158406015Y-138112057D01*
X158406015Y-138112057D02*
X157834587Y-138112057D01*
X157834587Y-138112057D02*
X157548872Y-137969200D01*
X157548872Y-137969200D02*
X157406015Y-137826342D01*
X157406015Y-137826342D02*
X157263158Y-137540628D01*
X157263158Y-137540628D02*
X157263158Y-136683485D01*
X157263158Y-136683485D02*
X157406015Y-136397771D01*
X157406015Y-136397771D02*
X157548872Y-136254914D01*
X157548872Y-136254914D02*
X157834587Y-136112057D01*
X157834587Y-136112057D02*
X158406015Y-136112057D01*
X158406015Y-136112057D02*
X158691730Y-136254914D01*
X161263159Y-138112057D02*
X161263159Y-136540628D01*
X161263159Y-136540628D02*
X161120301Y-136254914D01*
X161120301Y-136254914D02*
X160834587Y-136112057D01*
X160834587Y-136112057D02*
X160263159Y-136112057D01*
X160263159Y-136112057D02*
X159977444Y-136254914D01*
X161263159Y-137969200D02*
X160977444Y-138112057D01*
X160977444Y-138112057D02*
X160263159Y-138112057D01*
X160263159Y-138112057D02*
X159977444Y-137969200D01*
X159977444Y-137969200D02*
X159834587Y-137683485D01*
X159834587Y-137683485D02*
X159834587Y-137397771D01*
X159834587Y-137397771D02*
X159977444Y-137112057D01*
X159977444Y-137112057D02*
X160263159Y-136969200D01*
X160263159Y-136969200D02*
X160977444Y-136969200D01*
X160977444Y-136969200D02*
X161263159Y-136826342D01*
X162691730Y-136112057D02*
X162691730Y-138112057D01*
X162691730Y-136397771D02*
X162834587Y-136254914D01*
X162834587Y-136254914D02*
X163120302Y-136112057D01*
X163120302Y-136112057D02*
X163548873Y-136112057D01*
X163548873Y-136112057D02*
X163834587Y-136254914D01*
X163834587Y-136254914D02*
X163977445Y-136540628D01*
X163977445Y-136540628D02*
X163977445Y-138112057D01*
X167406016Y-136112057D02*
X168120302Y-138112057D01*
X168120302Y-138112057D02*
X168834587Y-136112057D01*
X171548873Y-138112057D02*
X169834587Y-138112057D01*
X170691730Y-138112057D02*
X170691730Y-135112057D01*
X170691730Y-135112057D02*
X170406016Y-135540628D01*
X170406016Y-135540628D02*
X170120301Y-135826342D01*
X170120301Y-135826342D02*
X169834587Y-135969200D01*
X172834587Y-137826342D02*
X172977444Y-137969200D01*
X172977444Y-137969200D02*
X172834587Y-138112057D01*
X172834587Y-138112057D02*
X172691730Y-137969200D01*
X172691730Y-137969200D02*
X172834587Y-137826342D01*
X172834587Y-137826342D02*
X172834587Y-138112057D01*
X174834587Y-135112057D02*
X175120301Y-135112057D01*
X175120301Y-135112057D02*
X175406015Y-135254914D01*
X175406015Y-135254914D02*
X175548873Y-135397771D01*
X175548873Y-135397771D02*
X175691730Y-135683485D01*
X175691730Y-135683485D02*
X175834587Y-136254914D01*
X175834587Y-136254914D02*
X175834587Y-136969200D01*
X175834587Y-136969200D02*
X175691730Y-137540628D01*
X175691730Y-137540628D02*
X175548873Y-137826342D01*
X175548873Y-137826342D02*
X175406015Y-137969200D01*
X175406015Y-137969200D02*
X175120301Y-138112057D01*
X175120301Y-138112057D02*
X174834587Y-138112057D01*
X174834587Y-138112057D02*
X174548873Y-137969200D01*
X174548873Y-137969200D02*
X174406015Y-137826342D01*
X174406015Y-137826342D02*
X174263158Y-137540628D01*
X174263158Y-137540628D02*
X174120301Y-136969200D01*
X174120301Y-136969200D02*
X174120301Y-136254914D01*
X174120301Y-136254914D02*
X174263158Y-135683485D01*
X174263158Y-135683485D02*
X174406015Y-135397771D01*
X174406015Y-135397771D02*
X174548873Y-135254914D01*
X174548873Y-135254914D02*
X174834587Y-135112057D01*
D11*
X159791905Y-30657200D02*
X159934762Y-30704819D01*
X159934762Y-30704819D02*
X160172857Y-30704819D01*
X160172857Y-30704819D02*
X160268095Y-30657200D01*
X160268095Y-30657200D02*
X160315714Y-30609580D01*
X160315714Y-30609580D02*
X160363333Y-30514342D01*
X160363333Y-30514342D02*
X160363333Y-30419104D01*
X160363333Y-30419104D02*
X160315714Y-30323866D01*
X160315714Y-30323866D02*
X160268095Y-30276247D01*
X160268095Y-30276247D02*
X160172857Y-30228628D01*
X160172857Y-30228628D02*
X159982381Y-30181009D01*
X159982381Y-30181009D02*
X159887143Y-30133390D01*
X159887143Y-30133390D02*
X159839524Y-30085771D01*
X159839524Y-30085771D02*
X159791905Y-29990533D01*
X159791905Y-29990533D02*
X159791905Y-29895295D01*
X159791905Y-29895295D02*
X159839524Y-29800057D01*
X159839524Y-29800057D02*
X159887143Y-29752438D01*
X159887143Y-29752438D02*
X159982381Y-29704819D01*
X159982381Y-29704819D02*
X160220476Y-29704819D01*
X160220476Y-29704819D02*
X160363333Y-29752438D01*
X160791905Y-30704819D02*
X160791905Y-29704819D01*
X160791905Y-29704819D02*
X161125238Y-30419104D01*
X161125238Y-30419104D02*
X161458571Y-29704819D01*
X161458571Y-29704819D02*
X161458571Y-30704819D01*
X161887143Y-30419104D02*
X162363333Y-30419104D01*
X161791905Y-30704819D02*
X162125238Y-29704819D01*
X162125238Y-29704819D02*
X162458571Y-30704819D01*
X162982381Y-29704819D02*
X163077619Y-29704819D01*
X163077619Y-29704819D02*
X163172857Y-29752438D01*
X163172857Y-29752438D02*
X163220476Y-29800057D01*
X163220476Y-29800057D02*
X163268095Y-29895295D01*
X163268095Y-29895295D02*
X163315714Y-30085771D01*
X163315714Y-30085771D02*
X163315714Y-30323866D01*
X163315714Y-30323866D02*
X163268095Y-30514342D01*
X163268095Y-30514342D02*
X163220476Y-30609580D01*
X163220476Y-30609580D02*
X163172857Y-30657200D01*
X163172857Y-30657200D02*
X163077619Y-30704819D01*
X163077619Y-30704819D02*
X162982381Y-30704819D01*
X162982381Y-30704819D02*
X162887143Y-30657200D01*
X162887143Y-30657200D02*
X162839524Y-30609580D01*
X162839524Y-30609580D02*
X162791905Y-30514342D01*
X162791905Y-30514342D02*
X162744286Y-30323866D01*
X162744286Y-30323866D02*
X162744286Y-30085771D01*
X162744286Y-30085771D02*
X162791905Y-29895295D01*
X162791905Y-29895295D02*
X162839524Y-29800057D01*
X162839524Y-29800057D02*
X162887143Y-29752438D01*
X162887143Y-29752438D02*
X162982381Y-29704819D01*
X164172857Y-30038152D02*
X164172857Y-30704819D01*
X163934762Y-29657200D02*
X163696667Y-30371485D01*
X163696667Y-30371485D02*
X164315714Y-30371485D01*
X180761905Y-73147200D02*
X180904762Y-73194819D01*
X180904762Y-73194819D02*
X181142857Y-73194819D01*
X181142857Y-73194819D02*
X181238095Y-73147200D01*
X181238095Y-73147200D02*
X181285714Y-73099580D01*
X181285714Y-73099580D02*
X181333333Y-73004342D01*
X181333333Y-73004342D02*
X181333333Y-72909104D01*
X181333333Y-72909104D02*
X181285714Y-72813866D01*
X181285714Y-72813866D02*
X181238095Y-72766247D01*
X181238095Y-72766247D02*
X181142857Y-72718628D01*
X181142857Y-72718628D02*
X180952381Y-72671009D01*
X180952381Y-72671009D02*
X180857143Y-72623390D01*
X180857143Y-72623390D02*
X180809524Y-72575771D01*
X180809524Y-72575771D02*
X180761905Y-72480533D01*
X180761905Y-72480533D02*
X180761905Y-72385295D01*
X180761905Y-72385295D02*
X180809524Y-72290057D01*
X180809524Y-72290057D02*
X180857143Y-72242438D01*
X180857143Y-72242438D02*
X180952381Y-72194819D01*
X180952381Y-72194819D02*
X181190476Y-72194819D01*
X181190476Y-72194819D02*
X181333333Y-72242438D01*
X181761905Y-73194819D02*
X181761905Y-72194819D01*
X181761905Y-72194819D02*
X182095238Y-72909104D01*
X182095238Y-72909104D02*
X182428571Y-72194819D01*
X182428571Y-72194819D02*
X182428571Y-73194819D01*
X182857143Y-72909104D02*
X183333333Y-72909104D01*
X182761905Y-73194819D02*
X183095238Y-72194819D01*
X183095238Y-72194819D02*
X183428571Y-73194819D01*
X183952381Y-72194819D02*
X184047619Y-72194819D01*
X184047619Y-72194819D02*
X184142857Y-72242438D01*
X184142857Y-72242438D02*
X184190476Y-72290057D01*
X184190476Y-72290057D02*
X184238095Y-72385295D01*
X184238095Y-72385295D02*
X184285714Y-72575771D01*
X184285714Y-72575771D02*
X184285714Y-72813866D01*
X184285714Y-72813866D02*
X184238095Y-73004342D01*
X184238095Y-73004342D02*
X184190476Y-73099580D01*
X184190476Y-73099580D02*
X184142857Y-73147200D01*
X184142857Y-73147200D02*
X184047619Y-73194819D01*
X184047619Y-73194819D02*
X183952381Y-73194819D01*
X183952381Y-73194819D02*
X183857143Y-73147200D01*
X183857143Y-73147200D02*
X183809524Y-73099580D01*
X183809524Y-73099580D02*
X183761905Y-73004342D01*
X183761905Y-73004342D02*
X183714286Y-72813866D01*
X183714286Y-72813866D02*
X183714286Y-72575771D01*
X183714286Y-72575771D02*
X183761905Y-72385295D01*
X183761905Y-72385295D02*
X183809524Y-72290057D01*
X183809524Y-72290057D02*
X183857143Y-72242438D01*
X183857143Y-72242438D02*
X183952381Y-72194819D01*
X184857143Y-72623390D02*
X184761905Y-72575771D01*
X184761905Y-72575771D02*
X184714286Y-72528152D01*
X184714286Y-72528152D02*
X184666667Y-72432914D01*
X184666667Y-72432914D02*
X184666667Y-72385295D01*
X184666667Y-72385295D02*
X184714286Y-72290057D01*
X184714286Y-72290057D02*
X184761905Y-72242438D01*
X184761905Y-72242438D02*
X184857143Y-72194819D01*
X184857143Y-72194819D02*
X185047619Y-72194819D01*
X185047619Y-72194819D02*
X185142857Y-72242438D01*
X185142857Y-72242438D02*
X185190476Y-72290057D01*
X185190476Y-72290057D02*
X185238095Y-72385295D01*
X185238095Y-72385295D02*
X185238095Y-72432914D01*
X185238095Y-72432914D02*
X185190476Y-72528152D01*
X185190476Y-72528152D02*
X185142857Y-72575771D01*
X185142857Y-72575771D02*
X185047619Y-72623390D01*
X185047619Y-72623390D02*
X184857143Y-72623390D01*
X184857143Y-72623390D02*
X184761905Y-72671009D01*
X184761905Y-72671009D02*
X184714286Y-72718628D01*
X184714286Y-72718628D02*
X184666667Y-72813866D01*
X184666667Y-72813866D02*
X184666667Y-73004342D01*
X184666667Y-73004342D02*
X184714286Y-73099580D01*
X184714286Y-73099580D02*
X184761905Y-73147200D01*
X184761905Y-73147200D02*
X184857143Y-73194819D01*
X184857143Y-73194819D02*
X185047619Y-73194819D01*
X185047619Y-73194819D02*
X185142857Y-73147200D01*
X185142857Y-73147200D02*
X185190476Y-73099580D01*
X185190476Y-73099580D02*
X185238095Y-73004342D01*
X185238095Y-73004342D02*
X185238095Y-72813866D01*
X185238095Y-72813866D02*
X185190476Y-72718628D01*
X185190476Y-72718628D02*
X185142857Y-72671009D01*
X185142857Y-72671009D02*
X185047619Y-72623390D01*
X78731905Y-30657200D02*
X78874762Y-30704819D01*
X78874762Y-30704819D02*
X79112857Y-30704819D01*
X79112857Y-30704819D02*
X79208095Y-30657200D01*
X79208095Y-30657200D02*
X79255714Y-30609580D01*
X79255714Y-30609580D02*
X79303333Y-30514342D01*
X79303333Y-30514342D02*
X79303333Y-30419104D01*
X79303333Y-30419104D02*
X79255714Y-30323866D01*
X79255714Y-30323866D02*
X79208095Y-30276247D01*
X79208095Y-30276247D02*
X79112857Y-30228628D01*
X79112857Y-30228628D02*
X78922381Y-30181009D01*
X78922381Y-30181009D02*
X78827143Y-30133390D01*
X78827143Y-30133390D02*
X78779524Y-30085771D01*
X78779524Y-30085771D02*
X78731905Y-29990533D01*
X78731905Y-29990533D02*
X78731905Y-29895295D01*
X78731905Y-29895295D02*
X78779524Y-29800057D01*
X78779524Y-29800057D02*
X78827143Y-29752438D01*
X78827143Y-29752438D02*
X78922381Y-29704819D01*
X78922381Y-29704819D02*
X79160476Y-29704819D01*
X79160476Y-29704819D02*
X79303333Y-29752438D01*
X79731905Y-30704819D02*
X79731905Y-29704819D01*
X79731905Y-29704819D02*
X80065238Y-30419104D01*
X80065238Y-30419104D02*
X80398571Y-29704819D01*
X80398571Y-29704819D02*
X80398571Y-30704819D01*
X80827143Y-30419104D02*
X81303333Y-30419104D01*
X80731905Y-30704819D02*
X81065238Y-29704819D01*
X81065238Y-29704819D02*
X81398571Y-30704819D01*
X81922381Y-29704819D02*
X82017619Y-29704819D01*
X82017619Y-29704819D02*
X82112857Y-29752438D01*
X82112857Y-29752438D02*
X82160476Y-29800057D01*
X82160476Y-29800057D02*
X82208095Y-29895295D01*
X82208095Y-29895295D02*
X82255714Y-30085771D01*
X82255714Y-30085771D02*
X82255714Y-30323866D01*
X82255714Y-30323866D02*
X82208095Y-30514342D01*
X82208095Y-30514342D02*
X82160476Y-30609580D01*
X82160476Y-30609580D02*
X82112857Y-30657200D01*
X82112857Y-30657200D02*
X82017619Y-30704819D01*
X82017619Y-30704819D02*
X81922381Y-30704819D01*
X81922381Y-30704819D02*
X81827143Y-30657200D01*
X81827143Y-30657200D02*
X81779524Y-30609580D01*
X81779524Y-30609580D02*
X81731905Y-30514342D01*
X81731905Y-30514342D02*
X81684286Y-30323866D01*
X81684286Y-30323866D02*
X81684286Y-30085771D01*
X81684286Y-30085771D02*
X81731905Y-29895295D01*
X81731905Y-29895295D02*
X81779524Y-29800057D01*
X81779524Y-29800057D02*
X81827143Y-29752438D01*
X81827143Y-29752438D02*
X81922381Y-29704819D01*
X83208095Y-30704819D02*
X82636667Y-30704819D01*
X82922381Y-30704819D02*
X82922381Y-29704819D01*
X82922381Y-29704819D02*
X82827143Y-29847676D01*
X82827143Y-29847676D02*
X82731905Y-29942914D01*
X82731905Y-29942914D02*
X82636667Y-29990533D01*
X117539580Y-130216666D02*
X117587200Y-130264285D01*
X117587200Y-130264285D02*
X117634819Y-130407142D01*
X117634819Y-130407142D02*
X117634819Y-130502380D01*
X117634819Y-130502380D02*
X117587200Y-130645237D01*
X117587200Y-130645237D02*
X117491961Y-130740475D01*
X117491961Y-130740475D02*
X117396723Y-130788094D01*
X117396723Y-130788094D02*
X117206247Y-130835713D01*
X117206247Y-130835713D02*
X117063390Y-130835713D01*
X117063390Y-130835713D02*
X116872914Y-130788094D01*
X116872914Y-130788094D02*
X116777676Y-130740475D01*
X116777676Y-130740475D02*
X116682438Y-130645237D01*
X116682438Y-130645237D02*
X116634819Y-130502380D01*
X116634819Y-130502380D02*
X116634819Y-130407142D01*
X116634819Y-130407142D02*
X116682438Y-130264285D01*
X116682438Y-130264285D02*
X116730057Y-130216666D01*
X117634819Y-129264285D02*
X117634819Y-129835713D01*
X117634819Y-129549999D02*
X116634819Y-129549999D01*
X116634819Y-129549999D02*
X116777676Y-129645237D01*
X116777676Y-129645237D02*
X116872914Y-129740475D01*
X116872914Y-129740475D02*
X116920533Y-129835713D01*
X105751905Y-30657200D02*
X105894762Y-30704819D01*
X105894762Y-30704819D02*
X106132857Y-30704819D01*
X106132857Y-30704819D02*
X106228095Y-30657200D01*
X106228095Y-30657200D02*
X106275714Y-30609580D01*
X106275714Y-30609580D02*
X106323333Y-30514342D01*
X106323333Y-30514342D02*
X106323333Y-30419104D01*
X106323333Y-30419104D02*
X106275714Y-30323866D01*
X106275714Y-30323866D02*
X106228095Y-30276247D01*
X106228095Y-30276247D02*
X106132857Y-30228628D01*
X106132857Y-30228628D02*
X105942381Y-30181009D01*
X105942381Y-30181009D02*
X105847143Y-30133390D01*
X105847143Y-30133390D02*
X105799524Y-30085771D01*
X105799524Y-30085771D02*
X105751905Y-29990533D01*
X105751905Y-29990533D02*
X105751905Y-29895295D01*
X105751905Y-29895295D02*
X105799524Y-29800057D01*
X105799524Y-29800057D02*
X105847143Y-29752438D01*
X105847143Y-29752438D02*
X105942381Y-29704819D01*
X105942381Y-29704819D02*
X106180476Y-29704819D01*
X106180476Y-29704819D02*
X106323333Y-29752438D01*
X106751905Y-30704819D02*
X106751905Y-29704819D01*
X106751905Y-29704819D02*
X107085238Y-30419104D01*
X107085238Y-30419104D02*
X107418571Y-29704819D01*
X107418571Y-29704819D02*
X107418571Y-30704819D01*
X107847143Y-30419104D02*
X108323333Y-30419104D01*
X107751905Y-30704819D02*
X108085238Y-29704819D01*
X108085238Y-29704819D02*
X108418571Y-30704819D01*
X108942381Y-29704819D02*
X109037619Y-29704819D01*
X109037619Y-29704819D02*
X109132857Y-29752438D01*
X109132857Y-29752438D02*
X109180476Y-29800057D01*
X109180476Y-29800057D02*
X109228095Y-29895295D01*
X109228095Y-29895295D02*
X109275714Y-30085771D01*
X109275714Y-30085771D02*
X109275714Y-30323866D01*
X109275714Y-30323866D02*
X109228095Y-30514342D01*
X109228095Y-30514342D02*
X109180476Y-30609580D01*
X109180476Y-30609580D02*
X109132857Y-30657200D01*
X109132857Y-30657200D02*
X109037619Y-30704819D01*
X109037619Y-30704819D02*
X108942381Y-30704819D01*
X108942381Y-30704819D02*
X108847143Y-30657200D01*
X108847143Y-30657200D02*
X108799524Y-30609580D01*
X108799524Y-30609580D02*
X108751905Y-30514342D01*
X108751905Y-30514342D02*
X108704286Y-30323866D01*
X108704286Y-30323866D02*
X108704286Y-30085771D01*
X108704286Y-30085771D02*
X108751905Y-29895295D01*
X108751905Y-29895295D02*
X108799524Y-29800057D01*
X108799524Y-29800057D02*
X108847143Y-29752438D01*
X108847143Y-29752438D02*
X108942381Y-29704819D01*
X109656667Y-29800057D02*
X109704286Y-29752438D01*
X109704286Y-29752438D02*
X109799524Y-29704819D01*
X109799524Y-29704819D02*
X110037619Y-29704819D01*
X110037619Y-29704819D02*
X110132857Y-29752438D01*
X110132857Y-29752438D02*
X110180476Y-29800057D01*
X110180476Y-29800057D02*
X110228095Y-29895295D01*
X110228095Y-29895295D02*
X110228095Y-29990533D01*
X110228095Y-29990533D02*
X110180476Y-30133390D01*
X110180476Y-30133390D02*
X109609048Y-30704819D01*
X109609048Y-30704819D02*
X110228095Y-30704819D01*
X57761905Y-121187200D02*
X57904762Y-121234819D01*
X57904762Y-121234819D02*
X58142857Y-121234819D01*
X58142857Y-121234819D02*
X58238095Y-121187200D01*
X58238095Y-121187200D02*
X58285714Y-121139580D01*
X58285714Y-121139580D02*
X58333333Y-121044342D01*
X58333333Y-121044342D02*
X58333333Y-120949104D01*
X58333333Y-120949104D02*
X58285714Y-120853866D01*
X58285714Y-120853866D02*
X58238095Y-120806247D01*
X58238095Y-120806247D02*
X58142857Y-120758628D01*
X58142857Y-120758628D02*
X57952381Y-120711009D01*
X57952381Y-120711009D02*
X57857143Y-120663390D01*
X57857143Y-120663390D02*
X57809524Y-120615771D01*
X57809524Y-120615771D02*
X57761905Y-120520533D01*
X57761905Y-120520533D02*
X57761905Y-120425295D01*
X57761905Y-120425295D02*
X57809524Y-120330057D01*
X57809524Y-120330057D02*
X57857143Y-120282438D01*
X57857143Y-120282438D02*
X57952381Y-120234819D01*
X57952381Y-120234819D02*
X58190476Y-120234819D01*
X58190476Y-120234819D02*
X58333333Y-120282438D01*
X58761905Y-121234819D02*
X58761905Y-120234819D01*
X58761905Y-120234819D02*
X59095238Y-120949104D01*
X59095238Y-120949104D02*
X59428571Y-120234819D01*
X59428571Y-120234819D02*
X59428571Y-121234819D01*
X59857143Y-120949104D02*
X60333333Y-120949104D01*
X59761905Y-121234819D02*
X60095238Y-120234819D01*
X60095238Y-120234819D02*
X60428571Y-121234819D01*
X61285714Y-121234819D02*
X60714286Y-121234819D01*
X61000000Y-121234819D02*
X61000000Y-120234819D01*
X61000000Y-120234819D02*
X60904762Y-120377676D01*
X60904762Y-120377676D02*
X60809524Y-120472914D01*
X60809524Y-120472914D02*
X60714286Y-120520533D01*
X61904762Y-120234819D02*
X62000000Y-120234819D01*
X62000000Y-120234819D02*
X62095238Y-120282438D01*
X62095238Y-120282438D02*
X62142857Y-120330057D01*
X62142857Y-120330057D02*
X62190476Y-120425295D01*
X62190476Y-120425295D02*
X62238095Y-120615771D01*
X62238095Y-120615771D02*
X62238095Y-120853866D01*
X62238095Y-120853866D02*
X62190476Y-121044342D01*
X62190476Y-121044342D02*
X62142857Y-121139580D01*
X62142857Y-121139580D02*
X62095238Y-121187200D01*
X62095238Y-121187200D02*
X62000000Y-121234819D01*
X62000000Y-121234819D02*
X61904762Y-121234819D01*
X61904762Y-121234819D02*
X61809524Y-121187200D01*
X61809524Y-121187200D02*
X61761905Y-121139580D01*
X61761905Y-121139580D02*
X61714286Y-121044342D01*
X61714286Y-121044342D02*
X61666667Y-120853866D01*
X61666667Y-120853866D02*
X61666667Y-120615771D01*
X61666667Y-120615771D02*
X61714286Y-120425295D01*
X61714286Y-120425295D02*
X61761905Y-120330057D01*
X61761905Y-120330057D02*
X61809524Y-120282438D01*
X61809524Y-120282438D02*
X61904762Y-120234819D01*
X180761905Y-121187200D02*
X180904762Y-121234819D01*
X180904762Y-121234819D02*
X181142857Y-121234819D01*
X181142857Y-121234819D02*
X181238095Y-121187200D01*
X181238095Y-121187200D02*
X181285714Y-121139580D01*
X181285714Y-121139580D02*
X181333333Y-121044342D01*
X181333333Y-121044342D02*
X181333333Y-120949104D01*
X181333333Y-120949104D02*
X181285714Y-120853866D01*
X181285714Y-120853866D02*
X181238095Y-120806247D01*
X181238095Y-120806247D02*
X181142857Y-120758628D01*
X181142857Y-120758628D02*
X180952381Y-120711009D01*
X180952381Y-120711009D02*
X180857143Y-120663390D01*
X180857143Y-120663390D02*
X180809524Y-120615771D01*
X180809524Y-120615771D02*
X180761905Y-120520533D01*
X180761905Y-120520533D02*
X180761905Y-120425295D01*
X180761905Y-120425295D02*
X180809524Y-120330057D01*
X180809524Y-120330057D02*
X180857143Y-120282438D01*
X180857143Y-120282438D02*
X180952381Y-120234819D01*
X180952381Y-120234819D02*
X181190476Y-120234819D01*
X181190476Y-120234819D02*
X181333333Y-120282438D01*
X181761905Y-121234819D02*
X181761905Y-120234819D01*
X181761905Y-120234819D02*
X182095238Y-120949104D01*
X182095238Y-120949104D02*
X182428571Y-120234819D01*
X182428571Y-120234819D02*
X182428571Y-121234819D01*
X182857143Y-120949104D02*
X183333333Y-120949104D01*
X182761905Y-121234819D02*
X183095238Y-120234819D01*
X183095238Y-120234819D02*
X183428571Y-121234819D01*
X184285714Y-121234819D02*
X183714286Y-121234819D01*
X184000000Y-121234819D02*
X184000000Y-120234819D01*
X184000000Y-120234819D02*
X183904762Y-120377676D01*
X183904762Y-120377676D02*
X183809524Y-120472914D01*
X183809524Y-120472914D02*
X183714286Y-120520533D01*
X184666667Y-120330057D02*
X184714286Y-120282438D01*
X184714286Y-120282438D02*
X184809524Y-120234819D01*
X184809524Y-120234819D02*
X185047619Y-120234819D01*
X185047619Y-120234819D02*
X185142857Y-120282438D01*
X185142857Y-120282438D02*
X185190476Y-120330057D01*
X185190476Y-120330057D02*
X185238095Y-120425295D01*
X185238095Y-120425295D02*
X185238095Y-120520533D01*
X185238095Y-120520533D02*
X185190476Y-120663390D01*
X185190476Y-120663390D02*
X184619048Y-121234819D01*
X184619048Y-121234819D02*
X185238095Y-121234819D01*
X112519580Y-129686666D02*
X112567200Y-129734285D01*
X112567200Y-129734285D02*
X112614819Y-129877142D01*
X112614819Y-129877142D02*
X112614819Y-129972380D01*
X112614819Y-129972380D02*
X112567200Y-130115237D01*
X112567200Y-130115237D02*
X112471961Y-130210475D01*
X112471961Y-130210475D02*
X112376723Y-130258094D01*
X112376723Y-130258094D02*
X112186247Y-130305713D01*
X112186247Y-130305713D02*
X112043390Y-130305713D01*
X112043390Y-130305713D02*
X111852914Y-130258094D01*
X111852914Y-130258094D02*
X111757676Y-130210475D01*
X111757676Y-130210475D02*
X111662438Y-130115237D01*
X111662438Y-130115237D02*
X111614819Y-129972380D01*
X111614819Y-129972380D02*
X111614819Y-129877142D01*
X111614819Y-129877142D02*
X111662438Y-129734285D01*
X111662438Y-129734285D02*
X111710057Y-129686666D01*
X111710057Y-129305713D02*
X111662438Y-129258094D01*
X111662438Y-129258094D02*
X111614819Y-129162856D01*
X111614819Y-129162856D02*
X111614819Y-128924761D01*
X111614819Y-128924761D02*
X111662438Y-128829523D01*
X111662438Y-128829523D02*
X111710057Y-128781904D01*
X111710057Y-128781904D02*
X111805295Y-128734285D01*
X111805295Y-128734285D02*
X111900533Y-128734285D01*
X111900533Y-128734285D02*
X112043390Y-128781904D01*
X112043390Y-128781904D02*
X112614819Y-129353332D01*
X112614819Y-129353332D02*
X112614819Y-128734285D01*
X120988095Y-127154819D02*
X120988095Y-127964342D01*
X120988095Y-127964342D02*
X121035714Y-128059580D01*
X121035714Y-128059580D02*
X121083333Y-128107200D01*
X121083333Y-128107200D02*
X121178571Y-128154819D01*
X121178571Y-128154819D02*
X121369047Y-128154819D01*
X121369047Y-128154819D02*
X121464285Y-128107200D01*
X121464285Y-128107200D02*
X121511904Y-128059580D01*
X121511904Y-128059580D02*
X121559523Y-127964342D01*
X121559523Y-127964342D02*
X121559523Y-127154819D01*
X122559523Y-128154819D02*
X121988095Y-128154819D01*
X122273809Y-128154819D02*
X122273809Y-127154819D01*
X122273809Y-127154819D02*
X122178571Y-127297676D01*
X122178571Y-127297676D02*
X122083333Y-127392914D01*
X122083333Y-127392914D02*
X121988095Y-127440533D01*
X57761905Y-49127200D02*
X57904762Y-49174819D01*
X57904762Y-49174819D02*
X58142857Y-49174819D01*
X58142857Y-49174819D02*
X58238095Y-49127200D01*
X58238095Y-49127200D02*
X58285714Y-49079580D01*
X58285714Y-49079580D02*
X58333333Y-48984342D01*
X58333333Y-48984342D02*
X58333333Y-48889104D01*
X58333333Y-48889104D02*
X58285714Y-48793866D01*
X58285714Y-48793866D02*
X58238095Y-48746247D01*
X58238095Y-48746247D02*
X58142857Y-48698628D01*
X58142857Y-48698628D02*
X57952381Y-48651009D01*
X57952381Y-48651009D02*
X57857143Y-48603390D01*
X57857143Y-48603390D02*
X57809524Y-48555771D01*
X57809524Y-48555771D02*
X57761905Y-48460533D01*
X57761905Y-48460533D02*
X57761905Y-48365295D01*
X57761905Y-48365295D02*
X57809524Y-48270057D01*
X57809524Y-48270057D02*
X57857143Y-48222438D01*
X57857143Y-48222438D02*
X57952381Y-48174819D01*
X57952381Y-48174819D02*
X58190476Y-48174819D01*
X58190476Y-48174819D02*
X58333333Y-48222438D01*
X58761905Y-49174819D02*
X58761905Y-48174819D01*
X58761905Y-48174819D02*
X59095238Y-48889104D01*
X59095238Y-48889104D02*
X59428571Y-48174819D01*
X59428571Y-48174819D02*
X59428571Y-49174819D01*
X59857143Y-48889104D02*
X60333333Y-48889104D01*
X59761905Y-49174819D02*
X60095238Y-48174819D01*
X60095238Y-48174819D02*
X60428571Y-49174819D01*
X60952381Y-48174819D02*
X61047619Y-48174819D01*
X61047619Y-48174819D02*
X61142857Y-48222438D01*
X61142857Y-48222438D02*
X61190476Y-48270057D01*
X61190476Y-48270057D02*
X61238095Y-48365295D01*
X61238095Y-48365295D02*
X61285714Y-48555771D01*
X61285714Y-48555771D02*
X61285714Y-48793866D01*
X61285714Y-48793866D02*
X61238095Y-48984342D01*
X61238095Y-48984342D02*
X61190476Y-49079580D01*
X61190476Y-49079580D02*
X61142857Y-49127200D01*
X61142857Y-49127200D02*
X61047619Y-49174819D01*
X61047619Y-49174819D02*
X60952381Y-49174819D01*
X60952381Y-49174819D02*
X60857143Y-49127200D01*
X60857143Y-49127200D02*
X60809524Y-49079580D01*
X60809524Y-49079580D02*
X60761905Y-48984342D01*
X60761905Y-48984342D02*
X60714286Y-48793866D01*
X60714286Y-48793866D02*
X60714286Y-48555771D01*
X60714286Y-48555771D02*
X60761905Y-48365295D01*
X60761905Y-48365295D02*
X60809524Y-48270057D01*
X60809524Y-48270057D02*
X60857143Y-48222438D01*
X60857143Y-48222438D02*
X60952381Y-48174819D01*
X62190476Y-48174819D02*
X61714286Y-48174819D01*
X61714286Y-48174819D02*
X61666667Y-48651009D01*
X61666667Y-48651009D02*
X61714286Y-48603390D01*
X61714286Y-48603390D02*
X61809524Y-48555771D01*
X61809524Y-48555771D02*
X62047619Y-48555771D01*
X62047619Y-48555771D02*
X62142857Y-48603390D01*
X62142857Y-48603390D02*
X62190476Y-48651009D01*
X62190476Y-48651009D02*
X62238095Y-48746247D01*
X62238095Y-48746247D02*
X62238095Y-48984342D01*
X62238095Y-48984342D02*
X62190476Y-49079580D01*
X62190476Y-49079580D02*
X62142857Y-49127200D01*
X62142857Y-49127200D02*
X62047619Y-49174819D01*
X62047619Y-49174819D02*
X61809524Y-49174819D01*
X61809524Y-49174819D02*
X61714286Y-49127200D01*
X61714286Y-49127200D02*
X61666667Y-49079580D01*
X120690476Y-137954819D02*
X120690476Y-138669104D01*
X120690476Y-138669104D02*
X120642857Y-138811961D01*
X120642857Y-138811961D02*
X120547619Y-138907200D01*
X120547619Y-138907200D02*
X120404762Y-138954819D01*
X120404762Y-138954819D02*
X120309524Y-138954819D01*
X121690476Y-138954819D02*
X121119048Y-138954819D01*
X121404762Y-138954819D02*
X121404762Y-137954819D01*
X121404762Y-137954819D02*
X121309524Y-138097676D01*
X121309524Y-138097676D02*
X121214286Y-138192914D01*
X121214286Y-138192914D02*
X121119048Y-138240533D01*
X122023810Y-137954819D02*
X122642857Y-137954819D01*
X122642857Y-137954819D02*
X122309524Y-138335771D01*
X122309524Y-138335771D02*
X122452381Y-138335771D01*
X122452381Y-138335771D02*
X122547619Y-138383390D01*
X122547619Y-138383390D02*
X122595238Y-138431009D01*
X122595238Y-138431009D02*
X122642857Y-138526247D01*
X122642857Y-138526247D02*
X122642857Y-138764342D01*
X122642857Y-138764342D02*
X122595238Y-138859580D01*
X122595238Y-138859580D02*
X122547619Y-138907200D01*
X122547619Y-138907200D02*
X122452381Y-138954819D01*
X122452381Y-138954819D02*
X122166667Y-138954819D01*
X122166667Y-138954819D02*
X122071429Y-138907200D01*
X122071429Y-138907200D02*
X122023810Y-138859580D01*
X180761905Y-49127200D02*
X180904762Y-49174819D01*
X180904762Y-49174819D02*
X181142857Y-49174819D01*
X181142857Y-49174819D02*
X181238095Y-49127200D01*
X181238095Y-49127200D02*
X181285714Y-49079580D01*
X181285714Y-49079580D02*
X181333333Y-48984342D01*
X181333333Y-48984342D02*
X181333333Y-48889104D01*
X181333333Y-48889104D02*
X181285714Y-48793866D01*
X181285714Y-48793866D02*
X181238095Y-48746247D01*
X181238095Y-48746247D02*
X181142857Y-48698628D01*
X181142857Y-48698628D02*
X180952381Y-48651009D01*
X180952381Y-48651009D02*
X180857143Y-48603390D01*
X180857143Y-48603390D02*
X180809524Y-48555771D01*
X180809524Y-48555771D02*
X180761905Y-48460533D01*
X180761905Y-48460533D02*
X180761905Y-48365295D01*
X180761905Y-48365295D02*
X180809524Y-48270057D01*
X180809524Y-48270057D02*
X180857143Y-48222438D01*
X180857143Y-48222438D02*
X180952381Y-48174819D01*
X180952381Y-48174819D02*
X181190476Y-48174819D01*
X181190476Y-48174819D02*
X181333333Y-48222438D01*
X181761905Y-49174819D02*
X181761905Y-48174819D01*
X181761905Y-48174819D02*
X182095238Y-48889104D01*
X182095238Y-48889104D02*
X182428571Y-48174819D01*
X182428571Y-48174819D02*
X182428571Y-49174819D01*
X182857143Y-48889104D02*
X183333333Y-48889104D01*
X182761905Y-49174819D02*
X183095238Y-48174819D01*
X183095238Y-48174819D02*
X183428571Y-49174819D01*
X183952381Y-48174819D02*
X184047619Y-48174819D01*
X184047619Y-48174819D02*
X184142857Y-48222438D01*
X184142857Y-48222438D02*
X184190476Y-48270057D01*
X184190476Y-48270057D02*
X184238095Y-48365295D01*
X184238095Y-48365295D02*
X184285714Y-48555771D01*
X184285714Y-48555771D02*
X184285714Y-48793866D01*
X184285714Y-48793866D02*
X184238095Y-48984342D01*
X184238095Y-48984342D02*
X184190476Y-49079580D01*
X184190476Y-49079580D02*
X184142857Y-49127200D01*
X184142857Y-49127200D02*
X184047619Y-49174819D01*
X184047619Y-49174819D02*
X183952381Y-49174819D01*
X183952381Y-49174819D02*
X183857143Y-49127200D01*
X183857143Y-49127200D02*
X183809524Y-49079580D01*
X183809524Y-49079580D02*
X183761905Y-48984342D01*
X183761905Y-48984342D02*
X183714286Y-48793866D01*
X183714286Y-48793866D02*
X183714286Y-48555771D01*
X183714286Y-48555771D02*
X183761905Y-48365295D01*
X183761905Y-48365295D02*
X183809524Y-48270057D01*
X183809524Y-48270057D02*
X183857143Y-48222438D01*
X183857143Y-48222438D02*
X183952381Y-48174819D01*
X184619048Y-48174819D02*
X185285714Y-48174819D01*
X185285714Y-48174819D02*
X184857143Y-49174819D01*
X180761905Y-97167200D02*
X180904762Y-97214819D01*
X180904762Y-97214819D02*
X181142857Y-97214819D01*
X181142857Y-97214819D02*
X181238095Y-97167200D01*
X181238095Y-97167200D02*
X181285714Y-97119580D01*
X181285714Y-97119580D02*
X181333333Y-97024342D01*
X181333333Y-97024342D02*
X181333333Y-96929104D01*
X181333333Y-96929104D02*
X181285714Y-96833866D01*
X181285714Y-96833866D02*
X181238095Y-96786247D01*
X181238095Y-96786247D02*
X181142857Y-96738628D01*
X181142857Y-96738628D02*
X180952381Y-96691009D01*
X180952381Y-96691009D02*
X180857143Y-96643390D01*
X180857143Y-96643390D02*
X180809524Y-96595771D01*
X180809524Y-96595771D02*
X180761905Y-96500533D01*
X180761905Y-96500533D02*
X180761905Y-96405295D01*
X180761905Y-96405295D02*
X180809524Y-96310057D01*
X180809524Y-96310057D02*
X180857143Y-96262438D01*
X180857143Y-96262438D02*
X180952381Y-96214819D01*
X180952381Y-96214819D02*
X181190476Y-96214819D01*
X181190476Y-96214819D02*
X181333333Y-96262438D01*
X181761905Y-97214819D02*
X181761905Y-96214819D01*
X181761905Y-96214819D02*
X182095238Y-96929104D01*
X182095238Y-96929104D02*
X182428571Y-96214819D01*
X182428571Y-96214819D02*
X182428571Y-97214819D01*
X182857143Y-96929104D02*
X183333333Y-96929104D01*
X182761905Y-97214819D02*
X183095238Y-96214819D01*
X183095238Y-96214819D02*
X183428571Y-97214819D01*
X184285714Y-97214819D02*
X183714286Y-97214819D01*
X184000000Y-97214819D02*
X184000000Y-96214819D01*
X184000000Y-96214819D02*
X183904762Y-96357676D01*
X183904762Y-96357676D02*
X183809524Y-96452914D01*
X183809524Y-96452914D02*
X183714286Y-96500533D01*
X185238095Y-97214819D02*
X184666667Y-97214819D01*
X184952381Y-97214819D02*
X184952381Y-96214819D01*
X184952381Y-96214819D02*
X184857143Y-96357676D01*
X184857143Y-96357676D02*
X184761905Y-96452914D01*
X184761905Y-96452914D02*
X184666667Y-96500533D01*
X57761905Y-97167200D02*
X57904762Y-97214819D01*
X57904762Y-97214819D02*
X58142857Y-97214819D01*
X58142857Y-97214819D02*
X58238095Y-97167200D01*
X58238095Y-97167200D02*
X58285714Y-97119580D01*
X58285714Y-97119580D02*
X58333333Y-97024342D01*
X58333333Y-97024342D02*
X58333333Y-96929104D01*
X58333333Y-96929104D02*
X58285714Y-96833866D01*
X58285714Y-96833866D02*
X58238095Y-96786247D01*
X58238095Y-96786247D02*
X58142857Y-96738628D01*
X58142857Y-96738628D02*
X57952381Y-96691009D01*
X57952381Y-96691009D02*
X57857143Y-96643390D01*
X57857143Y-96643390D02*
X57809524Y-96595771D01*
X57809524Y-96595771D02*
X57761905Y-96500533D01*
X57761905Y-96500533D02*
X57761905Y-96405295D01*
X57761905Y-96405295D02*
X57809524Y-96310057D01*
X57809524Y-96310057D02*
X57857143Y-96262438D01*
X57857143Y-96262438D02*
X57952381Y-96214819D01*
X57952381Y-96214819D02*
X58190476Y-96214819D01*
X58190476Y-96214819D02*
X58333333Y-96262438D01*
X58761905Y-97214819D02*
X58761905Y-96214819D01*
X58761905Y-96214819D02*
X59095238Y-96929104D01*
X59095238Y-96929104D02*
X59428571Y-96214819D01*
X59428571Y-96214819D02*
X59428571Y-97214819D01*
X59857143Y-96929104D02*
X60333333Y-96929104D01*
X59761905Y-97214819D02*
X60095238Y-96214819D01*
X60095238Y-96214819D02*
X60428571Y-97214819D01*
X60952381Y-96214819D02*
X61047619Y-96214819D01*
X61047619Y-96214819D02*
X61142857Y-96262438D01*
X61142857Y-96262438D02*
X61190476Y-96310057D01*
X61190476Y-96310057D02*
X61238095Y-96405295D01*
X61238095Y-96405295D02*
X61285714Y-96595771D01*
X61285714Y-96595771D02*
X61285714Y-96833866D01*
X61285714Y-96833866D02*
X61238095Y-97024342D01*
X61238095Y-97024342D02*
X61190476Y-97119580D01*
X61190476Y-97119580D02*
X61142857Y-97167200D01*
X61142857Y-97167200D02*
X61047619Y-97214819D01*
X61047619Y-97214819D02*
X60952381Y-97214819D01*
X60952381Y-97214819D02*
X60857143Y-97167200D01*
X60857143Y-97167200D02*
X60809524Y-97119580D01*
X60809524Y-97119580D02*
X60761905Y-97024342D01*
X60761905Y-97024342D02*
X60714286Y-96833866D01*
X60714286Y-96833866D02*
X60714286Y-96595771D01*
X60714286Y-96595771D02*
X60761905Y-96405295D01*
X60761905Y-96405295D02*
X60809524Y-96310057D01*
X60809524Y-96310057D02*
X60857143Y-96262438D01*
X60857143Y-96262438D02*
X60952381Y-96214819D01*
X61761905Y-97214819D02*
X61952381Y-97214819D01*
X61952381Y-97214819D02*
X62047619Y-97167200D01*
X62047619Y-97167200D02*
X62095238Y-97119580D01*
X62095238Y-97119580D02*
X62190476Y-96976723D01*
X62190476Y-96976723D02*
X62238095Y-96786247D01*
X62238095Y-96786247D02*
X62238095Y-96405295D01*
X62238095Y-96405295D02*
X62190476Y-96310057D01*
X62190476Y-96310057D02*
X62142857Y-96262438D01*
X62142857Y-96262438D02*
X62047619Y-96214819D01*
X62047619Y-96214819D02*
X61857143Y-96214819D01*
X61857143Y-96214819D02*
X61761905Y-96262438D01*
X61761905Y-96262438D02*
X61714286Y-96310057D01*
X61714286Y-96310057D02*
X61666667Y-96405295D01*
X61666667Y-96405295D02*
X61666667Y-96643390D01*
X61666667Y-96643390D02*
X61714286Y-96738628D01*
X61714286Y-96738628D02*
X61761905Y-96786247D01*
X61761905Y-96786247D02*
X61857143Y-96833866D01*
X61857143Y-96833866D02*
X62047619Y-96833866D01*
X62047619Y-96833866D02*
X62142857Y-96786247D01*
X62142857Y-96786247D02*
X62190476Y-96738628D01*
X62190476Y-96738628D02*
X62238095Y-96643390D01*
X57761905Y-73147200D02*
X57904762Y-73194819D01*
X57904762Y-73194819D02*
X58142857Y-73194819D01*
X58142857Y-73194819D02*
X58238095Y-73147200D01*
X58238095Y-73147200D02*
X58285714Y-73099580D01*
X58285714Y-73099580D02*
X58333333Y-73004342D01*
X58333333Y-73004342D02*
X58333333Y-72909104D01*
X58333333Y-72909104D02*
X58285714Y-72813866D01*
X58285714Y-72813866D02*
X58238095Y-72766247D01*
X58238095Y-72766247D02*
X58142857Y-72718628D01*
X58142857Y-72718628D02*
X57952381Y-72671009D01*
X57952381Y-72671009D02*
X57857143Y-72623390D01*
X57857143Y-72623390D02*
X57809524Y-72575771D01*
X57809524Y-72575771D02*
X57761905Y-72480533D01*
X57761905Y-72480533D02*
X57761905Y-72385295D01*
X57761905Y-72385295D02*
X57809524Y-72290057D01*
X57809524Y-72290057D02*
X57857143Y-72242438D01*
X57857143Y-72242438D02*
X57952381Y-72194819D01*
X57952381Y-72194819D02*
X58190476Y-72194819D01*
X58190476Y-72194819D02*
X58333333Y-72242438D01*
X58761905Y-73194819D02*
X58761905Y-72194819D01*
X58761905Y-72194819D02*
X59095238Y-72909104D01*
X59095238Y-72909104D02*
X59428571Y-72194819D01*
X59428571Y-72194819D02*
X59428571Y-73194819D01*
X59857143Y-72909104D02*
X60333333Y-72909104D01*
X59761905Y-73194819D02*
X60095238Y-72194819D01*
X60095238Y-72194819D02*
X60428571Y-73194819D01*
X60952381Y-72194819D02*
X61047619Y-72194819D01*
X61047619Y-72194819D02*
X61142857Y-72242438D01*
X61142857Y-72242438D02*
X61190476Y-72290057D01*
X61190476Y-72290057D02*
X61238095Y-72385295D01*
X61238095Y-72385295D02*
X61285714Y-72575771D01*
X61285714Y-72575771D02*
X61285714Y-72813866D01*
X61285714Y-72813866D02*
X61238095Y-73004342D01*
X61238095Y-73004342D02*
X61190476Y-73099580D01*
X61190476Y-73099580D02*
X61142857Y-73147200D01*
X61142857Y-73147200D02*
X61047619Y-73194819D01*
X61047619Y-73194819D02*
X60952381Y-73194819D01*
X60952381Y-73194819D02*
X60857143Y-73147200D01*
X60857143Y-73147200D02*
X60809524Y-73099580D01*
X60809524Y-73099580D02*
X60761905Y-73004342D01*
X60761905Y-73004342D02*
X60714286Y-72813866D01*
X60714286Y-72813866D02*
X60714286Y-72575771D01*
X60714286Y-72575771D02*
X60761905Y-72385295D01*
X60761905Y-72385295D02*
X60809524Y-72290057D01*
X60809524Y-72290057D02*
X60857143Y-72242438D01*
X60857143Y-72242438D02*
X60952381Y-72194819D01*
X62142857Y-72194819D02*
X61952381Y-72194819D01*
X61952381Y-72194819D02*
X61857143Y-72242438D01*
X61857143Y-72242438D02*
X61809524Y-72290057D01*
X61809524Y-72290057D02*
X61714286Y-72432914D01*
X61714286Y-72432914D02*
X61666667Y-72623390D01*
X61666667Y-72623390D02*
X61666667Y-73004342D01*
X61666667Y-73004342D02*
X61714286Y-73099580D01*
X61714286Y-73099580D02*
X61761905Y-73147200D01*
X61761905Y-73147200D02*
X61857143Y-73194819D01*
X61857143Y-73194819D02*
X62047619Y-73194819D01*
X62047619Y-73194819D02*
X62142857Y-73147200D01*
X62142857Y-73147200D02*
X62190476Y-73099580D01*
X62190476Y-73099580D02*
X62238095Y-73004342D01*
X62238095Y-73004342D02*
X62238095Y-72766247D01*
X62238095Y-72766247D02*
X62190476Y-72671009D01*
X62190476Y-72671009D02*
X62142857Y-72623390D01*
X62142857Y-72623390D02*
X62047619Y-72575771D01*
X62047619Y-72575771D02*
X61857143Y-72575771D01*
X61857143Y-72575771D02*
X61761905Y-72623390D01*
X61761905Y-72623390D02*
X61714286Y-72671009D01*
X61714286Y-72671009D02*
X61666667Y-72766247D01*
X132771905Y-30657200D02*
X132914762Y-30704819D01*
X132914762Y-30704819D02*
X133152857Y-30704819D01*
X133152857Y-30704819D02*
X133248095Y-30657200D01*
X133248095Y-30657200D02*
X133295714Y-30609580D01*
X133295714Y-30609580D02*
X133343333Y-30514342D01*
X133343333Y-30514342D02*
X133343333Y-30419104D01*
X133343333Y-30419104D02*
X133295714Y-30323866D01*
X133295714Y-30323866D02*
X133248095Y-30276247D01*
X133248095Y-30276247D02*
X133152857Y-30228628D01*
X133152857Y-30228628D02*
X132962381Y-30181009D01*
X132962381Y-30181009D02*
X132867143Y-30133390D01*
X132867143Y-30133390D02*
X132819524Y-30085771D01*
X132819524Y-30085771D02*
X132771905Y-29990533D01*
X132771905Y-29990533D02*
X132771905Y-29895295D01*
X132771905Y-29895295D02*
X132819524Y-29800057D01*
X132819524Y-29800057D02*
X132867143Y-29752438D01*
X132867143Y-29752438D02*
X132962381Y-29704819D01*
X132962381Y-29704819D02*
X133200476Y-29704819D01*
X133200476Y-29704819D02*
X133343333Y-29752438D01*
X133771905Y-30704819D02*
X133771905Y-29704819D01*
X133771905Y-29704819D02*
X134105238Y-30419104D01*
X134105238Y-30419104D02*
X134438571Y-29704819D01*
X134438571Y-29704819D02*
X134438571Y-30704819D01*
X134867143Y-30419104D02*
X135343333Y-30419104D01*
X134771905Y-30704819D02*
X135105238Y-29704819D01*
X135105238Y-29704819D02*
X135438571Y-30704819D01*
X135962381Y-29704819D02*
X136057619Y-29704819D01*
X136057619Y-29704819D02*
X136152857Y-29752438D01*
X136152857Y-29752438D02*
X136200476Y-29800057D01*
X136200476Y-29800057D02*
X136248095Y-29895295D01*
X136248095Y-29895295D02*
X136295714Y-30085771D01*
X136295714Y-30085771D02*
X136295714Y-30323866D01*
X136295714Y-30323866D02*
X136248095Y-30514342D01*
X136248095Y-30514342D02*
X136200476Y-30609580D01*
X136200476Y-30609580D02*
X136152857Y-30657200D01*
X136152857Y-30657200D02*
X136057619Y-30704819D01*
X136057619Y-30704819D02*
X135962381Y-30704819D01*
X135962381Y-30704819D02*
X135867143Y-30657200D01*
X135867143Y-30657200D02*
X135819524Y-30609580D01*
X135819524Y-30609580D02*
X135771905Y-30514342D01*
X135771905Y-30514342D02*
X135724286Y-30323866D01*
X135724286Y-30323866D02*
X135724286Y-30085771D01*
X135724286Y-30085771D02*
X135771905Y-29895295D01*
X135771905Y-29895295D02*
X135819524Y-29800057D01*
X135819524Y-29800057D02*
X135867143Y-29752438D01*
X135867143Y-29752438D02*
X135962381Y-29704819D01*
X136629048Y-29704819D02*
X137248095Y-29704819D01*
X137248095Y-29704819D02*
X136914762Y-30085771D01*
X136914762Y-30085771D02*
X137057619Y-30085771D01*
X137057619Y-30085771D02*
X137152857Y-30133390D01*
X137152857Y-30133390D02*
X137200476Y-30181009D01*
X137200476Y-30181009D02*
X137248095Y-30276247D01*
X137248095Y-30276247D02*
X137248095Y-30514342D01*
X137248095Y-30514342D02*
X137200476Y-30609580D01*
X137200476Y-30609580D02*
X137152857Y-30657200D01*
X137152857Y-30657200D02*
X137057619Y-30704819D01*
X137057619Y-30704819D02*
X136771905Y-30704819D01*
X136771905Y-30704819D02*
X136676667Y-30657200D01*
X136676667Y-30657200D02*
X136629048Y-30609580D01*
%TO.C,SMA04*%
D12*
X158420000Y-33340000D02*
X158420000Y-36660000D01*
X160370000Y-31390000D02*
X163690000Y-31390000D01*
X160370000Y-38610000D02*
X163690000Y-38610000D01*
X165640000Y-33340000D02*
X165640000Y-36660000D01*
%TO.C,SMA08*%
X179390000Y-75830000D02*
X179390000Y-79150000D01*
X181340000Y-73880000D02*
X184660000Y-73880000D01*
X181340000Y-81100000D02*
X184660000Y-81100000D01*
X186610000Y-75830000D02*
X186610000Y-79150000D01*
%TO.C,SMA01*%
X77360000Y-33340000D02*
X77360000Y-36660000D01*
X79310000Y-31390000D02*
X82630000Y-31390000D01*
X79310000Y-38610000D02*
X82630000Y-38610000D01*
X84580000Y-33340000D02*
X84580000Y-36660000D01*
%TO.C,C1*%
X114765000Y-129788748D02*
X114765000Y-130311252D01*
X116235000Y-129788748D02*
X116235000Y-130311252D01*
%TO.C,SMA02*%
X104380000Y-33340000D02*
X104380000Y-36660000D01*
X106330000Y-31390000D02*
X109650000Y-31390000D01*
X106330000Y-38610000D02*
X109650000Y-38610000D01*
X111600000Y-33340000D02*
X111600000Y-36660000D01*
%TO.C,SMA10*%
X56390000Y-123870000D02*
X56390000Y-127190000D01*
X58340000Y-121920000D02*
X61660000Y-121920000D01*
X58340000Y-129140000D02*
X61660000Y-129140000D01*
X63610000Y-123870000D02*
X63610000Y-127190000D01*
%TO.C,SMA12*%
X179390000Y-123870000D02*
X179390000Y-127190000D01*
X181340000Y-121920000D02*
X184660000Y-121920000D01*
X181340000Y-129140000D02*
X184660000Y-129140000D01*
X186610000Y-123870000D02*
X186610000Y-127190000D01*
%TO.C,C2*%
X110640000Y-129412164D02*
X110640000Y-129627836D01*
X111360000Y-129412164D02*
X111360000Y-129627836D01*
%TO.C,U1*%
X119800000Y-128550000D02*
X123700000Y-128550000D01*
X123700000Y-133450000D01*
X119800000Y-133450000D01*
X119800000Y-128550000D01*
%TO.C,SMA05*%
X56390000Y-51810000D02*
X56390000Y-55130000D01*
X58340000Y-49860000D02*
X61660000Y-49860000D01*
X58340000Y-57080000D02*
X61660000Y-57080000D01*
X63610000Y-51810000D02*
X63610000Y-55130000D01*
%TO.C,J13*%
X116830000Y-143900000D02*
X116830000Y-142200000D01*
X126170000Y-143900000D02*
X126170000Y-142200000D01*
%TO.C,SMA07*%
X179390000Y-51810000D02*
X179390000Y-55130000D01*
X181340000Y-49860000D02*
X184660000Y-49860000D01*
X181340000Y-57080000D02*
X184660000Y-57080000D01*
X186610000Y-51810000D02*
X186610000Y-55130000D01*
%TO.C,SMA11*%
X179390000Y-99850000D02*
X179390000Y-103170000D01*
X181340000Y-97900000D02*
X184660000Y-97900000D01*
X181340000Y-105120000D02*
X184660000Y-105120000D01*
X186610000Y-99850000D02*
X186610000Y-103170000D01*
%TO.C,SMA09*%
X56390000Y-99850000D02*
X56390000Y-103170000D01*
X58340000Y-97900000D02*
X61660000Y-97900000D01*
X58340000Y-105120000D02*
X61660000Y-105120000D01*
X63610000Y-99850000D02*
X63610000Y-103170000D01*
%TO.C,SMA06*%
X56390000Y-75830000D02*
X56390000Y-79150000D01*
X58340000Y-73880000D02*
X61660000Y-73880000D01*
X58340000Y-81100000D02*
X61660000Y-81100000D01*
X63610000Y-75830000D02*
X63610000Y-79150000D01*
%TO.C,SMA03*%
X131400000Y-33340000D02*
X131400000Y-36660000D01*
X133350000Y-31390000D02*
X136670000Y-31390000D01*
X133350000Y-38610000D02*
X136670000Y-38610000D01*
X138620000Y-33340000D02*
X138620000Y-36660000D01*
%TD*%
M02*
