M48
; DRILL file KiCad 10.0.3 date 2026-07-04T01:03:19
; FORMAT={-:-/ absolute / metric / decimal}
; #@! TF.CreationDate,2026-07-04T01:03:19-04:00
; #@! TF.GenerationSoftware,Kicad,Pcbnew,10.0.3
; #@! TF.FileFunction,Plated,1,2,PTH
FMAT,2
METRIC
; #@! TA.AperFunction,Plated,PTH,ViaDrill
T1C0.300
; #@! TA.AperFunction,Plated,PTH,ComponentDrill
T2C0.600
; #@! TA.AperFunction,Plated,PTH,ComponentDrill
T3C0.890
; #@! TA.AperFunction,Plated,PTH,ComponentDrill
T4C1.000
; #@! TA.AperFunction,Plated,PTH,ComponentDrill
T5C1.700
%
G90
G05
T1
X111.0Y-96.0
X111.0Y-122.5
X118.275Y-127.5
X143.0Y-96.0
X143.0Y-122.5
X150.55Y-95.5
X150.55Y-127.0
X175.0Y-96.0
X175.0Y-122.5
X182.775Y-127.0
X206.775Y-96.0
X207.0Y-122.5
X214.275Y-96.0
X214.5Y-127.0
X239.0Y-96.0
X239.05Y-123.0
X251.0Y-107.5
X252.35Y-118.0
X252.35Y-120.0
X255.1Y-97.0
X255.82Y-115.8
X255.82Y-122.2
T3
X99.4Y-63.96
X100.4Y-131.46
X131.4Y-131.5
X132.9Y-64.0
X164.9Y-63.96
X165.4Y-131.5
X196.4Y-131.5
X197.4Y-64.0
X229.9Y-64.0
X229.9Y-131.46
T4
X92.28Y-76.88
X92.28Y-92.12
X92.28Y-103.88
X92.28Y-119.12
X94.82Y-76.88
X94.82Y-92.12
X94.82Y-103.88
X94.82Y-119.12
X97.36Y-76.88
X97.36Y-92.12
X97.36Y-103.88
X97.36Y-119.12
X99.9Y-76.88
X99.9Y-92.12
X99.9Y-103.88
X99.9Y-119.12
X102.44Y-76.88
X102.44Y-92.12
X102.44Y-103.88
X102.44Y-119.12
X104.98Y-76.88
X104.98Y-92.12
X104.98Y-103.88
X104.98Y-119.12
X107.52Y-76.88
X107.52Y-92.12
X107.52Y-103.88
X107.52Y-119.12
X124.28Y-76.88
X124.28Y-92.12
X124.28Y-103.88
X124.28Y-119.12
X126.82Y-76.88
X126.82Y-92.12
X126.82Y-103.88
X126.82Y-119.12
X129.36Y-76.88
X129.36Y-92.12
X129.36Y-103.88
X129.36Y-119.12
X131.9Y-76.88
X131.9Y-92.12
X131.9Y-103.88
X131.9Y-119.12
X134.44Y-76.88
X134.44Y-92.12
X134.44Y-103.88
X134.44Y-119.12
X136.98Y-76.88
X136.98Y-92.12
X136.98Y-103.88
X136.98Y-119.12
X139.52Y-76.88
X139.52Y-92.12
X139.52Y-103.88
X139.52Y-119.12
X156.28Y-76.88
X156.28Y-92.12
X156.28Y-103.88
X156.28Y-119.12
X158.82Y-76.88
X158.82Y-92.12
X158.82Y-103.88
X158.82Y-119.12
X161.36Y-76.88
X161.36Y-92.12
X161.36Y-103.88
X161.36Y-119.12
X163.9Y-76.88
X163.9Y-92.12
X163.9Y-103.88
X163.9Y-119.12
X166.44Y-76.88
X166.44Y-92.12
X166.44Y-103.88
X166.44Y-119.12
X168.98Y-76.88
X168.98Y-92.12
X168.98Y-103.88
X168.98Y-119.12
X171.52Y-76.88
X171.52Y-92.12
X171.52Y-103.88
X171.52Y-119.12
X188.28Y-76.88
X188.28Y-92.12
X188.28Y-103.88
X188.28Y-119.12
X190.82Y-76.88
X190.82Y-92.12
X190.82Y-103.88
X190.82Y-119.12
X193.36Y-76.88
X193.36Y-92.12
X193.36Y-103.88
X193.36Y-119.12
X195.9Y-76.88
X195.9Y-92.12
X195.9Y-103.88
X195.9Y-119.12
X198.44Y-76.88
X198.44Y-92.12
X198.44Y-103.88
X198.44Y-119.12
X200.98Y-76.88
X200.98Y-92.12
X200.98Y-103.88
X200.98Y-119.12
X203.52Y-76.88
X203.52Y-92.12
X203.52Y-103.88
X203.52Y-119.12
X220.28Y-76.88
X220.28Y-92.12
X220.28Y-103.88
X220.28Y-119.12
X222.82Y-76.88
X222.82Y-92.12
X222.82Y-103.88
X222.82Y-119.12
X225.36Y-76.88
X225.36Y-92.12
X225.36Y-103.88
X225.36Y-119.12
X227.9Y-76.88
X227.9Y-92.12
X227.9Y-103.88
X227.9Y-119.12
X230.44Y-76.88
X230.44Y-92.12
X230.44Y-103.88
X230.44Y-119.12
X232.98Y-76.88
X232.98Y-92.12
X232.98Y-103.88
X232.98Y-119.12
X235.52Y-76.88
X235.52Y-92.12
X235.52Y-103.88
X235.52Y-119.12
T5
X96.86Y-61.42
X96.86Y-66.5
X97.86Y-128.92
X97.86Y-134.0
X101.94Y-61.42
X101.94Y-66.5
X102.94Y-128.92
X102.94Y-134.0
X128.86Y-128.96
X128.86Y-134.04
X130.36Y-61.46
X130.36Y-66.54
X133.94Y-128.96
X133.94Y-134.04
X135.44Y-61.46
X135.44Y-66.54
X162.36Y-61.42
X162.36Y-66.5
X162.86Y-128.96
X162.86Y-134.04
X167.44Y-61.42
X167.44Y-66.5
X167.94Y-128.96
X167.94Y-134.04
X193.86Y-128.96
X193.86Y-134.04
X194.86Y-61.46
X194.86Y-66.54
X198.94Y-128.96
X198.94Y-134.04
X199.94Y-61.46
X199.94Y-66.54
X227.36Y-61.46
X227.36Y-66.54
X227.36Y-128.92
X227.36Y-134.0
X232.44Y-61.46
X232.44Y-66.54
X232.44Y-128.92
X232.44Y-134.0
T2
G00X255.845Y-114.68
M15
G01X256.945Y-114.68
M16
G05
G00X255.845Y-123.32
M15
G01X256.945Y-123.32
M16
G05
G00X260.175Y-114.68
M15
G01X260.975Y-114.68
M16
G05
G00X260.175Y-123.32
M15
G01X260.975Y-123.32
M16
G05
M30
