%TF.GenerationSoftware,KiCad,Pcbnew,10.0.3*%
%TF.CreationDate,2026-07-04T01:03:13-04:00*%
%TF.ProjectId,ESP32-C5-Board-V5,45535033-322d-4433-952d-426f6172642d,rev?*%
%TF.SameCoordinates,Original*%
%TF.FileFunction,Soldermask,Bot*%
%TF.FilePolarity,Negative*%
%FSLAX46Y46*%
G04 Gerber Fmt 4.6, Leading zero omitted, Abs format (unit mm)*
G04 Created by KiCad (PCBNEW 10.0.3) date 2026-07-04 01:03:13*
%MOMM*%
%LPD*%
G01*
G04 APERTURE LIST*
%ADD10C,1.440000*%
%ADD11C,2.250000*%
%ADD12R,1.700000X1.700000*%
%ADD13C,1.700000*%
%ADD14C,0.650000*%
%ADD15O,2.100000X1.000000*%
%ADD16O,1.800000X1.000000*%
G04 APERTURE END LIST*
D10*
%TO.C,J6*%
X100400000Y-131460000D03*
D11*
X97860000Y-128920000D03*
X97860000Y-134000000D03*
X102940000Y-128920000D03*
X102940000Y-134000000D03*
%TD*%
D12*
%TO.C,H10A*%
X235520000Y-103880000D03*
D13*
X232980000Y-103880000D03*
X230440000Y-103880000D03*
X227900000Y-103880000D03*
X225360000Y-103880000D03*
X222820000Y-103880000D03*
X220280000Y-103880000D03*
%TD*%
D10*
%TO.C,J8*%
X165400000Y-131500000D03*
D11*
X162860000Y-128960000D03*
X162860000Y-134040000D03*
X167940000Y-128960000D03*
X167940000Y-134040000D03*
%TD*%
D12*
%TO.C,H4B*%
X188280000Y-92120000D03*
D13*
X190820000Y-92120000D03*
X193360000Y-92120000D03*
X195900000Y-92120000D03*
X198440000Y-92120000D03*
X200980000Y-92120000D03*
X203520000Y-92120000D03*
%TD*%
D12*
%TO.C,H6A*%
X107520000Y-103880000D03*
D13*
X104980000Y-103880000D03*
X102440000Y-103880000D03*
X99900000Y-103880000D03*
X97360000Y-103880000D03*
X94820000Y-103880000D03*
X92280000Y-103880000D03*
%TD*%
D10*
%TO.C,J5*%
X229900000Y-64000000D03*
D11*
X227360000Y-61460000D03*
X227360000Y-66540000D03*
X232440000Y-61460000D03*
X232440000Y-66540000D03*
%TD*%
D12*
%TO.C,H1B*%
X92280000Y-92120000D03*
D13*
X94820000Y-92120000D03*
X97360000Y-92120000D03*
X99900000Y-92120000D03*
X102440000Y-92120000D03*
X104980000Y-92120000D03*
X107520000Y-92120000D03*
%TD*%
D10*
%TO.C,J10*%
X229900000Y-131460000D03*
D11*
X227360000Y-128920000D03*
X227360000Y-134000000D03*
X232440000Y-128920000D03*
X232440000Y-134000000D03*
%TD*%
D12*
%TO.C,H9A*%
X203520000Y-103880000D03*
D13*
X200980000Y-103880000D03*
X198440000Y-103880000D03*
X195900000Y-103880000D03*
X193360000Y-103880000D03*
X190820000Y-103880000D03*
X188280000Y-103880000D03*
%TD*%
D12*
%TO.C,H4A*%
X203520000Y-76880000D03*
D13*
X200980000Y-76880000D03*
X198440000Y-76880000D03*
X195900000Y-76880000D03*
X193360000Y-76880000D03*
X190820000Y-76880000D03*
X188280000Y-76880000D03*
%TD*%
D12*
%TO.C,H9B*%
X188280000Y-119120000D03*
D13*
X190820000Y-119120000D03*
X193360000Y-119120000D03*
X195900000Y-119120000D03*
X198440000Y-119120000D03*
X200980000Y-119120000D03*
X203520000Y-119120000D03*
%TD*%
D12*
%TO.C,H3B*%
X156280000Y-92120000D03*
D13*
X158820000Y-92120000D03*
X161360000Y-92120000D03*
X163900000Y-92120000D03*
X166440000Y-92120000D03*
X168980000Y-92120000D03*
X171520000Y-92120000D03*
%TD*%
D10*
%TO.C,J2*%
X132900000Y-64000000D03*
D11*
X130360000Y-61460000D03*
X130360000Y-66540000D03*
X135440000Y-61460000D03*
X135440000Y-66540000D03*
%TD*%
D14*
%TO.C,J11*%
X256895000Y-121890000D03*
X256895000Y-116110000D03*
D15*
X256395000Y-123320000D03*
D16*
X260575000Y-123320000D03*
D15*
X256395000Y-114680000D03*
D16*
X260575000Y-114680000D03*
%TD*%
D12*
%TO.C,H5B*%
X220280000Y-92120000D03*
D13*
X222820000Y-92120000D03*
X225360000Y-92120000D03*
X227900000Y-92120000D03*
X230440000Y-92120000D03*
X232980000Y-92120000D03*
X235520000Y-92120000D03*
%TD*%
D12*
%TO.C,H3A*%
X171520000Y-76880000D03*
D13*
X168980000Y-76880000D03*
X166440000Y-76880000D03*
X163900000Y-76880000D03*
X161360000Y-76880000D03*
X158820000Y-76880000D03*
X156280000Y-76880000D03*
%TD*%
D12*
%TO.C,H7A*%
X139520000Y-103880000D03*
D13*
X136980000Y-103880000D03*
X134440000Y-103880000D03*
X131900000Y-103880000D03*
X129360000Y-103880000D03*
X126820000Y-103880000D03*
X124280000Y-103880000D03*
%TD*%
D10*
%TO.C,J3*%
X164900000Y-63960000D03*
D11*
X162360000Y-61420000D03*
X162360000Y-66500000D03*
X167440000Y-61420000D03*
X167440000Y-66500000D03*
%TD*%
D12*
%TO.C,H8A*%
X171520000Y-103880000D03*
D13*
X168980000Y-103880000D03*
X166440000Y-103880000D03*
X163900000Y-103880000D03*
X161360000Y-103880000D03*
X158820000Y-103880000D03*
X156280000Y-103880000D03*
%TD*%
D12*
%TO.C,H1A*%
X107520000Y-76880000D03*
D13*
X104980000Y-76880000D03*
X102440000Y-76880000D03*
X99900000Y-76880000D03*
X97360000Y-76880000D03*
X94820000Y-76880000D03*
X92280000Y-76880000D03*
%TD*%
D12*
%TO.C,H6B*%
X92280000Y-119120000D03*
D13*
X94820000Y-119120000D03*
X97360000Y-119120000D03*
X99900000Y-119120000D03*
X102440000Y-119120000D03*
X104980000Y-119120000D03*
X107520000Y-119120000D03*
%TD*%
D12*
%TO.C,H2A*%
X139520000Y-76880000D03*
D13*
X136980000Y-76880000D03*
X134440000Y-76880000D03*
X131900000Y-76880000D03*
X129360000Y-76880000D03*
X126820000Y-76880000D03*
X124280000Y-76880000D03*
%TD*%
D12*
%TO.C,H8B*%
X156280000Y-119120000D03*
D13*
X158820000Y-119120000D03*
X161360000Y-119120000D03*
X163900000Y-119120000D03*
X166440000Y-119120000D03*
X168980000Y-119120000D03*
X171520000Y-119120000D03*
%TD*%
D12*
%TO.C,T8B*%
X124280000Y-119120000D03*
D13*
X126820000Y-119120000D03*
X129360000Y-119120000D03*
X131900000Y-119120000D03*
X134440000Y-119120000D03*
X136980000Y-119120000D03*
X139520000Y-119120000D03*
%TD*%
D10*
%TO.C,J9*%
X196400000Y-131500000D03*
D11*
X193860000Y-128960000D03*
X193860000Y-134040000D03*
X198940000Y-128960000D03*
X198940000Y-134040000D03*
%TD*%
D10*
%TO.C,J1*%
X99400000Y-63960000D03*
D11*
X96860000Y-61420000D03*
X96860000Y-66500000D03*
X101940000Y-61420000D03*
X101940000Y-66500000D03*
%TD*%
D12*
%TO.C,H2B*%
X124280000Y-92120000D03*
D13*
X126820000Y-92120000D03*
X129360000Y-92120000D03*
X131900000Y-92120000D03*
X134440000Y-92120000D03*
X136980000Y-92120000D03*
X139520000Y-92120000D03*
%TD*%
D10*
%TO.C,J4*%
X197400000Y-64000000D03*
D11*
X194860000Y-61460000D03*
X194860000Y-66540000D03*
X199940000Y-61460000D03*
X199940000Y-66540000D03*
%TD*%
D10*
%TO.C,J7*%
X131400000Y-131500000D03*
D11*
X128860000Y-128960000D03*
X128860000Y-134040000D03*
X133940000Y-128960000D03*
X133940000Y-134040000D03*
%TD*%
D12*
%TO.C,H5A*%
X235520000Y-76880000D03*
D13*
X232980000Y-76880000D03*
X230440000Y-76880000D03*
X227900000Y-76880000D03*
X225360000Y-76880000D03*
X222820000Y-76880000D03*
X220280000Y-76880000D03*
%TD*%
D12*
%TO.C,H10B*%
X220280000Y-119120000D03*
D13*
X222820000Y-119120000D03*
X225360000Y-119120000D03*
X227900000Y-119120000D03*
X230440000Y-119120000D03*
X232980000Y-119120000D03*
X235520000Y-119120000D03*
%TD*%
M02*
